solid OpenSCAD_Model
  facet normal 1 0 0
    outer loop
      vertex -13.200000002980232 -6.923044739294701 -0.40000000149011594
      vertex -13.200000002980232 -6.923044739294701 -2
      vertex -13.200000002980232 6.923044739294701 -2
    endloop
  endfacet
  facet normal -1 0 0
    outer loop
      vertex -14 -6.123044742274933 0.5999999985098841
      vertex -14 6.123044742274933 0.5999999985098841
      vertex -14 -6.123044742274933 -2
    endloop
  endfacet
  facet normal 0 0 1
    outer loop
      vertex -12.965787968567087 -12.325397128085172 1.999999997019768
      vertex -14 -8.102943727489924 1.999999997019768
      vertex -14 -11.854560081639454 1.999999997019768
    endloop
  endfacet
  facet normal 0.8192319193720264 0 -0.5734623460019198
    outer loop
      vertex -12.5 -7.623044742274933 0.5999999985098841
      vertex -13.200000002980232 -6.923044739294701 -0.40000000149011594
      vertex -12.5 7.623044742274933 0.5999999985098841
    endloop
  endfacet
  facet normal 0 0 1
    outer loop
      vertex -12.965787968567087 -12.325397128085172 1.999999997019768
      vertex -13.035340831228476 -10.554960626375408 1.999999997019768
      vertex -14 8.102943727489924 1.999999997019768
    endloop
  endfacet
  facet normal 0 0 1
    outer loop
      vertex -12.965787968567087 -12.325397128085172 1.999999997019768
      vertex -14 8.102943727489924 1.999999997019768
      vertex -14 -8.102943727489924 1.999999997019768
    endloop
  endfacet
  facet normal 0 0 1
    outer loop
      vertex -13.035340831228476 -10.554960626375408 1.999999997019768
      vertex -12.899999998509884 -9.20294372898004 1.999999997019768
      vertex -13.777087219648928 8.325856507840996 1.999999997019768
    endloop
  endfacet
  facet normal -1 0 0
    outer loop
      vertex -14 -8.102943727489924 1.999999997019768
      vertex -14 6.123044742274933 0.5999999985098841
      vertex -14 -6.123044742274933 0.5999999985098841
    endloop
  endfacet
  facet normal 1 0 0
    outer loop
      vertex -12.5 -7.623044742274933 0.5999999985098841
      vertex -12.5 9.037258304648027 1.599999998509884
      vertex -12.5 -9.037258304648027 1.599999998509884
    endloop
  endfacet
  facet normal 0.7071067811865475 0 0.7071067811865475
    outer loop
      vertex -12.5 -9.037258304648027 1.599999998509884
      vertex -12.899999998509884 9.20294372898004 1.999999997019768
      vertex -12.899999998509884 -9.20294372898004 1.999999997019768
    endloop
  endfacet
  facet normal -1 0 0
    outer loop
      vertex -14 6.123044742274933 0.5999999985098841
      vertex -14 6.123044742274933 -2
      vertex -14 -6.123044742274933 -2
    endloop
  endfacet
  facet normal 1 0 0
    outer loop
      vertex -13.200000002980232 -6.923044739294701 -0.40000000149011594
      vertex -13.200000002980232 6.923044739294701 -2
      vertex -13.200000002980232 6.923044739294701 -0.40000000149011594
    endloop
  endfacet
  facet normal 0.8192319193720263 0 -0.5734623460019198
    outer loop
      vertex -13.200000002980232 -6.923044739294701 -0.40000000149011594
      vertex -13.200000002980232 6.923044739294701 -0.40000000149011594
      vertex -12.5 7.623044742274933 0.5999999985098841
    endloop
  endfacet
  facet normal 1 0 0
    outer loop
      vertex -12.5 -7.623044742274933 0.5999999985098841
      vertex -12.5 7.623044742274933 0.5999999985098841
      vertex -12.5 9.037258304648027 1.599999998509884
    endloop
  endfacet
  facet normal -1 0 0
    outer loop
      vertex -14 -8.102943727489924 1.999999997019768
      vertex -14 8.102943727489924 1.999999997019768
      vertex -14 6.123044742274933 0.5999999985098841
    endloop
  endfacet
  facet normal 0.7071067811865476 0 0.7071067811865476
    outer loop
      vertex -12.5 -9.037258304648027 1.599999998509884
      vertex -12.5 9.037258304648027 1.599999998509884
      vertex -12.899999998509884 9.20294372898004 1.999999997019768
    endloop
  endfacet
  facet normal 0 0 1
    outer loop
      vertex -13.035340831228476 -10.554960626375408 1.999999997019768
      vertex -13.777087219648928 8.325856507840996 1.999999997019768
      vertex -14 8.102943727489924 1.999999997019768
    endloop
  endfacet
  facet normal 0 0 1
    outer loop
      vertex -12.899999998509884 -9.20294372898004 1.999999997019768
      vertex -12.899999998509884 9.20294372898004 1.999999997019768
      vertex -13.777087219648928 8.325856507840996 1.999999997019768
    endloop
  endfacet
  facet normal 0 0 1
    outer loop
      vertex -13.777087219648928 8.325856507840996 1.999999997019768
      vertex -12.899999998509884 9.20294372898004 1.999999997019768
      vertex -13.829571137787326 9.661810785917767 1.999999997019768
    endloop
  endfacet
  facet normal 0 0 1
    outer loop
      vertex -13.829571137787326 9.661810785917767 1.999999997019768
      vertex -12.899999998509884 9.20294372898004 1.999999997019768
      vertex -12.899999998509884 11.70365023668062 1.999999997019768
    endloop
  endfacet
  facet normal 1 0 0
    outer loop
      vertex 14 -6.123044742274933 0.5999999985098841
      vertex 14 -6.123044742274933 -2
      vertex 14 6.123044742274933 -2
    endloop
  endfacet
  facet normal -1 0 0
    outer loop
      vertex 13.200000002980232 -6.923044739294701 -0.40000000149011594
      vertex 13.200000002980232 6.923044739294701 -0.40000000149011594
      vertex 13.200000002980232 -6.923044739294701 -2
    endloop
  endfacet
  facet normal -0.8192319193720263 0 -0.5734623460019198
    outer loop
      vertex 12.5 -7.623044742274933 0.5999999985098841
      vertex 13.200000002980232 6.923044739294701 -0.40000000149011594
      vertex 13.200000002980232 -6.923044739294701 -0.40000000149011594
    endloop
  endfacet
  facet normal 0 0 1
    outer loop
      vertex 12.899999998509884 -11.70365023668062 1.999999997019768
      vertex 13.829571137787326 -9.661810785917767 1.999999997019768
      vertex 12.899999998509884 -9.20294372898004 1.999999997019768
    endloop
  endfacet
  facet normal 0 0 1
    outer loop
      vertex 12.899999998509884 -9.20294372898004 1.999999997019768
      vertex 13.829571137787326 -9.661810785917767 1.999999997019768
      vertex 13.777087219648928 -8.325856507840996 1.999999997019768
    endloop
  endfacet
  facet normal -1 0 0
    outer loop
      vertex 12.5 -7.623044742274933 0.5999999985098841
      vertex 12.5 -9.037258304648027 1.599999998509884
      vertex 12.5 7.623044742274933 0.5999999985098841
    endloop
  endfacet
  facet normal -0.7071067811865476 0 0.7071067811865476
    outer loop
      vertex 12.5 -9.037258304648027 1.599999998509884
      vertex 12.899999998509884 -9.20294372898004 1.999999997019768
      vertex 12.5 9.037258304648027 1.599999998509884
    endloop
  endfacet
  facet normal 1 0 0
    outer loop
      vertex 14 -8.102943727489924 1.999999997019768
      vertex 14 -6.123044742274933 0.5999999985098841
      vertex 14 8.102943727489924 1.999999997019768
    endloop
  endfacet
  facet normal 0 0 1
    outer loop
      vertex 12.899999998509884 -9.20294372898004 1.999999997019768
      vertex 13.777087219648928 -8.325856507840996 1.999999997019768
      vertex 12.899999998509884 9.20294372898004 1.999999997019768
    endloop
  endfacet
  facet normal 0 0 1
    outer loop
      vertex 13.777087219648928 -8.325856507840996 1.999999997019768
      vertex 14 -8.102943727489924 1.999999997019768
      vertex 13.035340831228476 10.554960626375408 1.999999997019768
    endloop
  endfacet
  facet normal -1 0 0
    outer loop
      vertex 13.200000002980232 6.923044739294701 -0.40000000149011594
      vertex 13.200000002980232 6.923044739294701 -2
      vertex 13.200000002980232 -6.923044739294701 -2
    endloop
  endfacet
  facet normal 1 0 0
    outer loop
      vertex 14 -6.123044742274933 0.5999999985098841
      vertex 14 6.123044742274933 -2
      vertex 14 6.123044742274933 0.5999999985098841
    endloop
  endfacet
  facet normal -0.8192319193720264 0 -0.5734623460019198
    outer loop
      vertex 12.5 -7.623044742274933 0.5999999985098841
      vertex 12.5 7.623044742274933 0.5999999985098841
      vertex 13.200000002980232 6.923044739294701 -0.40000000149011594
    endloop
  endfacet
  facet normal 1 0 0
    outer loop
      vertex 14 -6.123044742274933 0.5999999985098841
      vertex 14 6.123044742274933 0.5999999985098841
      vertex 14 8.102943727489924 1.999999997019768
    endloop
  endfacet
  facet normal -1 0 0
    outer loop
      vertex 12.5 -9.037258304648027 1.599999998509884
      vertex 12.5 9.037258304648027 1.599999998509884
      vertex 12.5 7.623044742274933 0.5999999985098841
    endloop
  endfacet
  facet normal -0.7071067811865475 0 0.7071067811865475
    outer loop
      vertex 12.899999998509884 -9.20294372898004 1.999999997019768
      vertex 12.899999998509884 9.20294372898004 1.999999997019768
      vertex 12.5 9.037258304648027 1.599999998509884
    endloop
  endfacet
  facet normal 0 0 1
    outer loop
      vertex 13.777087219648928 -8.325856507840996 1.999999997019768
      vertex 13.035340831228476 10.554960626375408 1.999999997019768
      vertex 12.899999998509884 9.20294372898004 1.999999997019768
    endloop
  endfacet
  facet normal 0 0 1
    outer loop
      vertex 14 -8.102943727489924 1.999999997019768
      vertex 14 8.102943727489924 1.999999997019768
      vertex 12.965787968567087 12.325397128085172 1.999999997019768
    endloop
  endfacet
  facet normal 0 0 1
    outer loop
      vertex 14 -8.102943727489924 1.999999997019768
      vertex 12.965787968567087 12.325397128085172 1.999999997019768
      vertex 13.035340831228476 10.554960626375408 1.999999997019768
    endloop
  endfacet
  facet normal 0 0 1
    outer loop
      vertex 14 8.102943727489924 1.999999997019768
      vertex 14 11.854560081639454 1.999999997019768
      vertex 12.965787968567087 12.325397128085172 1.999999997019768
    endloop
  endfacet
  facet normal 0 -1 0
    outer loop
      vertex -6.923044739294701 13.200000002980232 -0.40000000149011594
      vertex -6.923044739294701 13.200000002980232 -2
      vertex 6.923044739294701 13.200000002980232 -2
    endloop
  endfacet
  facet normal 0 1 0
    outer loop
      vertex -6.123044742274933 14 0.5999999985098841
      vertex 6.123044742274933 14 0.5999999985098841
      vertex -6.123044742274933 14 -2
    endloop
  endfacet
  facet normal 0 -0.8192319193720263 -0.5734623460019198
    outer loop
      vertex -7.623044742274933 12.5 0.5999999985098841
      vertex -6.923044739294701 13.200000002980232 -0.40000000149011594
      vertex 6.923044739294701 13.200000002980232 -0.40000000149011594
    endloop
  endfacet
  facet normal 0 -1 0
    outer loop
      vertex -7.623044742274933 12.5 0.5999999985098841
      vertex 7.623044742274933 12.5 0.5999999985098841
      vertex -9.037258304648027 12.5 1.599999998509884
    endloop
  endfacet
  facet normal 0 1 0
    outer loop
      vertex -8.102943727489924 14 1.999999997019768
      vertex 6.123044742274933 14 0.5999999985098841
      vertex -6.123044742274933 14 0.5999999985098841
    endloop
  endfacet
  facet normal 0 -0.7071067811865476 0.7071067811865476
    outer loop
      vertex -9.037258304648027 12.5 1.599999998509884
      vertex 9.037258304648027 12.5 1.599999998509884
      vertex -9.20294372898004 12.899999998509884 1.999999997019768
    endloop
  endfacet
  facet normal 0 0 1
    outer loop
      vertex -9.20294372898004 12.899999998509884 1.999999997019768
      vertex 8.325856507840996 13.777087219648928 1.999999997019768
      vertex -9.006781576356902 13.096162151133022 1.999999997019768
    endloop
  endfacet
  facet normal 0 0 1
    outer loop
      vertex -9.006781576356902 13.096162151133022 1.999999997019768
      vertex 8.102943727489924 14 1.999999997019768
      vertex -8.102943727489924 14 1.999999997019768
    endloop
  endfacet
  facet normal 0 1 0
    outer loop
      vertex 6.123044742274933 14 0.5999999985098841
      vertex 6.123044742274933 14 -2
      vertex -6.123044742274933 14 -2
    endloop
  endfacet
  facet normal 0 -1 0
    outer loop
      vertex -6.923044739294701 13.200000002980232 -0.40000000149011594
      vertex 6.923044739294701 13.200000002980232 -2
      vertex 6.923044739294701 13.200000002980232 -0.40000000149011594
    endloop
  endfacet
  facet normal 0 -0.8192319193720264 -0.5734623460019198
    outer loop
      vertex -7.623044742274933 12.5 0.5999999985098841
      vertex 6.923044739294701 13.200000002980232 -0.40000000149011594
      vertex 7.623044742274933 12.5 0.5999999985098841
    endloop
  endfacet
  facet normal 0 -1 0
    outer loop
      vertex -9.037258304648027 12.5 1.599999998509884
      vertex 7.623044742274933 12.5 0.5999999985098841
      vertex 9.037258304648027 12.5 1.599999998509884
    endloop
  endfacet
  facet normal 0 1 0
    outer loop
      vertex -8.102943727489924 14 1.999999997019768
      vertex 8.102943727489924 14 1.999999997019768
      vertex 6.123044742274933 14 0.5999999985098841
    endloop
  endfacet
  facet normal 0 0 1
    outer loop
      vertex -9.006781576356902 13.096162151133022 1.999999997019768
      vertex 8.325856507840996 13.777087219648928 1.999999997019768
      vertex 8.102943727489924 14 1.999999997019768
    endloop
  endfacet
  facet normal 0 -0.7071067811865475 0.7071067811865475
    outer loop
      vertex -9.20294372898004 12.899999998509884 1.999999997019768
      vertex 9.037258304648027 12.5 1.599999998509884
      vertex 9.20294372898004 12.899999998509884 1.999999997019768
    endloop
  endfacet
  facet normal 0 0 1
    outer loop
      vertex -9.20294372898004 12.899999998509884 1.999999997019768
      vertex 9.20294372898004 12.899999998509884 1.999999997019768
      vertex 8.325856507840996 13.777087219648928 1.999999997019768
    endloop
  endfacet
  facet normal 0 0 1
    outer loop
      vertex 8.325856507840996 13.777087219648928 1.999999997019768
      vertex 9.20294372898004 12.899999998509884 1.999999997019768
      vertex 9.661810785917767 13.829571137787326 1.999999997019768
    endloop
  endfacet
  facet normal 0 0 1
    outer loop
      vertex 9.20294372898004 12.899999998509884 1.999999997019768
      vertex 11.70365023668062 12.899999998509884 1.999999997019768
      vertex 9.661810785917767 13.829571137787326 1.999999997019768
    endloop
  endfacet
  facet normal 0 -1 0
    outer loop
      vertex -6.123044742274933 -14 0.5999999985098841
      vertex -6.123044742274933 -14 -2
      vertex 6.123044742274933 -14 -2
    endloop
  endfacet
  facet normal 0 1 0
    outer loop
      vertex -6.923044739294701 -13.200000002980232 -0.40000000149011594
      vertex 6.923044739294701 -13.200000002980232 -0.40000000149011594
      vertex -6.923044739294701 -13.200000002980232 -2
    endloop
  endfacet
  facet normal 0 0 1
    outer loop
      vertex -11.70365023668062 -12.899999998509884 1.999999997019768
      vertex -9.661810785917767 -13.829571137787326 1.999999997019768
      vertex -9.20294372898004 -12.899999998509884 1.999999997019768
    endloop
  endfacet
  facet normal 0 0 1
    outer loop
      vertex -9.661810785917767 -13.829571137787326 1.999999997019768
      vertex -8.325856507840996 -13.777087219648928 1.999999997019768
      vertex -9.20294372898004 -12.899999998509884 1.999999997019768
    endloop
  endfacet
  facet normal 0 0.8192319193720264 -0.5734623460019198
    outer loop
      vertex -7.623044742274933 -12.5 0.5999999985098841
      vertex 7.623044742274933 -12.5 0.5999999985098841
      vertex -6.923044739294701 -13.200000002980232 -0.40000000149011594
    endloop
  endfacet
  facet normal 0 1 0
    outer loop
      vertex -7.623044742274933 -12.5 0.5999999985098841
      vertex -9.037258304648027 -12.5 1.599999998509884
      vertex 9.037258304648027 -12.5 1.599999998509884
    endloop
  endfacet
  facet normal 0 -1 0
    outer loop
      vertex -8.102943727489924 -14 1.999999997019768
      vertex -6.123044742274933 -14 0.5999999985098841
      vertex 8.102943727489924 -14 1.999999997019768
    endloop
  endfacet
  facet normal 0 0 1
    outer loop
      vertex -9.20294372898004 -12.899999998509884 1.999999997019768
      vertex -8.325856507840996 -13.777087219648928 1.999999997019768
      vertex 9.20294372898004 -12.899999998509884 1.999999997019768
    endloop
  endfacet
  facet normal 0 0.7071067811865475 0.7071067811865475
    outer loop
      vertex -9.037258304648027 -12.5 1.599999998509884
      vertex -9.20294372898004 -12.899999998509884 1.999999997019768
      vertex 9.20294372898004 -12.899999998509884 1.999999997019768
    endloop
  endfacet
  facet normal 0 0 1
    outer loop
      vertex -8.325856507840996 -13.777087219648928 1.999999997019768
      vertex -8.102943727489924 -14 1.999999997019768
      vertex 9.006781576356902 -13.096162151133022 1.999999997019768
    endloop
  endfacet
  facet normal 0 1 0
    outer loop
      vertex 6.923044739294701 -13.200000002980232 -0.40000000149011594
      vertex 6.923044739294701 -13.200000002980232 -2
      vertex -6.923044739294701 -13.200000002980232 -2
    endloop
  endfacet
  facet normal 0 -1 0
    outer loop
      vertex -6.123044742274933 -14 0.5999999985098841
      vertex 6.123044742274933 -14 -2
      vertex 6.123044742274933 -14 0.5999999985098841
    endloop
  endfacet
  facet normal 0 0.8192319193720263 -0.5734623460019198
    outer loop
      vertex -6.923044739294701 -13.200000002980232 -0.40000000149011594
      vertex 7.623044742274933 -12.5 0.5999999985098841
      vertex 6.923044739294701 -13.200000002980232 -0.40000000149011594
    endloop
  endfacet
  facet normal 0 1 0
    outer loop
      vertex -7.623044742274933 -12.5 0.5999999985098841
      vertex 9.037258304648027 -12.5 1.599999998509884
      vertex 7.623044742274933 -12.5 0.5999999985098841
    endloop
  endfacet
  facet normal 0 -1 0
    outer loop
      vertex -6.123044742274933 -14 0.5999999985098841
      vertex 6.123044742274933 -14 0.5999999985098841
      vertex 8.102943727489924 -14 1.999999997019768
    endloop
  endfacet
  facet normal 0 0.7071067811865476 0.7071067811865476
    outer loop
      vertex -9.037258304648027 -12.5 1.599999998509884
      vertex 9.20294372898004 -12.899999998509884 1.999999997019768
      vertex 9.037258304648027 -12.5 1.599999998509884
    endloop
  endfacet
  facet normal 0 0 1
    outer loop
      vertex -8.102943727489924 -14 1.999999997019768
      vertex 8.102943727489924 -14 1.999999997019768
      vertex 9.006781576356902 -13.096162151133022 1.999999997019768
    endloop
  endfacet
  facet normal 0 0 1
    outer loop
      vertex -8.325856507840996 -13.777087219648928 1.999999997019768
      vertex 9.006781576356902 -13.096162151133022 1.999999997019768
      vertex 9.20294372898004 -12.899999998509884 1.999999997019768
    endloop
  endfacet
  facet normal 0.7071067811865476 -0.7071067811865476 0
    outer loop
      vertex -13.200000002980232 6.923044739294701 -0.40000000149011594
      vertex -13.200000002980232 6.923044739294701 -2
      vertex -6.923044739294701 13.200000002980232 -2
    endloop
  endfacet
  facet normal 0.7071067811865476 -0.7071067811865476 0
    outer loop
      vertex -13.200000002980232 6.923044739294701 -0.40000000149011594
      vertex -6.923044739294701 13.200000002980232 -2
      vertex -7.623044742274933 12.5 0.5999999985098841
    endloop
  endfacet
  facet normal 0.7071067811865476 -0.7071067811865476 0
    outer loop
      vertex -7.623044742274933 12.5 0.5999999985098841
      vertex -6.923044739294701 13.200000002980232 -2
      vertex -6.923044739294701 13.200000002980232 -0.40000000149011594
    endloop
  endfacet
  facet normal 0.7071067811865476 -0.7071067811865476 0
    outer loop
      vertex -13.200000002980232 6.923044739294701 -0.40000000149011594
      vertex -7.623044742274933 12.5 0.5999999985098841
      vertex -12.5 7.623044742274933 0.5999999985098841
    endloop
  endfacet
  facet normal 0.5000000000000002 -0.5000000000000002 0.7071067811865474
    outer loop
      vertex -12.5 7.623044742274933 0.5999999985098841
      vertex -7.623044742274933 12.5 0.5999999985098841
      vertex -12.5 9.037258304648027 1.599999998509884
    endloop
  endfacet
  facet normal 0 0 1
    outer loop
      vertex -14 8.102943727489924 1.999999997019768
      vertex -13.777087219648928 8.325856507840996 1.999999997019768
      vertex -13.829571137787326 9.661810785917767 1.999999997019768
    endloop
  endfacet
  facet normal 0.4999999999999995 -0.4999999999999994 0.7071067811865482
    outer loop
      vertex -12.5 9.037258304648027 1.599999998509884
      vertex -9.20294372898004 12.899999998509884 1.999999997019768
      vertex -12.899999998509884 9.20294372898004 1.999999997019768
    endloop
  endfacet
  facet normal 0 0 1
    outer loop
      vertex -14 8.102943727489924 1.999999997019768
      vertex -13.829571137787326 9.661810785917767 1.999999997019768
      vertex -14 14 1.999999997019768
    endloop
  endfacet
  facet normal 0 0 1
    outer loop
      vertex -13.829571137787326 9.661810785917767 1.999999997019768
      vertex -12.899999998509884 11.70365023668062 1.999999997019768
      vertex -14 14 1.999999997019768
    endloop
  endfacet
  facet normal 0 0 1
    outer loop
      vertex -12.899999998509884 9.20294372898004 1.999999997019768
      vertex -9.20294372898004 12.899999998509884 1.999999997019768
      vertex -12.899999998509884 11.70365023668062 1.999999997019768
    endloop
  endfacet
  facet normal 0 0 1
    outer loop
      vertex -12.899999998509884 11.70365023668062 1.999999997019768
      vertex -8.102943727489924 14 1.999999997019768
      vertex -14 14 1.999999997019768
    endloop
  endfacet
  facet normal 0.5000000000000002 -0.5000000000000002 0.7071067811865472
    outer loop
      vertex -12.5 9.037258304648027 1.599999998509884
      vertex -7.623044742274933 12.5 0.5999999985098841
      vertex -9.037258304648027 12.5 1.599999998509884
    endloop
  endfacet
  facet normal 0.4999999999999995 -0.4999999999999995 0.7071067811865481
    outer loop
      vertex -12.5 9.037258304648027 1.599999998509884
      vertex -9.037258304648027 12.5 1.599999998509884
      vertex -9.20294372898004 12.899999998509884 1.999999997019768
    endloop
  endfacet
  facet normal 0 0 1
    outer loop
      vertex -12.899999998509884 11.70365023668062 1.999999997019768
      vertex -9.20294372898004 12.899999998509884 1.999999997019768
      vertex -9.006781576356902 13.096162151133022 1.999999997019768
    endloop
  endfacet
  facet normal 0 0 1
    outer loop
      vertex -12.899999998509884 11.70365023668062 1.999999997019768
      vertex -9.006781576356902 13.096162151133022 1.999999997019768
      vertex -8.102943727489924 14 1.999999997019768
    endloop
  endfacet
  facet normal -0.7071067811865476 0.7071067811865476 0
    outer loop
      vertex 13.200000002980232 -6.923044739294701 -0.40000000149011594
      vertex 13.200000002980232 -6.923044739294701 -2
      vertex 6.923044739294701 -13.200000002980232 -2
    endloop
  endfacet
  facet normal -0.7071067811865476 0.7071067811865476 0
    outer loop
      vertex 6.923044739294701 -13.200000002980232 -0.40000000149011594
      vertex 7.623044742274933 -12.5 0.5999999985098841
      vertex 6.923044739294701 -13.200000002980232 -2
    endloop
  endfacet
  facet normal -0.7071067811865476 0.7071067811865476 0
    outer loop
      vertex 7.623044742274933 -12.5 0.5999999985098841
      vertex 13.200000002980232 -6.923044739294701 -0.40000000149011594
      vertex 6.923044739294701 -13.200000002980232 -2
    endloop
  endfacet
  facet normal -0.7071067811865476 0.7071067811865476 0
    outer loop
      vertex 7.623044742274933 -12.5 0.5999999985098841
      vertex 12.5 -7.623044742274933 0.5999999985098841
      vertex 13.200000002980232 -6.923044739294701 -0.40000000149011594
    endloop
  endfacet
  facet normal -0.5000000000000001 0.5000000000000001 0.7071067811865474
    outer loop
      vertex 7.623044742274933 -12.5 0.5999999985098841
      vertex 12.5 -9.037258304648027 1.599999998509884
      vertex 12.5 -7.623044742274933 0.5999999985098841
    endloop
  endfacet
  facet normal -0.5000000000000001 0.5000000000000001 0.7071067811865472
    outer loop
      vertex 7.623044742274933 -12.5 0.5999999985098841
      vertex 9.037258304648027 -12.5 1.599999998509884
      vertex 12.5 -9.037258304648027 1.599999998509884
    endloop
  endfacet
  facet normal 0 0 1
    outer loop
      vertex 8.102943727489924 -14 1.999999997019768
      vertex 12.899999998509884 -11.70365023668062 1.999999997019768
      vertex 9.006781576356902 -13.096162151133022 1.999999997019768
    endloop
  endfacet
  facet normal 0 0 1
    outer loop
      vertex 9.006781576356902 -13.096162151133022 1.999999997019768
      vertex 12.899999998509884 -11.70365023668062 1.999999997019768
      vertex 9.20294372898004 -12.899999998509884 1.999999997019768
    endloop
  endfacet
  facet normal -0.49999999999999944 0.49999999999999944 0.7071067811865482
    outer loop
      vertex 9.037258304648027 -12.5 1.599999998509884
      vertex 9.20294372898004 -12.899999998509884 1.999999997019768
      vertex 12.5 -9.037258304648027 1.599999998509884
    endloop
  endfacet
  facet normal 0 0 1
    outer loop
      vertex 8.102943727489924 -14 1.999999997019768
      vertex 14 -14 1.999999997019768
      vertex 12.899999998509884 -11.70365023668062 1.999999997019768
    endloop
  endfacet
  facet normal 0 0 1
    outer loop
      vertex 9.20294372898004 -12.899999998509884 1.999999997019768
      vertex 12.899999998509884 -11.70365023668062 1.999999997019768
      vertex 12.899999998509884 -9.20294372898004 1.999999997019768
    endloop
  endfacet
  facet normal 0 0 1
    outer loop
      vertex 14 -14 1.999999997019768
      vertex 13.829571137787326 -9.661810785917767 1.999999997019768
      vertex 12.899999998509884 -11.70365023668062 1.999999997019768
    endloop
  endfacet
  facet normal 0 0 1
    outer loop
      vertex 14 -14 1.999999997019768
      vertex 14 -8.102943727489924 1.999999997019768
      vertex 13.829571137787326 -9.661810785917767 1.999999997019768
    endloop
  endfacet
  facet normal -0.4999999999999995 0.4999999999999995 0.7071067811865482
    outer loop
      vertex 9.20294372898004 -12.899999998509884 1.999999997019768
      vertex 12.899999998509884 -9.20294372898004 1.999999997019768
      vertex 12.5 -9.037258304648027 1.599999998509884
    endloop
  endfacet
  facet normal 0 0 1
    outer loop
      vertex 13.829571137787326 -9.661810785917767 1.999999997019768
      vertex 14 -8.102943727489924 1.999999997019768
      vertex 13.777087219648928 -8.325856507840996 1.999999997019768
    endloop
  endfacet
  facet normal -0.7071067811865476 -0.7071067811865476 0
    outer loop
      vertex 6.923044739294701 13.200000002980232 -0.40000000149011594
      vertex 6.923044739294701 13.200000002980232 -2
      vertex 13.200000002980232 6.923044739294701 -2
    endloop
  endfacet
  facet normal -0.7071067811865476 -0.7071067811865476 0
    outer loop
      vertex 6.923044739294701 13.200000002980232 -0.40000000149011594
      vertex 13.200000002980232 6.923044739294701 -0.40000000149011594
      vertex 7.623044742274933 12.5 0.5999999985098841
    endloop
  endfacet
  facet normal -0.7071067811865476 -0.7071067811865476 0
    outer loop
      vertex 6.923044739294701 13.200000002980232 -0.40000000149011594
      vertex 13.200000002980232 6.923044739294701 -2
      vertex 13.200000002980232 6.923044739294701 -0.40000000149011594
    endloop
  endfacet
  facet normal -0.5000000000000002 -0.5000000000000002 0.7071067811865474
    outer loop
      vertex 7.623044742274933 12.5 0.5999999985098841
      vertex 12.5 7.623044742274933 0.5999999985098841
      vertex 9.037258304648027 12.5 1.599999998509884
    endloop
  endfacet
  facet normal -0.7071067811865476 -0.7071067811865476 0
    outer loop
      vertex 13.200000002980232 6.923044739294701 -0.40000000149011594
      vertex 12.5 7.623044742274933 0.5999999985098841
      vertex 7.623044742274933 12.5 0.5999999985098841
    endloop
  endfacet
  facet normal 0 0 1
    outer loop
      vertex 8.102943727489924 14 1.999999997019768
      vertex 8.325856507840996 13.777087219648928 1.999999997019768
      vertex 9.661810785917767 13.829571137787326 1.999999997019768
    endloop
  endfacet
  facet normal -0.4999999999999994 -0.4999999999999995 0.7071067811865482
    outer loop
      vertex 9.037258304648027 12.5 1.599999998509884
      vertex 12.899999998509884 9.20294372898004 1.999999997019768
      vertex 9.20294372898004 12.899999998509884 1.999999997019768
    endloop
  endfacet
  facet normal -0.5000000000000002 -0.5000000000000002 0.7071067811865472
    outer loop
      vertex 9.037258304648027 12.5 1.599999998509884
      vertex 12.5 7.623044742274933 0.5999999985098841
      vertex 12.5 9.037258304648027 1.599999998509884
    endloop
  endfacet
  facet normal -0.4999999999999995 -0.4999999999999995 0.7071067811865481
    outer loop
      vertex 9.037258304648027 12.5 1.599999998509884
      vertex 12.5 9.037258304648027 1.599999998509884
      vertex 12.899999998509884 9.20294372898004 1.999999997019768
    endloop
  endfacet
  facet normal 0 0 1
    outer loop
      vertex 9.20294372898004 12.899999998509884 1.999999997019768
      vertex 13.035340831228476 10.554960626375408 1.999999997019768
      vertex 11.70365023668062 12.899999998509884 1.999999997019768
    endloop
  endfacet
  facet normal 0 0 1
    outer loop
      vertex 9.20294372898004 12.899999998509884 1.999999997019768
      vertex 12.899999998509884 9.20294372898004 1.999999997019768
      vertex 13.035340831228476 10.554960626375408 1.999999997019768
    endloop
  endfacet
  facet normal 0 0 1
    outer loop
      vertex 8.102943727489924 14 1.999999997019768
      vertex 9.661810785917767 13.829571137787326 1.999999997019768
      vertex 14 14 1.999999997019768
    endloop
  endfacet
  facet normal 0 0 1
    outer loop
      vertex 9.661810785917767 13.829571137787326 1.999999997019768
      vertex 11.70365023668062 12.899999998509884 1.999999997019768
      vertex 14 14 1.999999997019768
    endloop
  endfacet
  facet normal 0 0 1
    outer loop
      vertex 11.70365023668062 12.899999998509884 1.999999997019768
      vertex 13.035340831228476 10.554960626375408 1.999999997019768
      vertex 12.965787968567087 12.325397128085172 1.999999997019768
    endloop
  endfacet
  facet normal 0 0 1
    outer loop
      vertex 11.70365023668062 12.899999998509884 1.999999997019768
      vertex 12.965787968567087 12.325397128085172 1.999999997019768
      vertex 14 14 1.999999997019768
    endloop
  endfacet
  facet normal 0 0 1
    outer loop
      vertex 14 11.854560081639454 1.999999997019768
      vertex 14 14 1.999999997019768
      vertex 12.965787968567087 12.325397128085172 1.999999997019768
    endloop
  endfacet
  facet normal 0.7071067811865476 0.7071067811865476 0
    outer loop
      vertex -6.923044739294701 -13.200000002980232 -0.40000000149011594
      vertex -6.923044739294701 -13.200000002980232 -2
      vertex -13.200000002980232 -6.923044739294701 -2
    endloop
  endfacet
  facet normal 0.7071067811865476 0.7071067811865476 0
    outer loop
      vertex -13.200000002980232 -6.923044739294701 -0.40000000149011594
      vertex -6.923044739294701 -13.200000002980232 -0.40000000149011594
      vertex -13.200000002980232 -6.923044739294701 -2
    endloop
  endfacet
  facet normal 0.7071067811865476 0.7071067811865476 0
    outer loop
      vertex -7.623044742274933 -12.5 0.5999999985098841
      vertex -6.923044739294701 -13.200000002980232 -0.40000000149011594
      vertex -13.200000002980232 -6.923044739294701 -0.40000000149011594
    endloop
  endfacet
  facet normal 0.7071067811865476 0.7071067811865476 0
    outer loop
      vertex -12.5 -7.623044742274933 0.5999999985098841
      vertex -7.623044742274933 -12.5 0.5999999985098841
      vertex -13.200000002980232 -6.923044739294701 -0.40000000149011594
    endloop
  endfacet
  facet normal 0.5000000000000001 0.5000000000000001 0.7071067811865474
    outer loop
      vertex -12.5 -7.623044742274933 0.5999999985098841
      vertex -9.037258304648027 -12.5 1.599999998509884
      vertex -7.623044742274933 -12.5 0.5999999985098841
    endloop
  endfacet
  facet normal 0 0 1
    outer loop
      vertex -14 -14 1.999999997019768
      vertex -12.965787968567087 -12.325397128085172 1.999999997019768
      vertex -14 -11.854560081639454 1.999999997019768
    endloop
  endfacet
  facet normal 0 0 1
    outer loop
      vertex -14 -14 1.999999997019768
      vertex -11.70365023668062 -12.899999998509884 1.999999997019768
      vertex -12.965787968567087 -12.325397128085172 1.999999997019768
    endloop
  endfacet
  facet normal 0 0 1
    outer loop
      vertex -12.965787968567087 -12.325397128085172 1.999999997019768
      vertex -11.70365023668062 -12.899999998509884 1.999999997019768
      vertex -13.035340831228476 -10.554960626375408 1.999999997019768
    endloop
  endfacet
  facet normal 0 0 1
    outer loop
      vertex -14 -14 1.999999997019768
      vertex -9.661810785917767 -13.829571137787326 1.999999997019768
      vertex -11.70365023668062 -12.899999998509884 1.999999997019768
    endloop
  endfacet
  facet normal 0 0 1
    outer loop
      vertex -14 -14 1.999999997019768
      vertex -8.102943727489924 -14 1.999999997019768
      vertex -9.661810785917767 -13.829571137787326 1.999999997019768
    endloop
  endfacet
  facet normal 0 0 1
    outer loop
      vertex -13.035340831228476 -10.554960626375408 1.999999997019768
      vertex -9.20294372898004 -12.899999998509884 1.999999997019768
      vertex -12.899999998509884 -9.20294372898004 1.999999997019768
    endloop
  endfacet
  facet normal 0 0 1
    outer loop
      vertex -13.035340831228476 -10.554960626375408 1.999999997019768
      vertex -11.70365023668062 -12.899999998509884 1.999999997019768
      vertex -9.20294372898004 -12.899999998509884 1.999999997019768
    endloop
  endfacet
  facet normal 0.5000000000000001 0.5000000000000001 0.7071067811865472
    outer loop
      vertex -12.5 -7.623044742274933 0.5999999985098841
      vertex -12.5 -9.037258304648027 1.599999998509884
      vertex -9.037258304648027 -12.5 1.599999998509884
    endloop
  endfacet
  facet normal 0.49999999999999944 0.49999999999999944 0.7071067811865482
    outer loop
      vertex -12.5 -9.037258304648027 1.599999998509884
      vertex -12.899999998509884 -9.20294372898004 1.999999997019768
      vertex -9.037258304648027 -12.5 1.599999998509884
    endloop
  endfacet
  facet normal 0.4999999999999995 0.4999999999999995 0.7071067811865482
    outer loop
      vertex -12.899999998509884 -9.20294372898004 1.999999997019768
      vertex -9.20294372898004 -12.899999998509884 1.999999997019768
      vertex -9.037258304648027 -12.5 1.599999998509884
    endloop
  endfacet
  facet normal 0 0 1
    outer loop
      vertex -9.661810785917767 -13.829571137787326 1.999999997019768
      vertex -8.102943727489924 -14 1.999999997019768
      vertex -8.325856507840996 -13.777087219648928 1.999999997019768
    endloop
  endfacet
  facet normal -1 0 0
    outer loop
      vertex -14 -6.123044742274933 0.5999999985098841
      vertex -14 -6.123044742274933 -2
      vertex -14 -14 -2
    endloop
  endfacet
  facet normal 0 -1 0
    outer loop
      vertex -14 -14 1.999999997019768
      vertex -14 -14 -2
      vertex -6.123044742274933 -14 -2
    endloop
  endfacet
  facet normal -1 0 0
    outer loop
      vertex -14 -14 1.999999997019768
      vertex -14 -6.123044742274933 0.5999999985098841
      vertex -14 -14 -2
    endloop
  endfacet
  facet normal 0 -1 0
    outer loop
      vertex -14 -14 1.999999997019768
      vertex -6.123044742274933 -14 -2
      vertex -8.102943727489924 -14 1.999999997019768
    endloop
  endfacet
  facet normal -1 0 0
    outer loop
      vertex -14 -14 1.999999997019768
      vertex -14 -11.854560081639454 1.999999997019768
      vertex -14 -6.123044742274933 0.5999999985098841
    endloop
  endfacet
  facet normal -1 0 0
    outer loop
      vertex -14 -11.854560081639454 1.999999997019768
      vertex -14 -8.102943727489924 1.999999997019768
      vertex -14 -6.123044742274933 0.5999999985098841
    endloop
  endfacet
  facet normal 0 -1 0
    outer loop
      vertex -8.102943727489924 -14 1.999999997019768
      vertex -6.123044742274933 -14 -2
      vertex -6.123044742274933 -14 0.5999999985098841
    endloop
  endfacet
  facet normal 0 1 0
    outer loop
      vertex -6.123044742274933 14 0.5999999985098841
      vertex -6.123044742274933 14 -2
      vertex -14 14 -2
    endloop
  endfacet
  facet normal -1 0 0
    outer loop
      vertex -14 14 1.999999997019768
      vertex -14 14 -2
      vertex -14 6.123044742274933 -2
    endloop
  endfacet
  facet normal -1 0 0
    outer loop
      vertex -14 6.123044742274933 0.5999999985098841
      vertex -14 8.102943727489924 1.999999997019768
      vertex -14 6.123044742274933 -2
    endloop
  endfacet
  facet normal -1 0 0
    outer loop
      vertex -14 8.102943727489924 1.999999997019768
      vertex -14 14 1.999999997019768
      vertex -14 6.123044742274933 -2
    endloop
  endfacet
  facet normal 0 1 0
    outer loop
      vertex -14 14 1.999999997019768
      vertex -6.123044742274933 14 0.5999999985098841
      vertex -14 14 -2
    endloop
  endfacet
  facet normal 0 1 0
    outer loop
      vertex -14 14 1.999999997019768
      vertex -8.102943727489924 14 1.999999997019768
      vertex -6.123044742274933 14 0.5999999985098841
    endloop
  endfacet
  facet normal 0 -1 0
    outer loop
      vertex 6.123044742274933 -14 0.5999999985098841
      vertex 6.123044742274933 -14 -2
      vertex 14 -14 -2
    endloop
  endfacet
  facet normal 1 0 0
    outer loop
      vertex 14 -14 1.999999997019768
      vertex 14 -14 -2
      vertex 14 -6.123044742274933 -2
    endloop
  endfacet
  facet normal 0 -1 0
    outer loop
      vertex 6.123044742274933 -14 0.5999999985098841
      vertex 14 -14 -2
      vertex 14 -14 1.999999997019768
    endloop
  endfacet
  facet normal 1 0 0
    outer loop
      vertex 14 -14 1.999999997019768
      vertex 14 -6.123044742274933 -2
      vertex 14 -8.102943727489924 1.999999997019768
    endloop
  endfacet
  facet normal 0 -1 0
    outer loop
      vertex 6.123044742274933 -14 0.5999999985098841
      vertex 14 -14 1.999999997019768
      vertex 8.102943727489924 -14 1.999999997019768
    endloop
  endfacet
  facet normal 1 0 0
    outer loop
      vertex 14 -8.102943727489924 1.999999997019768
      vertex 14 -6.123044742274933 -2
      vertex 14 -6.123044742274933 0.5999999985098841
    endloop
  endfacet
  facet normal 1 0 0
    outer loop
      vertex 14 6.123044742274933 0.5999999985098841
      vertex 14 6.123044742274933 -2
      vertex 14 14 -2
    endloop
  endfacet
  facet normal 0 1 0
    outer loop
      vertex 14 14 1.999999997019768
      vertex 14 14 -2
      vertex 6.123044742274933 14 -2
    endloop
  endfacet
  facet normal 0 1 0
    outer loop
      vertex 6.123044742274933 14 0.5999999985098841
      vertex 8.102943727489924 14 1.999999997019768
      vertex 6.123044742274933 14 -2
    endloop
  endfacet
  facet normal 0 1 0
    outer loop
      vertex 8.102943727489924 14 1.999999997019768
      vertex 14 14 1.999999997019768
      vertex 6.123044742274933 14 -2
    endloop
  endfacet
  facet normal 1 0 0
    outer loop
      vertex 14 6.123044742274933 0.5999999985098841
      vertex 14 14 -2
      vertex 14 8.102943727489924 1.999999997019768
    endloop
  endfacet
  facet normal 1 0 0
    outer loop
      vertex 14 8.102943727489924 1.999999997019768
      vertex 14 14 -2
      vertex 14 11.854560081639454 1.999999997019768
    endloop
  endfacet
  facet normal 1 0 0
    outer loop
      vertex 14 11.854560081639454 1.999999997019768
      vertex 14 14 -2
      vertex 14 14 1.999999997019768
    endloop
  endfacet
  facet normal 0 0 -1
    outer loop
      vertex -14 -14 -2
      vertex -13.200000002980232 -6.923044739294701 -2
      vertex -6.923044739294701 -13.200000002980232 -2
    endloop
  endfacet
  facet normal 0 0 -1
    outer loop
      vertex -13.200000002980232 -6.923044739294701 -2
      vertex -14 -14 -2
      vertex -14 -6.123044742274933 -2
    endloop
  endfacet
  facet normal 0 0 -1
    outer loop
      vertex -6.123044742274933 -14 -2
      vertex -14 -14 -2
      vertex -6.923044739294701 -13.200000002980232 -2
    endloop
  endfacet
  facet normal 0 0 -1
    outer loop
      vertex -13.200000002980232 -6.923044739294701 -2
      vertex -14 -6.123044742274933 -2
      vertex -13.200000002980232 6.923044739294701 -2
    endloop
  endfacet
  facet normal 0 0 -1
    outer loop
      vertex -6.123044742274933 -14 -2
      vertex -6.923044739294701 -13.200000002980232 -2
      vertex 6.123044742274933 -14 -2
    endloop
  endfacet
  facet normal 0 0 -1
    outer loop
      vertex -14 -6.123044742274933 -2
      vertex -14 6.123044742274933 -2
      vertex -13.200000002980232 6.923044739294701 -2
    endloop
  endfacet
  facet normal 0 0 -1
    outer loop
      vertex -14 6.123044742274933 -2
      vertex -14 14 -2
      vertex -13.200000002980232 6.923044739294701 -2
    endloop
  endfacet
  facet normal 0 0 -1
    outer loop
      vertex -13.200000002980232 6.923044739294701 -2
      vertex -14 14 -2
      vertex -6.923044739294701 13.200000002980232 -2
    endloop
  endfacet
  facet normal 0 0 -1
    outer loop
      vertex -14 14 -2
      vertex -6.123044742274933 14 -2
      vertex -6.923044739294701 13.200000002980232 -2
    endloop
  endfacet
  facet normal 0 0 -1
    outer loop
      vertex -6.923044739294701 13.200000002980232 -2
      vertex -6.123044742274933 14 -2
      vertex 6.923044739294701 13.200000002980232 -2
    endloop
  endfacet
  facet normal 0 0 -1
    outer loop
      vertex -6.923044739294701 -13.200000002980232 -2
      vertex 6.923044739294701 -13.200000002980232 -2
      vertex 6.123044742274933 -14 -2
    endloop
  endfacet
  facet normal 0 0 -1
    outer loop
      vertex 6.923044739294701 -13.200000002980232 -2
      vertex 14 -14 -2
      vertex 6.123044742274933 -14 -2
    endloop
  endfacet
  facet normal 0 0 -1
    outer loop
      vertex 14 -14 -2
      vertex 6.923044739294701 -13.200000002980232 -2
      vertex 13.200000002980232 -6.923044739294701 -2
    endloop
  endfacet
  facet normal 0 0 -1
    outer loop
      vertex 14 -14 -2
      vertex 13.200000002980232 -6.923044739294701 -2
      vertex 14 -6.123044742274933 -2
    endloop
  endfacet
  facet normal 0 0 -1
    outer loop
      vertex 13.200000002980232 -6.923044739294701 -2
      vertex 14 6.123044742274933 -2
      vertex 14 -6.123044742274933 -2
    endloop
  endfacet
  facet normal 0 0 -1
    outer loop
      vertex -6.123044742274933 14 -2
      vertex 6.123044742274933 14 -2
      vertex 6.923044739294701 13.200000002980232 -2
    endloop
  endfacet
  facet normal 0 0 -1
    outer loop
      vertex 13.200000002980232 -6.923044739294701 -2
      vertex 13.200000002980232 6.923044739294701 -2
      vertex 14 6.123044742274933 -2
    endloop
  endfacet
  facet normal 0 0 -1
    outer loop
      vertex 6.123044742274933 14 -2
      vertex 14 14 -2
      vertex 6.923044739294701 13.200000002980232 -2
    endloop
  endfacet
  facet normal 0 0 -1
    outer loop
      vertex 14 6.123044742274933 -2
      vertex 13.200000002980232 6.923044739294701 -2
      vertex 14 14 -2
    endloop
  endfacet
  facet normal 0 0 -1
    outer loop
      vertex 14 14 -2
      vertex 13.200000002980232 6.923044739294701 -2
      vertex 6.923044739294701 13.200000002980232 -2
    endloop
  endfacet
endsolid OpenSCAD_Model
