solid OpenSCAD_Model
  facet normal 1 0 0
    outer loop
      vertex 4.299999997019768 -0.5 0
      vertex 4.299999997019768 0.5 1.6000000014901161
      vertex 4.299999997019768 -0.5 1.6000000014901161
    endloop
  endfacet
  facet normal 0.8153829842761532 0 -0.5789219195650779
    outer loop
      vertex 5 0.5 2.585915497403856
      vertex 5 -0.5 2.585915497403856
      vertex 4.299999997019768 -0.5 1.6000000014901161
    endloop
  endfacet
  facet normal 1 0 0
    outer loop
      vertex 4.299999997019768 0.5 0
      vertex 4.299999997019768 0.5 1.6000000014901161
      vertex 4.299999997019768 -0.5 0
    endloop
  endfacet
  facet normal 0.8153829842761532 0 -0.5789219195650779
    outer loop
      vertex 5 0.5 2.585915497403856
      vertex 4.299999997019768 -0.5 1.6000000014901161
      vertex 4.299999997019768 0.5 1.6000000014901161
    endloop
  endfacet
  facet normal -1 0 0
    outer loop
      vertex -4.299999997019768 0.5 0
      vertex -4.299999997019768 -0.5 0
      vertex -4.299999997019768 -0.5 1.6000000014901161
    endloop
  endfacet
  facet normal -0.8153829842761532 0 -0.5789219195650779
    outer loop
      vertex -4.299999997019768 0.5 1.6000000014901161
      vertex -4.299999997019768 -0.5 1.6000000014901161
      vertex -5 -0.5 2.585915497403856
    endloop
  endfacet
  facet normal -1 0 0
    outer loop
      vertex -4.299999997019768 0.5 0
      vertex -4.299999997019768 -0.5 1.6000000014901161
      vertex -4.299999997019768 0.5 1.6000000014901161
    endloop
  endfacet
  facet normal -0.8153829842761532 0 -0.5789219195650779
    outer loop
      vertex -4.299999997019768 0.5 1.6000000014901161
      vertex -5 -0.5 2.585915497403856
      vertex -5 0.5 2.585915497403856
    endloop
  endfacet
  facet normal -0.7071067811865471 0 -0.7071067811865479
    outer loop
      vertex 5 0.5 3.61
      vertex 5 -0.5 3.61
      vertex 4.609999999999999 -0.5 4
    endloop
  endfacet
  facet normal -0.7071067811865471 0 -0.7071067811865479
    outer loop
      vertex 5 0.5 3.61
      vertex 4.609999999999999 -0.5 4
      vertex 4.609999999999999 0.5 4
    endloop
  endfacet
  facet normal 0.7071067811865471 0 -0.7071067811865479
    outer loop
      vertex -4.609999999999999 0.5 4
      vertex -4.609999999999999 -0.5 4
      vertex -5 -0.5 3.61
    endloop
  endfacet
  facet normal 0.7071067811865471 0 -0.7071067811865479
    outer loop
      vertex -4.609999999999999 0.5 4
      vertex -5 -0.5 3.61
      vertex -5 0.5 3.61
    endloop
  endfacet
  facet normal -1 0 0
    outer loop
      vertex -5 0.5 2.585915497403856
      vertex -5 -0.5 2.585915497403856
      vertex -5 -0.5 4
    endloop
  endfacet
  facet normal -1 0 0
    outer loop
      vertex -5 -0.5 4
      vertex -5 0.5 3.61
      vertex -5 -0.5 3.61
    endloop
  endfacet
  facet normal 0 0 1
    outer loop
      vertex -5 0.5 4
      vertex -5 -0.5 4
      vertex -4.609999999999999 -0.5 4
    endloop
  endfacet
  facet normal 0 0 1
    outer loop
      vertex -5 -0.5 4
      vertex 0.09999999999999964 -0.5 4
      vertex -5 0.5 4
    endloop
  endfacet
  facet normal 0 0 -1
    outer loop
      vertex 4.299999997019768 0.5 0
      vertex -4.299999997019768 -0.5 0
      vertex -4.299999997019768 0.5 0
    endloop
  endfacet
  facet normal -1 0 0
    outer loop
      vertex -5 0.5 4
      vertex -5 0.5 2.585915497403856
      vertex -5 -0.5 4
    endloop
  endfacet
  facet normal -1 0 0
    outer loop
      vertex -5 0.5 4
      vertex -5 0.5 3.61
      vertex -5 -0.5 4
    endloop
  endfacet
  facet normal 0 0 1
    outer loop
      vertex -4.609999999999999 0.5 4
      vertex -5 0.5 4
      vertex -4.609999999999999 -0.5 4
    endloop
  endfacet
  facet normal 0 0 -1
    outer loop
      vertex 4.299999997019768 0.5 0
      vertex 4.299999997019768 -0.5 0
      vertex -4.299999997019768 -0.5 0
    endloop
  endfacet
  facet normal 0 0 1
    outer loop
      vertex 0.09999999999999964 -0.5 4
      vertex 5 -0.5 4
      vertex 5 0.5 4
    endloop
  endfacet
  facet normal 1 0 0
    outer loop
      vertex 5 0.5 4
      vertex 5 -0.5 4
      vertex 5 -0.5 2.585915497403856
    endloop
  endfacet
  facet normal 1 0 0
    outer loop
      vertex 5 0.5 4
      vertex 5 -0.5 4
      vertex 5 -0.5 3.61
    endloop
  endfacet
  facet normal 0 0 1
    outer loop
      vertex 4.609999999999999 0.5 4
      vertex 4.609999999999999 -0.5 4
      vertex 5 -0.5 4
    endloop
  endfacet
  facet normal 0 0 1
    outer loop
      vertex -5 0.5 4
      vertex 0.09999999999999964 -0.5 4
      vertex 5 0.5 4
    endloop
  endfacet
  facet normal 1 0 0
    outer loop
      vertex 5 0.5 2.585915497403856
      vertex 5 0.5 4
      vertex 5 -0.5 2.585915497403856
    endloop
  endfacet
  facet normal 1 0 0
    outer loop
      vertex 5 0.5 3.61
      vertex 5 0.5 4
      vertex 5 -0.5 3.61
    endloop
  endfacet
  facet normal 0 0 1
    outer loop
      vertex 5 0.5 4
      vertex 4.609999999999999 0.5 4
      vertex 5 -0.5 4
    endloop
  endfacet
  facet normal 0 -1 0
    outer loop
      vertex -4.299999997019768 -0.5 1.6000000014901161
      vertex -4.299999997019768 -0.5 0
      vertex 0.09999999999999964 -0.5 4
    endloop
  endfacet
  facet normal 0 -1 0
    outer loop
      vertex -5 -0.5 2.585915497403856
      vertex -4.299999997019768 -0.5 1.6000000014901161
      vertex 0.09999999999999964 -0.5 4
    endloop
  endfacet
  facet normal 0 -1 0
    outer loop
      vertex -5 -0.5 4
      vertex -5 -0.5 3.61
      vertex -4.609999999999999 -0.5 4
    endloop
  endfacet
  facet normal 0 -1 0
    outer loop
      vertex -5 -0.5 2.585915497403856
      vertex 0.09999999999999964 -0.5 4
      vertex -5 -0.5 4
    endloop
  endfacet
  facet normal 0 1 0
    outer loop
      vertex -4.299999997019768 0.5 0
      vertex -4.299999997019768 0.5 1.6000000014901161
      vertex 4.299999997019768 0.5 0
    endloop
  endfacet
  facet normal 0 1 0
    outer loop
      vertex 4.299999997019768 0.5 0
      vertex -4.299999997019768 0.5 1.6000000014901161
      vertex -5 0.5 4
    endloop
  endfacet
  facet normal 0 1 0
    outer loop
      vertex -4.299999997019768 0.5 1.6000000014901161
      vertex -5 0.5 2.585915497403856
      vertex -5 0.5 4
    endloop
  endfacet
  facet normal 0 1 0
    outer loop
      vertex -5 0.5 4
      vertex -4.609999999999999 0.5 4
      vertex -5 0.5 3.61
    endloop
  endfacet
  facet normal 0 -1 0
    outer loop
      vertex -4.299999997019768 -0.5 0
      vertex 4.299999997019768 -0.5 0
      vertex 0.09999999999999964 -0.5 4
    endloop
  endfacet
  facet normal 0 -1 0
    outer loop
      vertex 4.299999997019768 -0.5 0
      vertex 4.299999997019768 -0.5 1.6000000014901161
      vertex 0.09999999999999964 -0.5 4
    endloop
  endfacet
  facet normal 0 -1 0
    outer loop
      vertex 4.299999997019768 -0.5 1.6000000014901161
      vertex 5 -0.5 2.585915497403856
      vertex 0.09999999999999964 -0.5 4
    endloop
  endfacet
  facet normal 0 -1 0
    outer loop
      vertex 0.09999999999999964 -0.5 4
      vertex 5 -0.5 2.585915497403856
      vertex 5 -0.5 4
    endloop
  endfacet
  facet normal 0 -1 0
    outer loop
      vertex 4.609999999999999 -0.5 4
      vertex 5 -0.5 3.61
      vertex 5 -0.5 4
    endloop
  endfacet
  facet normal 0 1 0
    outer loop
      vertex 4.299999997019768 0.5 0
      vertex -5 0.5 4
      vertex 4.299999997019768 0.5 1.6000000014901161
    endloop
  endfacet
  facet normal 0 1 0
    outer loop
      vertex 5 0.5 2.585915497403856
      vertex 4.299999997019768 0.5 1.6000000014901161
      vertex -5 0.5 4
    endloop
  endfacet
  facet normal 0 1 0
    outer loop
      vertex 5 0.5 2.585915497403856
      vertex -5 0.5 4
      vertex 5 0.5 4
    endloop
  endfacet
  facet normal 0 1 0
    outer loop
      vertex 5 0.5 3.61
      vertex 4.609999999999999 0.5 4
      vertex 5 0.5 4
    endloop
  endfacet
endsolid OpenSCAD_Model
