solid OpenSCAD_Model
  facet normal 0 -1 0
    outer loop
      vertex -4.299999997019768 -5 7.3
      vertex -4.299999997019768 -5 6.3
      vertex 4.299999997019768 -5 6.3
    endloop
  endfacet
  facet normal -1 0 0
    outer loop
      vertex -4.299999997019768 5 7.3
      vertex -4.299999997019768 -5 6.3
      vertex -4.299999997019768 -5 7.3
    endloop
  endfacet
  facet normal -1 0 0
    outer loop
      vertex -4.299999997019768 -5 6.3
      vertex -4.299999997019768 5 7.3
      vertex -4.299999997019768 5 6.3
    endloop
  endfacet
  facet normal 0 1 0
    outer loop
      vertex -4.299999997019768 5 7.3
      vertex 4.299999997019768 5 7.3
      vertex -4.299999997019768 5 6.3
    endloop
  endfacet
  facet normal 1 0 0
    outer loop
      vertex 4.299999997019768 -5 6.3
      vertex 4.299999997019768 5 6.3
      vertex 4.299999997019768 -5 7.3
    endloop
  endfacet
  facet normal 0 -1 0
    outer loop
      vertex -4.299999997019768 -5 7.3
      vertex 4.299999997019768 -5 6.3
      vertex 4.299999997019768 -5 7.3
    endloop
  endfacet
  facet normal 0 1 0
    outer loop
      vertex -4.299999997019768 5 6.3
      vertex 4.299999997019768 5 7.3
      vertex 4.299999997019768 5 6.3
    endloop
  endfacet
  facet normal 1 0 0
    outer loop
      vertex 4.299999997019768 -5 7.3
      vertex 4.299999997019768 5 6.3
      vertex 4.299999997019768 5 7.3
    endloop
  endfacet
  facet normal 0 0 1
    outer loop
      vertex -4.299999997019768 -5 7.3
      vertex 4.299999997019768 -5 7.3
      vertex -4.299999997019768 5 7.3
    endloop
  endfacet
  facet normal 0 0 -1
    outer loop
      vertex -4.299999997019768 -5 6.3
      vertex -4.299999997019768 5 6.3
      vertex 4.299999997019768 5 6.3
    endloop
  endfacet
  facet normal 0 0 -1
    outer loop
      vertex 4.299999997019768 -5 6.3
      vertex -4.299999997019768 -5 6.3
      vertex 4.299999997019768 5 6.3
    endloop
  endfacet
  facet normal 0 0 1
    outer loop
      vertex 4.299999997019768 -5 7.3
      vertex 4.299999997019768 5 7.3
      vertex -4.299999997019768 5 7.3
    endloop
  endfacet
endsolid OpenSCAD_Model
