solid OpenSCAD_Model
  facet normal -1 0 0
    outer loop
      vertex 5.1 0.5 0
      vertex 5.1 -0.5 0
      vertex 5.1 -0.5 0.19
    endloop
  endfacet
  facet normal -1 0 0
    outer loop
      vertex 5.1 -0.5 0.2
      vertex 5.1 -0.5 0.21499999999999983
      vertex 5.1 0.5 0.2
    endloop
  endfacet
  facet normal 0 0 -1
    outer loop
      vertex 5.800000002980232 0.5 0
      vertex 5.800000002980232 -0.5 0
      vertex 5.1 -0.5 0
    endloop
  endfacet
  facet normal 0 0 -1
    outer loop
      vertex 7.1 0.5 0
      vertex 7.1 -0.5 0
      vertex 6.399999997019767 -0.5 0
    endloop
  endfacet
  facet normal -1 0 0
    outer loop
      vertex 5.1 0.5 1.9850000000000003
      vertex 5.1 -0.5 1.9850000000000003
      vertex 5.1 -0.5 2.2
    endloop
  endfacet
  facet normal 1 0 0
    outer loop
      vertex 7.1 0.5 3.4
      vertex 7.1 -0.5 3.4
      vertex 7.1 -0.5 0
    endloop
  endfacet
  facet normal -1 0 0
    outer loop
      vertex 5.1 -0.5 3.4
      vertex 5.1 0.5 2.6000000000000005
      vertex 5.1 -0.5 2.6000000000000005
    endloop
  endfacet
  facet normal -1 0 0
    outer loop
      vertex 5.1 0.5 0
      vertex 5.1 -0.5 0.19
      vertex 5.1 0.5 0.19
    endloop
  endfacet
  facet normal -1 0 0
    outer loop
      vertex 5.1 0.5 0.2
      vertex 5.1 -0.5 0.21499999999999983
      vertex 5.1 0.5 0.21499999999999983
    endloop
  endfacet
  facet normal 0 0 -1
    outer loop
      vertex 5.1 0.5 0
      vertex 5.800000002980232 0.5 0
      vertex 5.1 -0.5 0
    endloop
  endfacet
  facet normal 0 0 -1
    outer loop
      vertex 7.1 0.5 0
      vertex 6.399999997019767 -0.5 0
      vertex 6.399999997019767 0.5 0
    endloop
  endfacet
  facet normal 1 0 0
    outer loop
      vertex 7.1 0.5 3.4
      vertex 7.1 -0.5 0
      vertex 7.1 0.5 0
    endloop
  endfacet
  facet normal -1 0 0
    outer loop
      vertex 5.1 0.5 2.2
      vertex 5.1 0.5 1.9850000000000003
      vertex 5.1 -0.5 2.2
    endloop
  endfacet
  facet normal -1 0 0
    outer loop
      vertex 5.1 0.5 3.4
      vertex 5.1 0.5 2.6000000000000005
      vertex 5.1 -0.5 3.4
    endloop
  endfacet
  facet normal 0 0 -1
    outer loop
      vertex -6.399999997019767 0.5 0
      vertex -6.399999997019767 -0.5 0
      vertex -7.1 -0.5 0
    endloop
  endfacet
  facet normal 0 0 -1
    outer loop
      vertex -5.1 0.5 0
      vertex -5.1 -0.5 0
      vertex -5.800000002980232 -0.5 0
    endloop
  endfacet
  facet normal -1 0 0
    outer loop
      vertex -7.1 0.5 0
      vertex -7.1 -0.5 0
      vertex -7.1 -0.5 3.4
    endloop
  endfacet
  facet normal 1 0 0
    outer loop
      vertex -5.1 0.5 0.19
      vertex -5.1 -0.5 0.19
      vertex -5.1 -0.5 0
    endloop
  endfacet
  facet normal 1 0 0
    outer loop
      vertex -5.1 0.5 0.21499999999999983
      vertex -5.1 -0.5 0.21499999999999983
      vertex -5.1 -0.5 0.2
    endloop
  endfacet
  facet normal 1 0 0
    outer loop
      vertex -5.1 0.5 2.2
      vertex -5.1 -0.5 2.2
      vertex -5.1 -0.5 1.9850000000000003
    endloop
  endfacet
  facet normal 1 0 0
    outer loop
      vertex -5.1 0.5 3.4
      vertex -5.1 -0.5 3.4
      vertex -5.1 -0.5 2.6000000000000005
    endloop
  endfacet
  facet normal 0 0 -1
    outer loop
      vertex -6.399999997019767 0.5 0
      vertex -7.1 -0.5 0
      vertex -7.1 0.5 0
    endloop
  endfacet
  facet normal 0 0 -1
    outer loop
      vertex -5.800000002980232 0.5 0
      vertex -5.1 0.5 0
      vertex -5.800000002980232 -0.5 0
    endloop
  endfacet
  facet normal 1 0 0
    outer loop
      vertex -5.1 0.5 0
      vertex -5.1 0.5 0.19
      vertex -5.1 -0.5 0
    endloop
  endfacet
  facet normal 1 0 0
    outer loop
      vertex -5.1 0.5 0.21499999999999983
      vertex -5.1 -0.5 0.2
      vertex -5.1 0.5 0.2
    endloop
  endfacet
  facet normal -1 0 0
    outer loop
      vertex -7.1 0.5 0
      vertex -7.1 -0.5 3.4
      vertex -7.1 0.5 3.4
    endloop
  endfacet
  facet normal 1 0 0
    outer loop
      vertex -5.1 0.5 1.9850000000000003
      vertex -5.1 0.5 2.2
      vertex -5.1 -0.5 1.9850000000000003
    endloop
  endfacet
  facet normal 1 0 0
    outer loop
      vertex -5.1 0.5 2.6000000000000005
      vertex -5.1 0.5 3.4
      vertex -5.1 -0.5 2.6000000000000005
    endloop
  endfacet
  facet normal -1 0 0
    outer loop
      vertex -7.1 0.5 3.4
      vertex -7.1 -0.5 3.4
      vertex -7.1 -0.5 4.6
    endloop
  endfacet
  facet normal 0 0 1
    outer loop
      vertex -7.1 0.5 4.6
      vertex -7.1 -0.5 4.6
      vertex 7.1 -0.5 4.6
    endloop
  endfacet
  facet normal -1 0 0
    outer loop
      vertex -7.1 0.5 3.4
      vertex -7.1 -0.5 4.6
      vertex -7.1 0.5 4.6
    endloop
  endfacet
  facet normal 0 0 -1
    outer loop
      vertex -5.1 0.5 3.4
      vertex 5.1 0.5 3.4
      vertex -5.1 -0.5 3.4
    endloop
  endfacet
  facet normal 0 0 -1
    outer loop
      vertex -5.1 -0.5 3.4
      vertex 5.1 0.5 3.4
      vertex 5.1 -0.5 3.4
    endloop
  endfacet
  facet normal 1 0 0
    outer loop
      vertex 7.1 -0.5 3.4
      vertex 7.1 0.5 4.6
      vertex 7.1 -0.5 4.6
    endloop
  endfacet
  facet normal 0 0 1
    outer loop
      vertex -7.1 0.5 4.6
      vertex 7.1 -0.5 4.6
      vertex 7.1 0.5 4.6
    endloop
  endfacet
  facet normal 1 0 0
    outer loop
      vertex 7.1 0.5 3.4
      vertex 7.1 0.5 4.6
      vertex 7.1 -0.5 3.4
    endloop
  endfacet
  facet normal 0 0 -1
    outer loop
      vertex -4.709999999999999 0.5 0.19
      vertex -4.709999999999999 -0.5 0.19
      vertex -5.1 -0.5 0.19
    endloop
  endfacet
  facet normal 1 0 0
    outer loop
      vertex -4.709999999999999 0.5 0.2
      vertex -4.709999999999999 -0.5 0.2
      vertex -4.709999999999999 -0.5 0.19
    endloop
  endfacet
  facet normal 1 0 0
    outer loop
      vertex -4.709999999999999 0.5 1.4
      vertex -4.709999999999999 -0.5 1.4
      vertex -4.709999999999999 -0.5 0.8
    endloop
  endfacet
  facet normal 0 0 -1
    outer loop
      vertex -4.709999999999999 0.5 0.19
      vertex -5.1 -0.5 0.19
      vertex -5.1 0.5 0.19
    endloop
  endfacet
  facet normal 1 0 0
    outer loop
      vertex -4.709999999999999 0.5 0.2
      vertex -4.709999999999999 -0.5 0.19
      vertex -4.709999999999999 0.5 0.19
    endloop
  endfacet
  facet normal 1 0 0
    outer loop
      vertex -4.709999999999999 0.5 1.4
      vertex -4.709999999999999 -0.5 0.8
      vertex -4.709999999999999 0.5 0.8
    endloop
  endfacet
  facet normal -1 0 0
    outer loop
      vertex 4.709999999999999 0.5 0.19
      vertex 4.709999999999999 -0.5 0.19
      vertex 4.709999999999999 -0.5 0.2
    endloop
  endfacet
  facet normal 0 0 -1
    outer loop
      vertex 4.709999999999999 -0.5 0.19
      vertex 5.1 0.5 0.19
      vertex 5.1 -0.5 0.19
    endloop
  endfacet
  facet normal -1 0 0
    outer loop
      vertex 4.709999999999999 0.5 0.8
      vertex 4.709999999999999 -0.5 0.8
      vertex 4.709999999999999 -0.5 1.4
    endloop
  endfacet
  facet normal -1 0 0
    outer loop
      vertex 4.709999999999999 0.5 0.2
      vertex 4.709999999999999 0.5 0.19
      vertex 4.709999999999999 -0.5 0.2
    endloop
  endfacet
  facet normal 0 0 -1
    outer loop
      vertex 4.709999999999999 0.5 0.19
      vertex 5.1 0.5 0.19
      vertex 4.709999999999999 -0.5 0.19
    endloop
  endfacet
  facet normal -1 0 0
    outer loop
      vertex 4.709999999999999 0.5 1.4
      vertex 4.709999999999999 0.5 0.8
      vertex 4.709999999999999 -0.5 1.4
    endloop
  endfacet
  facet normal 0.8320502943378435 0 0.5547001962252294
    outer loop
      vertex -5.1 0.5 1.9850000000000003
      vertex -5.1 -0.5 1.9850000000000003
      vertex -4.709999999999999 -0.5 1.4
    endloop
  endfacet
  facet normal 0.8320502943378435 0 0.5547001962252294
    outer loop
      vertex -4.709999999999999 0.5 1.4
      vertex -5.1 0.5 1.9850000000000003
      vertex -4.709999999999999 -0.5 1.4
    endloop
  endfacet
  facet normal -0.8320502943378435 0 0.5547001962252294
    outer loop
      vertex 4.709999999999999 -0.5 1.4
      vertex 5.1 -0.5 1.9850000000000003
      vertex 4.709999999999999 0.5 1.4
    endloop
  endfacet
  facet normal -0.8320502943378435 0 0.5547001962252294
    outer loop
      vertex 4.709999999999999 0.5 1.4
      vertex 5.1 -0.5 1.9850000000000003
      vertex 5.1 0.5 1.9850000000000003
    endloop
  endfacet
  facet normal 0 0 1
    outer loop
      vertex -4.709999999999999 -0.5 0.2
      vertex -5.1 0.5 0.2
      vertex -5.1 -0.5 0.2
    endloop
  endfacet
  facet normal 0.8320502943378434 0 -0.5547001962252296
    outer loop
      vertex -5.1 -0.5 0.21499999999999983
      vertex -4.709999999999999 0.5 0.8
      vertex -4.709999999999999 -0.5 0.8
    endloop
  endfacet
  facet normal 0 0 1
    outer loop
      vertex -5.1 0.5 0.2
      vertex -4.709999999999999 -0.5 0.2
      vertex -4.709999999999999 0.5 0.2
    endloop
  endfacet
  facet normal 0.8320502943378434 0 -0.5547001962252296
    outer loop
      vertex -5.1 0.5 0.21499999999999983
      vertex -4.709999999999999 0.5 0.8
      vertex -5.1 -0.5 0.21499999999999983
    endloop
  endfacet
  facet normal 0 0 1
    outer loop
      vertex 4.709999999999999 0.5 0.2
      vertex 4.709999999999999 -0.5 0.2
      vertex 5.1 -0.5 0.2
    endloop
  endfacet
  facet normal -0.8320502943378434 0 -0.5547001962252296
    outer loop
      vertex 5.1 0.5 0.21499999999999983
      vertex 5.1 -0.5 0.21499999999999983
      vertex 4.709999999999999 -0.5 0.8
    endloop
  endfacet
  facet normal 0 0 1
    outer loop
      vertex 5.1 0.5 0.2
      vertex 4.709999999999999 0.5 0.2
      vertex 5.1 -0.5 0.2
    endloop
  endfacet
  facet normal -0.8320502943378434 0 -0.5547001962252296
    outer loop
      vertex 5.1 0.5 0.21499999999999983
      vertex 4.709999999999999 -0.5 0.8
      vertex 4.709999999999999 0.5 0.8
    endloop
  endfacet
  facet normal -1 0 0
    outer loop
      vertex -5.800000002980232 0.5 0
      vertex -5.800000002980232 -0.5 0
      vertex -5.800000002980232 -0.5 1.5
    endloop
  endfacet
  facet normal 1 0 0
    outer loop
      vertex -6.399999997019767 0.5 1.5
      vertex -6.399999997019767 -0.5 1.5
      vertex -6.399999997019767 -0.5 0
    endloop
  endfacet
  facet normal 0 0 -1
    outer loop
      vertex -5.800000002980232 -0.5 1.5
      vertex -6.399999997019767 -0.5 1.5
      vertex -5.800000002980232 0.5 1.5
    endloop
  endfacet
  facet normal 1 0 0
    outer loop
      vertex -6.399999997019767 0.5 0
      vertex -6.399999997019767 0.5 1.5
      vertex -6.399999997019767 -0.5 0
    endloop
  endfacet
  facet normal -1 0 0
    outer loop
      vertex -5.800000002980232 0.5 1.5
      vertex -5.800000002980232 0.5 0
      vertex -5.800000002980232 -0.5 1.5
    endloop
  endfacet
  facet normal 0 0 -1
    outer loop
      vertex -6.399999997019767 0.5 1.5
      vertex -5.800000002980232 0.5 1.5
      vertex -6.399999997019767 -0.5 1.5
    endloop
  endfacet
  facet normal -1 0 0
    outer loop
      vertex 6.399999997019767 0.5 0
      vertex 6.399999997019767 -0.5 0
      vertex 6.399999997019767 -0.5 1.5
    endloop
  endfacet
  facet normal 1 0 0
    outer loop
      vertex 5.800000002980232 0.5 1.5
      vertex 5.800000002980232 -0.5 1.5
      vertex 5.800000002980232 -0.5 0
    endloop
  endfacet
  facet normal 0 0 -1
    outer loop
      vertex 6.399999997019767 0.5 1.5
      vertex 6.399999997019767 -0.5 1.5
      vertex 5.800000002980232 -0.5 1.5
    endloop
  endfacet
  facet normal 1 0 0
    outer loop
      vertex 5.800000002980232 0.5 1.5
      vertex 5.800000002980232 -0.5 0
      vertex 5.800000002980232 0.5 0
    endloop
  endfacet
  facet normal -1 0 0
    outer loop
      vertex 6.399999997019767 0.5 0
      vertex 6.399999997019767 -0.5 1.5
      vertex 6.399999997019767 0.5 1.5
    endloop
  endfacet
  facet normal 0 0 -1
    outer loop
      vertex 5.800000002980232 0.5 1.5
      vertex 6.399999997019767 0.5 1.5
      vertex 5.800000002980232 -0.5 1.5
    endloop
  endfacet
  facet normal 0 0 1
    outer loop
      vertex -5.8 0.5 2.2
      vertex -5.8 -0.5 2.2
      vertex -5.1 -0.5 2.2
    endloop
  endfacet
  facet normal 1 0 0
    outer loop
      vertex -5.8 -0.5 2.2
      vertex -5.8 0.5 2.6000000000000005
      vertex -5.8 -0.5 2.6000000000000005
    endloop
  endfacet
  facet normal 0 0 -1
    outer loop
      vertex -5.1 0.5 2.6000000000000005
      vertex -5.1 -0.5 2.6000000000000005
      vertex -5.8 -0.5 2.6000000000000005
    endloop
  endfacet
  facet normal 0 0 1
    outer loop
      vertex -5.8 0.5 2.2
      vertex -5.1 -0.5 2.2
      vertex -5.1 0.5 2.2
    endloop
  endfacet
  facet normal 1 0 0
    outer loop
      vertex -5.8 0.5 2.2
      vertex -5.8 0.5 2.6000000000000005
      vertex -5.8 -0.5 2.2
    endloop
  endfacet
  facet normal 0 0 -1
    outer loop
      vertex -5.1 0.5 2.6000000000000005
      vertex -5.8 -0.5 2.6000000000000005
      vertex -5.8 0.5 2.6000000000000005
    endloop
  endfacet
  facet normal 0 0 1
    outer loop
      vertex 5.1 -0.5 2.2
      vertex 5.8 -0.5 2.2
      vertex 5.1 0.5 2.2
    endloop
  endfacet
  facet normal -1 0 0
    outer loop
      vertex 5.8 0.5 2.2
      vertex 5.8 -0.5 2.2
      vertex 5.8 -0.5 2.6000000000000005
    endloop
  endfacet
  facet normal 0 0 -1
    outer loop
      vertex 5.8 0.5 2.6000000000000005
      vertex 5.8 -0.5 2.6000000000000005
      vertex 5.1 -0.5 2.6000000000000005
    endloop
  endfacet
  facet normal 0 0 1
    outer loop
      vertex 5.1 0.5 2.2
      vertex 5.8 -0.5 2.2
      vertex 5.8 0.5 2.2
    endloop
  endfacet
  facet normal -1 0 0
    outer loop
      vertex 5.8 0.5 2.2
      vertex 5.8 -0.5 2.6000000000000005
      vertex 5.8 0.5 2.6000000000000005
    endloop
  endfacet
  facet normal 0 0 -1
    outer loop
      vertex 5.8 0.5 2.6000000000000005
      vertex 5.1 -0.5 2.6000000000000005
      vertex 5.1 0.5 2.6000000000000005
    endloop
  endfacet
  facet normal 0 -1 0
    outer loop
      vertex -5.800000002980232 -0.5 0
      vertex -5.1 -0.5 0
      vertex -5.800000002980232 -0.5 1.5
    endloop
  endfacet
  facet normal 0 -1 0
    outer loop
      vertex -5.1 -0.5 0.19
      vertex -5.800000002980232 -0.5 1.5
      vertex -5.1 -0.5 0
    endloop
  endfacet
  facet normal 0 -1 0
    outer loop
      vertex -7.1 -0.5 3.4
      vertex -7.1 -0.5 0
      vertex -6.399999997019767 -0.5 0
    endloop
  endfacet
  facet normal 0 -1 0
    outer loop
      vertex -5.800000002980232 -0.5 1.5
      vertex -5.1 -0.5 0.19
      vertex -5.1 -0.5 0.2
    endloop
  endfacet
  facet normal 0 -1 0
    outer loop
      vertex -5.800000002980232 -0.5 1.5
      vertex -5.1 -0.5 0.2
      vertex -5.1 -0.5 0.21499999999999983
    endloop
  endfacet
  facet normal 0 -1 0
    outer loop
      vertex -5.1 -0.5 0.19
      vertex -4.709999999999999 -0.5 0.2
      vertex -5.1 -0.5 0.2
    endloop
  endfacet
  facet normal 0 -1 0
    outer loop
      vertex -5.1 -0.5 0.19
      vertex -4.709999999999999 -0.5 0.19
      vertex -4.709999999999999 -0.5 0.2
    endloop
  endfacet
  facet normal 0 -1 0
    outer loop
      vertex -5.800000002980232 -0.5 1.5
      vertex -5.1 -0.5 0.21499999999999983
      vertex -4.709999999999999 -0.5 0.8
    endloop
  endfacet
  facet normal 0 -1 0
    outer loop
      vertex -7.1 -0.5 3.4
      vertex -6.399999997019767 -0.5 0
      vertex -6.399999997019767 -0.5 1.5
    endloop
  endfacet
  facet normal 0 -1 0
    outer loop
      vertex -5.800000002980232 -0.5 1.5
      vertex -7.1 -0.5 3.4
      vertex -6.399999997019767 -0.5 1.5
    endloop
  endfacet
  facet normal 0 -1 0
    outer loop
      vertex -5.800000002980232 -0.5 1.5
      vertex -5.1 -0.5 2.2
      vertex -5.8 -0.5 2.2
    endloop
  endfacet
  facet normal 0 -1 0
    outer loop
      vertex -5.800000002980232 -0.5 1.5
      vertex -5.1 -0.5 1.9850000000000003
      vertex -5.1 -0.5 2.2
    endloop
  endfacet
  facet normal 0 -1 0
    outer loop
      vertex -5.800000002980232 -0.5 1.5
      vertex -4.709999999999999 -0.5 0.8
      vertex -4.709999999999999 -0.5 1.4
    endloop
  endfacet
  facet normal 0 -1 0
    outer loop
      vertex -5.800000002980232 -0.5 1.5
      vertex -4.709999999999999 -0.5 1.4
      vertex -5.1 -0.5 1.9850000000000003
    endloop
  endfacet
  facet normal 0 -1 0
    outer loop
      vertex -5.800000002980232 -0.5 1.5
      vertex -5.8 -0.5 2.2
      vertex -7.1 -0.5 3.4
    endloop
  endfacet
  facet normal 0 -1 0
    outer loop
      vertex -7.1 -0.5 3.4
      vertex -5.8 -0.5 2.2
      vertex -5.8 -0.5 2.6000000000000005
    endloop
  endfacet
  facet normal 0 -1 0
    outer loop
      vertex -5.8 -0.5 2.6000000000000005
      vertex -5.1 -0.5 2.6000000000000005
      vertex -5.1 -0.5 3.4
    endloop
  endfacet
  facet normal 0 -1 0
    outer loop
      vertex -7.1 -0.5 4.6
      vertex -7.1 -0.5 3.4
      vertex -5.8 -0.5 2.6000000000000005
    endloop
  endfacet
  facet normal 0 -1 0
    outer loop
      vertex -7.1 -0.5 4.6
      vertex -5.8 -0.5 2.6000000000000005
      vertex -5.1 -0.5 3.4
    endloop
  endfacet
  facet normal 0 -1 0
    outer loop
      vertex -7.1 -0.5 4.6
      vertex -5.1 -0.5 3.4
      vertex 7.1 -0.5 4.6
    endloop
  endfacet
  facet normal 0 1 0
    outer loop
      vertex -6.399999997019767 0.5 0
      vertex -7.1 0.5 0
      vertex -6.399999997019767 0.5 1.5
    endloop
  endfacet
  facet normal 0 1 0
    outer loop
      vertex -5.1 0.5 0.19
      vertex -5.1 0.5 0
      vertex -5.800000002980232 0.5 0
    endloop
  endfacet
  facet normal 0 1 0
    outer loop
      vertex -5.800000002980232 0.5 0
      vertex -5.1 0.5 0.2
      vertex -5.1 0.5 0.19
    endloop
  endfacet
  facet normal 0 1 0
    outer loop
      vertex -5.1 0.5 0.21499999999999983
      vertex -5.1 0.5 0.2
      vertex -5.800000002980232 0.5 0
    endloop
  endfacet
  facet normal 0 1 0
    outer loop
      vertex -4.709999999999999 0.5 0.19
      vertex -5.1 0.5 0.19
      vertex -5.1 0.5 0.2
    endloop
  endfacet
  facet normal 0 1 0
    outer loop
      vertex -4.709999999999999 0.5 0.19
      vertex -5.1 0.5 0.2
      vertex -4.709999999999999 0.5 0.2
    endloop
  endfacet
  facet normal 0 1 0
    outer loop
      vertex -5.1 0.5 0.21499999999999983
      vertex -5.800000002980232 0.5 0
      vertex -4.709999999999999 0.5 0.8
    endloop
  endfacet
  facet normal 0 1 0
    outer loop
      vertex -4.709999999999999 0.5 1.4
      vertex -4.709999999999999 0.5 0.8
      vertex -5.800000002980232 0.5 0
    endloop
  endfacet
  facet normal 0 1 0
    outer loop
      vertex -4.709999999999999 0.5 1.4
      vertex -5.800000002980232 0.5 0
      vertex -5.1 0.5 1.9850000000000003
    endloop
  endfacet
  facet normal 0 1 0
    outer loop
      vertex -7.1 0.5 0
      vertex -7.1 0.5 3.4
      vertex -6.399999997019767 0.5 1.5
    endloop
  endfacet
  facet normal 0 1 0
    outer loop
      vertex -5.800000002980232 0.5 1.5
      vertex -5.1 0.5 1.9850000000000003
      vertex -5.800000002980232 0.5 0
    endloop
  endfacet
  facet normal 0 1 0
    outer loop
      vertex -6.399999997019767 0.5 1.5
      vertex -7.1 0.5 3.4
      vertex -5.800000002980232 0.5 1.5
    endloop
  endfacet
  facet normal 0 1 0
    outer loop
      vertex -5.800000002980232 0.5 1.5
      vertex -5.8 0.5 2.2
      vertex -5.1 0.5 1.9850000000000003
    endloop
  endfacet
  facet normal 0 1 0
    outer loop
      vertex -5.8 0.5 2.2
      vertex -5.800000002980232 0.5 1.5
      vertex -5.8 0.5 2.6000000000000005
    endloop
  endfacet
  facet normal 0 1 0
    outer loop
      vertex -5.8 0.5 2.2
      vertex -5.1 0.5 2.2
      vertex -5.1 0.5 1.9850000000000003
    endloop
  endfacet
  facet normal 0 1 0
    outer loop
      vertex -5.800000002980232 0.5 1.5
      vertex -7.1 0.5 3.4
      vertex -5.8 0.5 2.6000000000000005
    endloop
  endfacet
  facet normal 0 1 0
    outer loop
      vertex -5.1 0.5 2.6000000000000005
      vertex -5.8 0.5 2.6000000000000005
      vertex -5.1 0.5 3.4
    endloop
  endfacet
  facet normal 0 1 0
    outer loop
      vertex -7.1 0.5 4.6
      vertex -5.8 0.5 2.6000000000000005
      vertex -7.1 0.5 3.4
    endloop
  endfacet
  facet normal 0 1 0
    outer loop
      vertex -7.1 0.5 4.6
      vertex -5.1 0.5 3.4
      vertex -5.8 0.5 2.6000000000000005
    endloop
  endfacet
  facet normal 0 1 0
    outer loop
      vertex -7.1 0.5 4.6
      vertex 5.1 0.5 3.4
      vertex -5.1 0.5 3.4
    endloop
  endfacet
  facet normal 0 -1 0
    outer loop
      vertex 4.709999999999999 -0.5 0.2
      vertex 4.709999999999999 -0.5 0.19
      vertex 5.1 -0.5 0.2
    endloop
  endfacet
  facet normal 0 -1 0
    outer loop
      vertex 5.1 -0.5 0.2
      vertex 4.709999999999999 -0.5 0.19
      vertex 5.1 -0.5 0.19
    endloop
  endfacet
  facet normal 0 -1 0
    outer loop
      vertex 5.800000002980232 -0.5 1.5
      vertex 4.709999999999999 -0.5 0.8
      vertex 5.1 -0.5 0.21499999999999983
    endloop
  endfacet
  facet normal 0 -1 0
    outer loop
      vertex 5.1 -0.5 0.19
      vertex 5.1 -0.5 0
      vertex 5.800000002980232 -0.5 0
    endloop
  endfacet
  facet normal 0 -1 0
    outer loop
      vertex 5.800000002980232 -0.5 0
      vertex 5.800000002980232 -0.5 1.5
      vertex 5.1 -0.5 0.19
    endloop
  endfacet
  facet normal 0 -1 0
    outer loop
      vertex 6.399999997019767 -0.5 0
      vertex 7.1 -0.5 0
      vertex 6.399999997019767 -0.5 1.5
    endloop
  endfacet
  facet normal 0 -1 0
    outer loop
      vertex 5.1 -0.5 0.2
      vertex 5.1 -0.5 0.19
      vertex 5.800000002980232 -0.5 1.5
    endloop
  endfacet
  facet normal 0 -1 0
    outer loop
      vertex 5.1 -0.5 0.2
      vertex 5.800000002980232 -0.5 1.5
      vertex 5.1 -0.5 0.21499999999999983
    endloop
  endfacet
  facet normal 0 -1 0
    outer loop
      vertex 5.800000002980232 -0.5 1.5
      vertex 4.709999999999999 -0.5 1.4
      vertex 4.709999999999999 -0.5 0.8
    endloop
  endfacet
  facet normal 0 -1 0
    outer loop
      vertex 4.709999999999999 -0.5 1.4
      vertex 5.800000002980232 -0.5 1.5
      vertex 5.1 -0.5 1.9850000000000003
    endloop
  endfacet
  facet normal 0 -1 0
    outer loop
      vertex 7.1 -0.5 0
      vertex 7.1 -0.5 3.4
      vertex 6.399999997019767 -0.5 1.5
    endloop
  endfacet
  facet normal 0 -1 0
    outer loop
      vertex 5.1 -0.5 1.9850000000000003
      vertex 5.800000002980232 -0.5 1.5
      vertex 5.8 -0.5 2.2
    endloop
  endfacet
  facet normal 0 -1 0
    outer loop
      vertex 5.1 -0.5 1.9850000000000003
      vertex 5.8 -0.5 2.2
      vertex 5.1 -0.5 2.2
    endloop
  endfacet
  facet normal 0 -1 0
    outer loop
      vertex 5.800000002980232 -0.5 1.5
      vertex 6.399999997019767 -0.5 1.5
      vertex 7.1 -0.5 3.4
    endloop
  endfacet
  facet normal 0 -1 0
    outer loop
      vertex -5.1 -0.5 3.4
      vertex 5.1 -0.5 3.4
      vertex 7.1 -0.5 4.6
    endloop
  endfacet
  facet normal 0 -1 0
    outer loop
      vertex 5.1 -0.5 3.4
      vertex 5.1 -0.5 2.6000000000000005
      vertex 5.8 -0.5 2.6000000000000005
    endloop
  endfacet
  facet normal 0 -1 0
    outer loop
      vertex 5.800000002980232 -0.5 1.5
      vertex 7.1 -0.5 3.4
      vertex 5.8 -0.5 2.2
    endloop
  endfacet
  facet normal 0 -1 0
    outer loop
      vertex 5.8 -0.5 2.6000000000000005
      vertex 5.8 -0.5 2.2
      vertex 7.1 -0.5 3.4
    endloop
  endfacet
  facet normal 0 -1 0
    outer loop
      vertex 5.1 -0.5 3.4
      vertex 5.8 -0.5 2.6000000000000005
      vertex 7.1 -0.5 3.4
    endloop
  endfacet
  facet normal 0 -1 0
    outer loop
      vertex 7.1 -0.5 4.6
      vertex 5.1 -0.5 3.4
      vertex 7.1 -0.5 3.4
    endloop
  endfacet
  facet normal 0 1 0
    outer loop
      vertex 4.709999999999999 0.5 0.19
      vertex 4.709999999999999 0.5 0.2
      vertex 5.1 0.5 0.19
    endloop
  endfacet
  facet normal 0 1 0
    outer loop
      vertex 5.1 0.5 0.2
      vertex 5.1 0.5 0.19
      vertex 4.709999999999999 0.5 0.2
    endloop
  endfacet
  facet normal 0 1 0
    outer loop
      vertex 5.1 0.5 0.21499999999999983
      vertex 4.709999999999999 0.5 0.8
      vertex 5.800000002980232 0.5 1.5
    endloop
  endfacet
  facet normal 0 1 0
    outer loop
      vertex 5.1 0.5 0
      vertex 5.1 0.5 0.19
      vertex 5.800000002980232 0.5 1.5
    endloop
  endfacet
  facet normal 0 1 0
    outer loop
      vertex 5.1 0.5 0
      vertex 5.800000002980232 0.5 1.5
      vertex 5.800000002980232 0.5 0
    endloop
  endfacet
  facet normal 0 1 0
    outer loop
      vertex 6.399999997019767 0.5 0
      vertex 6.399999997019767 0.5 1.5
      vertex 7.1 0.5 0
    endloop
  endfacet
  facet normal 0 1 0
    outer loop
      vertex 5.1 0.5 0.2
      vertex 5.800000002980232 0.5 1.5
      vertex 5.1 0.5 0.19
    endloop
  endfacet
  facet normal 0 1 0
    outer loop
      vertex 5.1 0.5 0.2
      vertex 5.1 0.5 0.21499999999999983
      vertex 5.800000002980232 0.5 1.5
    endloop
  endfacet
  facet normal 0 1 0
    outer loop
      vertex 4.709999999999999 0.5 1.4
      vertex 5.800000002980232 0.5 1.5
      vertex 4.709999999999999 0.5 0.8
    endloop
  endfacet
  facet normal 0 1 0
    outer loop
      vertex 4.709999999999999 0.5 1.4
      vertex 5.1 0.5 1.9850000000000003
      vertex 5.800000002980232 0.5 1.5
    endloop
  endfacet
  facet normal 0 1 0
    outer loop
      vertex 7.1 0.5 3.4
      vertex 7.1 0.5 0
      vertex 6.399999997019767 0.5 1.5
    endloop
  endfacet
  facet normal 0 1 0
    outer loop
      vertex 5.1 0.5 1.9850000000000003
      vertex 5.1 0.5 2.2
      vertex 5.800000002980232 0.5 1.5
    endloop
  endfacet
  facet normal 0 1 0
    outer loop
      vertex 5.800000002980232 0.5 1.5
      vertex 5.1 0.5 2.2
      vertex 5.8 0.5 2.2
    endloop
  endfacet
  facet normal 0 1 0
    outer loop
      vertex 5.800000002980232 0.5 1.5
      vertex 5.8 0.5 2.2
      vertex 6.399999997019767 0.5 1.5
    endloop
  endfacet
  facet normal 0 1 0
    outer loop
      vertex -7.1 0.5 4.6
      vertex 7.1 0.5 3.4
      vertex 5.1 0.5 3.4
    endloop
  endfacet
  facet normal 0 1 0
    outer loop
      vertex -7.1 0.5 4.6
      vertex 7.1 0.5 4.6
      vertex 7.1 0.5 3.4
    endloop
  endfacet
  facet normal 0 1 0
    outer loop
      vertex 5.1 0.5 3.4
      vertex 5.8 0.5 2.6000000000000005
      vertex 5.1 0.5 2.6000000000000005
    endloop
  endfacet
  facet normal 0 1 0
    outer loop
      vertex 7.1 0.5 3.4
      vertex 6.399999997019767 0.5 1.5
      vertex 5.8 0.5 2.2
    endloop
  endfacet
  facet normal 0 1 0
    outer loop
      vertex 5.8 0.5 2.2
      vertex 5.8 0.5 2.6000000000000005
      vertex 7.1 0.5 3.4
    endloop
  endfacet
  facet normal 0 1 0
    outer loop
      vertex 5.1 0.5 3.4
      vertex 7.1 0.5 3.4
      vertex 5.8 0.5 2.6000000000000005
    endloop
  endfacet
endsolid OpenSCAD_Model
