solid OpenSCAD_Model
  facet normal 0 0 -1
    outer loop
      vertex -12.399999999527932 -0.5 1.2900000000000003
      vertex -12.4 -0.5 1.2900000000000003
      vertex -12.399999999527932 0.5 1.2900000000000003
    endloop
  endfacet
  facet normal -1 0 0
    outer loop
      vertex -12.4 -0.5 1.2900000000000003
      vertex -12.4 -0.5 1.7000000000000004
      vertex -12.4 0.5 1.2900000000000003
    endloop
  endfacet
  facet normal 0 0 1
    outer loop
      vertex -12.4 -0.5 1.7000000000000004
      vertex 11.091516295879693 -0.5 1.7000000000000004
      vertex -12.4 0.5 1.7000000000000004
    endloop
  endfacet
  facet normal 0 0 -1
    outer loop
      vertex -12.4 -0.5 1.2900000000000003
      vertex -12.4 0.5 1.2900000000000003
      vertex -12.399999999527932 0.5 1.2900000000000003
    endloop
  endfacet
  facet normal -1 0 0
    outer loop
      vertex -12.4 0.5 1.2900000000000003
      vertex -12.4 -0.5 1.7000000000000004
      vertex -12.4 0.5 1.7000000000000004
    endloop
  endfacet
  facet normal 0 0 1
    outer loop
      vertex -12.4 0.5 1.7000000000000004
      vertex 11.091516295879693 -0.5 1.7000000000000004
      vertex -3.400000000000001 0.5 1.7000000000000004
    endloop
  endfacet
  facet normal 0 0 -1
    outer loop
      vertex 12.399999999527932 -0.5 1.2900000000000003
      vertex 12.4 0.5 1.2900000000000003
      vertex 12.4 -0.5 1.2900000000000003
    endloop
  endfacet
  facet normal 0 0 1
    outer loop
      vertex 11.091516295879693 -0.5 1.7000000000000004
      vertex 12.4 -0.5 1.7000000000000004
      vertex 12.4 0.5 1.7000000000000004
    endloop
  endfacet
  facet normal 1 0 0
    outer loop
      vertex 12.4 -0.5 1.2900000000000003
      vertex 12.4 0.5 1.7000000000000004
      vertex 12.4 -0.5 1.7000000000000004
    endloop
  endfacet
  facet normal 0 0 1
    outer loop
      vertex 11.091516295879693 -0.5 1.7000000000000004
      vertex 12.4 0.5 1.7000000000000004
      vertex -3.400000000000001 0.5 1.7000000000000004
    endloop
  endfacet
  facet normal 0 0 -1
    outer loop
      vertex 12.399999999527932 -0.5 1.2900000000000003
      vertex 12.399999999527932 0.5 1.2900000000000003
      vertex 12.4 0.5 1.2900000000000003
    endloop
  endfacet
  facet normal 1 0 0
    outer loop
      vertex 12.4 -0.5 1.2900000000000003
      vertex 12.4 0.5 1.2900000000000003
      vertex 12.4 0.5 1.7000000000000004
    endloop
  endfacet
  facet normal -1 0 0
    outer loop
      vertex -12.399999999527932 -0.5 -1.6999999999995423
      vertex -12.399999999527932 -0.5 -1.51
      vertex -12.399999999527932 0.5 -1.699999999999478
    endloop
  endfacet
  facet normal -1 0 0
    outer loop
      vertex -12.399999999527932 -0.5 -1.5
      vertex -12.399999999527932 -0.5 -1.485000000708103
      vertex -12.399999999527932 0.5 -1.5
    endloop
  endfacet
  facet normal -2.068186884176933e-13 5.773159728050814e-14 -1
    outer loop
      vertex -11.699999997019768 -0.5 -1.699999999999687
      vertex -12.399999999527932 -0.5 -1.6999999999995423
      vertex -11.699999997019768 0.5 -1.6999999999996294
    endloop
  endfacet
  facet normal -1 0 0
    outer loop
      vertex -12.399999999527932 -0.5 0.28500000070810305
      vertex -12.399999999527932 -0.5 0.5000000000000002
      vertex -12.399999999527932 0.5 0.28500000070810305
    endloop
  endfacet
  facet normal -1 0 0
    outer loop
      vertex -12.399999999527932 -0.5 0.9000000000000001
      vertex -12.399999999527932 -0.5 1.2900000000000003
      vertex -12.399999999527932 0.5 0.9000000000000001
    endloop
  endfacet
  facet normal -2.163348857375258e-13 6.439293542825908e-14 -1
    outer loop
      vertex -12.399999999527932 -0.5 -1.6999999999995423
      vertex -12.399999999527932 0.5 -1.699999999999478
      vertex -11.699999997019768 0.5 -1.6999999999996294
    endloop
  endfacet
  facet normal -1 0 0
    outer loop
      vertex -12.399999999527932 -0.5 -1.51
      vertex -12.399999999527932 0.5 -1.51
      vertex -12.399999999527932 0.5 -1.699999999999478
    endloop
  endfacet
  facet normal -1 0 0
    outer loop
      vertex -12.399999999527932 -0.5 -1.485000000708103
      vertex -12.399999999527932 0.5 -1.485000000708103
      vertex -12.399999999527932 0.5 -1.5
    endloop
  endfacet
  facet normal -2.0004018456343664e-15 4.440892098500626e-14 -1
    outer loop
      vertex 11.100000002980233 0.5 -1.6999999999997608
      vertex -11.100000002980233 -0.5 -1.6999999999997608
      vertex -11.100000002980233 0.5 -1.6999999999997164
    endloop
  endfacet
  facet normal -1 0 0
    outer loop
      vertex -12.399999999527932 -0.5 0.5000000000000002
      vertex -12.399999999527932 0.5 0.5000000000000002
      vertex -12.399999999527932 0.5 0.28500000070810305
    endloop
  endfacet
  facet normal -1 0 0
    outer loop
      vertex -12.399999999527932 -0.5 1.2900000000000003
      vertex -12.399999999527932 0.5 1.2900000000000003
      vertex -12.399999999527932 0.5 0.9000000000000001
    endloop
  endfacet
  facet normal 2.0004018456343664e-15 -4.440892098500626e-14 -1
    outer loop
      vertex 11.100000002980233 0.5 -1.6999999999997608
      vertex 11.100000002980233 -0.5 -1.6999999999997164
      vertex -11.100000002980233 -0.5 -1.6999999999997608
    endloop
  endfacet
  facet normal 2.163348857375258e-13 -6.439293542825908e-14 -1
    outer loop
      vertex 12.399999999527932 -0.5 -1.699999999999478
      vertex 11.699999997019768 -0.5 -1.6999999999996294
      vertex 12.399999999527932 0.5 -1.6999999999995423
    endloop
  endfacet
  facet normal 1 0 0
    outer loop
      vertex 12.399999999527932 -0.5 -1.51
      vertex 12.399999999527932 -0.5 -1.699999999999478
      vertex 12.399999999527932 0.5 -1.51
    endloop
  endfacet
  facet normal 1 0 0
    outer loop
      vertex 12.399999999527932 -0.5 -1.5
      vertex 12.399999999527932 0.5 -1.485000000708103
      vertex 12.399999999527932 -0.5 -1.485000000708103
    endloop
  endfacet
  facet normal 1 0 0
    outer loop
      vertex 12.399999999527932 -0.5 0.5000000000000002
      vertex 12.399999999527932 -0.5 0.28500000070810305
      vertex 12.399999999527932 0.5 0.5000000000000002
    endloop
  endfacet
  facet normal 1 0 0
    outer loop
      vertex 12.399999999527932 -0.5 1.2900000000000003
      vertex 12.399999999527932 -0.5 0.9000000000000001
      vertex 12.399999999527932 0.5 1.2900000000000003
    endloop
  endfacet
  facet normal 2.068186884176933e-13 -5.773159728050814e-14 -1
    outer loop
      vertex 11.699999997019768 -0.5 -1.6999999999996294
      vertex 11.699999997019768 0.5 -1.699999999999687
      vertex 12.399999999527932 0.5 -1.6999999999995423
    endloop
  endfacet
  facet normal 1 0 0
    outer loop
      vertex 12.399999999527932 -0.5 -1.699999999999478
      vertex 12.399999999527932 0.5 -1.6999999999995423
      vertex 12.399999999527932 0.5 -1.51
    endloop
  endfacet
  facet normal 1 0 0
    outer loop
      vertex 12.399999999527932 -0.5 -1.5
      vertex 12.399999999527932 0.5 -1.5
      vertex 12.399999999527932 0.5 -1.485000000708103
    endloop
  endfacet
  facet normal 1 0 0
    outer loop
      vertex 12.399999999527932 -0.5 0.28500000070810305
      vertex 12.399999999527932 0.5 0.28500000070810305
      vertex 12.399999999527932 0.5 0.5000000000000002
    endloop
  endfacet
  facet normal 1 0 0
    outer loop
      vertex 12.399999999527932 -0.5 0.9000000000000001
      vertex 12.399999999527932 0.5 0.9000000000000001
      vertex 12.399999999527932 0.5 1.2900000000000003
    endloop
  endfacet
  facet normal -1 0 0
    outer loop
      vertex -12.790000000000001 -0.5 -1.5
      vertex -12.790000000000001 0.5 -1.51
      vertex -12.790000000000001 -0.5 -1.51
    endloop
  endfacet
  facet normal 0 0 -1
    outer loop
      vertex -12.399999999527932 -0.5 -1.51
      vertex -12.790000000000001 -0.5 -1.51
      vertex -12.399999999527932 0.5 -1.51
    endloop
  endfacet
  facet normal -1 0 0
    outer loop
      vertex -12.790000000000001 -0.5 -0.30000000000000004
      vertex -12.790000000000001 0.5 -0.8999999999999999
      vertex -12.790000000000001 -0.5 -0.8999999999999999
    endloop
  endfacet
  facet normal -1 0 0
    outer loop
      vertex -12.790000000000001 -0.5 -1.5
      vertex -12.790000000000001 0.5 -1.5
      vertex -12.790000000000001 0.5 -1.51
    endloop
  endfacet
  facet normal 0 0 -1
    outer loop
      vertex -12.790000000000001 -0.5 -1.51
      vertex -12.790000000000001 0.5 -1.51
      vertex -12.399999999527932 0.5 -1.51
    endloop
  endfacet
  facet normal -1 0 0
    outer loop
      vertex -12.790000000000001 -0.5 -0.30000000000000004
      vertex -12.790000000000001 0.5 -0.30000000000000004
      vertex -12.790000000000001 0.5 -0.8999999999999999
    endloop
  endfacet
  facet normal 0 0 -1
    outer loop
      vertex 12.399999999527932 -0.5 -1.51
      vertex 12.790000000000001 0.5 -1.51
      vertex 12.790000000000001 -0.5 -1.51
    endloop
  endfacet
  facet normal 1 0 0
    outer loop
      vertex 12.790000000000001 -0.5 -1.51
      vertex 12.790000000000001 0.5 -1.5
      vertex 12.790000000000001 -0.5 -1.5
    endloop
  endfacet
  facet normal 1 0 0
    outer loop
      vertex 12.790000000000001 -0.5 -0.8999999999999999
      vertex 12.790000000000001 0.5 -0.30000000000000004
      vertex 12.790000000000001 -0.5 -0.30000000000000004
    endloop
  endfacet
  facet normal 0 0 -1
    outer loop
      vertex 12.399999999527932 -0.5 -1.51
      vertex 12.399999999527932 0.5 -1.51
      vertex 12.790000000000001 0.5 -1.51
    endloop
  endfacet
  facet normal 1 0 0
    outer loop
      vertex 12.790000000000001 -0.5 -1.51
      vertex 12.790000000000001 0.5 -1.51
      vertex 12.790000000000001 0.5 -1.5
    endloop
  endfacet
  facet normal 1 0 0
    outer loop
      vertex 12.790000000000001 -0.5 -0.8999999999999999
      vertex 12.790000000000001 0.5 -0.8999999999999999
      vertex 12.790000000000001 0.5 -0.30000000000000004
    endloop
  endfacet
  facet normal -0.8320502943378434 0 0.5547001962252296
    outer loop
      vertex -12.399999999527932 -0.5 0.28500000070810305
      vertex -12.790000000000001 0.5 -0.30000000000000004
      vertex -12.790000000000001 -0.5 -0.30000000000000004
    endloop
  endfacet
  facet normal -0.8320502943378434 0 0.5547001962252296
    outer loop
      vertex -12.399999999527932 -0.5 0.28500000070810305
      vertex -12.399999999527932 0.5 0.28500000070810305
      vertex -12.790000000000001 0.5 -0.30000000000000004
    endloop
  endfacet
  facet normal 0.8320502943378434 0 0.5547001962252296
    outer loop
      vertex 12.399999999527932 -0.5 0.28500000070810305
      vertex 12.790000000000001 -0.5 -0.30000000000000004
      vertex 12.399999999527932 0.5 0.28500000070810305
    endloop
  endfacet
  facet normal 0.8320502943378434 0 0.5547001962252296
    outer loop
      vertex 12.790000000000001 -0.5 -0.30000000000000004
      vertex 12.790000000000001 0.5 -0.30000000000000004
      vertex 12.399999999527932 0.5 0.28500000070810305
    endloop
  endfacet
  facet normal 0 0 1
    outer loop
      vertex -12.399999999527932 -0.5 -1.5
      vertex -12.790000000000001 0.5 -1.5
      vertex -12.790000000000001 -0.5 -1.5
    endloop
  endfacet
  facet normal -0.8320502943378434 0 -0.5547001962252296
    outer loop
      vertex -12.399999999527932 -0.5 -1.485000000708103
      vertex -12.790000000000001 -0.5 -0.8999999999999999
      vertex -12.399999999527932 0.5 -1.485000000708103
    endloop
  endfacet
  facet normal 0 0 1
    outer loop
      vertex -12.399999999527932 -0.5 -1.5
      vertex -12.399999999527932 0.5 -1.5
      vertex -12.790000000000001 0.5 -1.5
    endloop
  endfacet
  facet normal -0.8320502943378434 0 -0.5547001962252296
    outer loop
      vertex -12.790000000000001 -0.5 -0.8999999999999999
      vertex -12.790000000000001 0.5 -0.8999999999999999
      vertex -12.399999999527932 0.5 -1.485000000708103
    endloop
  endfacet
  facet normal 0 0 1
    outer loop
      vertex 12.790000000000001 -0.5 -1.5
      vertex 12.399999999527932 0.5 -1.5
      vertex 12.399999999527932 -0.5 -1.5
    endloop
  endfacet
  facet normal 0.8320502943378434 0 -0.5547001962252296
    outer loop
      vertex 12.399999999527932 -0.5 -1.485000000708103
      vertex 12.790000000000001 0.5 -0.8999999999999999
      vertex 12.790000000000001 -0.5 -0.8999999999999999
    endloop
  endfacet
  facet normal 0 0 1
    outer loop
      vertex 12.790000000000001 -0.5 -1.5
      vertex 12.790000000000001 0.5 -1.5
      vertex 12.399999999527932 0.5 -1.5
    endloop
  endfacet
  facet normal 0.8320502943378434 0 -0.5547001962252296
    outer loop
      vertex 12.399999999527932 -0.5 -1.485000000708103
      vertex 12.399999999527932 0.5 -1.485000000708103
      vertex 12.790000000000001 0.5 -0.8999999999999999
    endloop
  endfacet
  facet normal -1 0 0
    outer loop
      vertex -11.100000002980233 -0.5 -0.19999999999999996
      vertex -11.100000002980233 0.5 -1.6999999999997164
      vertex -11.100000002980233 -0.5 -1.6999999999997608
    endloop
  endfacet
  facet normal 1 0 0
    outer loop
      vertex -11.699999997019768 -0.5 -0.19999999999999996
      vertex -11.699999997019768 -0.5 -1.699999999999687
      vertex -11.699999997019768 0.5 -0.19999999999999996
    endloop
  endfacet
  facet normal 0 0 -1
    outer loop
      vertex -11.100000002980233 -0.5 -0.19999999999999996
      vertex -11.699999997019768 -0.5 -0.19999999999999996
      vertex -11.100000002980233 0.5 -0.19999999999999996
    endloop
  endfacet
  facet normal 1 0 0
    outer loop
      vertex -11.699999997019768 -0.5 -1.699999999999687
      vertex -11.699999997019768 0.5 -1.6999999999996294
      vertex -11.699999997019768 0.5 -0.19999999999999996
    endloop
  endfacet
  facet normal -1 0 0
    outer loop
      vertex -11.100000002980233 -0.5 -0.19999999999999996
      vertex -11.100000002980233 0.5 -0.19999999999999996
      vertex -11.100000002980233 0.5 -1.6999999999997164
    endloop
  endfacet
  facet normal 0 0 -1
    outer loop
      vertex -11.699999997019768 -0.5 -0.19999999999999996
      vertex -11.699999997019768 0.5 -0.19999999999999996
      vertex -11.100000002980233 0.5 -0.19999999999999996
    endloop
  endfacet
  facet normal -1 0 0
    outer loop
      vertex 11.699999997019768 -0.5 -1.6999999999996294
      vertex 11.699999997019768 -0.5 -0.19999999999999996
      vertex 11.699999997019768 0.5 -1.699999999999687
    endloop
  endfacet
  facet normal 1 0 0
    outer loop
      vertex 11.100000002980233 -0.5 -1.6999999999997164
      vertex 11.100000002980233 0.5 -0.19999999999999996
      vertex 11.100000002980233 -0.5 -0.19999999999999996
    endloop
  endfacet
  facet normal 0 0 -1
    outer loop
      vertex 11.699999997019768 -0.5 -0.19999999999999996
      vertex 11.100000002980233 -0.5 -0.19999999999999996
      vertex 11.699999997019768 0.5 -0.19999999999999996
    endloop
  endfacet
  facet normal 1 0 0
    outer loop
      vertex 11.100000002980233 -0.5 -1.6999999999997164
      vertex 11.100000002980233 0.5 -1.6999999999997608
      vertex 11.100000002980233 0.5 -0.19999999999999996
    endloop
  endfacet
  facet normal -1 0 0
    outer loop
      vertex 11.699999997019768 -0.5 -0.19999999999999996
      vertex 11.699999997019768 0.5 -0.19999999999999996
      vertex 11.699999997019768 0.5 -1.699999999999687
    endloop
  endfacet
  facet normal 0 0 -1
    outer loop
      vertex 11.100000002980233 -0.5 -0.19999999999999996
      vertex 11.100000002980233 0.5 -0.19999999999999996
      vertex 11.699999997019768 0.5 -0.19999999999999996
    endloop
  endfacet
  facet normal 0 0 1
    outer loop
      vertex 12.399999999527932 -0.5 0.5000000000000002
      vertex 11.700000000000001 0.5 0.5000000000000002
      vertex 11.700000000000001 -0.5 0.5000000000000002
    endloop
  endfacet
  facet normal 1 0 0
    outer loop
      vertex 11.700000000000001 -0.5 0.5000000000000002
      vertex 11.700000000000001 0.5 0.9000000000000001
      vertex 11.700000000000001 -0.5 0.9000000000000001
    endloop
  endfacet
  facet normal 0 0 -1
    outer loop
      vertex 12.399999999527932 -0.5 0.9000000000000001
      vertex 11.700000000000001 -0.5 0.9000000000000001
      vertex 12.399999999527932 0.5 0.9000000000000001
    endloop
  endfacet
  facet normal 1 0 0
    outer loop
      vertex 11.700000000000001 -0.5 0.5000000000000002
      vertex 11.700000000000001 0.5 0.5000000000000002
      vertex 11.700000000000001 0.5 0.9000000000000001
    endloop
  endfacet
  facet normal 0 0 1
    outer loop
      vertex 12.399999999527932 -0.5 0.5000000000000002
      vertex 12.399999999527932 0.5 0.5000000000000002
      vertex 11.700000000000001 0.5 0.5000000000000002
    endloop
  endfacet
  facet normal 0 0 -1
    outer loop
      vertex 11.700000000000001 -0.5 0.9000000000000001
      vertex 11.700000000000001 0.5 0.9000000000000001
      vertex 12.399999999527932 0.5 0.9000000000000001
    endloop
  endfacet
  facet normal 0 0 1
    outer loop
      vertex -12.399999999527932 -0.5 0.5000000000000002
      vertex -11.700000000000001 -0.5 0.5000000000000002
      vertex -12.399999999527932 0.5 0.5000000000000002
    endloop
  endfacet
  facet normal -1 0 0
    outer loop
      vertex -11.700000000000001 -0.5 0.9000000000000001
      vertex -11.700000000000001 0.5 0.5000000000000002
      vertex -11.700000000000001 -0.5 0.5000000000000002
    endloop
  endfacet
  facet normal 0 0 -1
    outer loop
      vertex -12.399999999527932 -0.5 0.9000000000000001
      vertex -11.700000000000001 0.5 0.9000000000000001
      vertex -11.700000000000001 -0.5 0.9000000000000001
    endloop
  endfacet
  facet normal 0 0 1
    outer loop
      vertex -11.700000000000001 -0.5 0.5000000000000002
      vertex -11.700000000000001 0.5 0.5000000000000002
      vertex -12.399999999527932 0.5 0.5000000000000002
    endloop
  endfacet
  facet normal -1 0 0
    outer loop
      vertex -11.700000000000001 -0.5 0.9000000000000001
      vertex -11.700000000000001 0.5 0.9000000000000001
      vertex -11.700000000000001 0.5 0.5000000000000002
    endloop
  endfacet
  facet normal 0 0 -1
    outer loop
      vertex -12.399999999527932 -0.5 0.9000000000000001
      vertex -12.399999999527932 0.5 0.9000000000000001
      vertex -11.700000000000001 0.5 0.9000000000000001
    endloop
  endfacet
  facet normal 0 -1 0
    outer loop
      vertex -12.399999999527932 -0.5 -1.51
      vertex -12.399999999527932 -0.5 -1.6999999999995423
      vertex -11.699999997019768 -0.5 -1.699999999999687
    endloop
  endfacet
  facet normal 0 -1 0
    outer loop
      vertex -12.399999999527932 -0.5 -1.5
      vertex -12.790000000000001 -0.5 -1.5
      vertex -12.790000000000001 -0.5 -1.51
    endloop
  endfacet
  facet normal 0 -1 0
    outer loop
      vertex -12.399999999527932 -0.5 -1.51
      vertex -12.399999999527932 -0.5 -1.5
      vertex -12.790000000000001 -0.5 -1.51
    endloop
  endfacet
  facet normal 0 -1 0
    outer loop
      vertex -12.399999999527932 -0.5 -1.51
      vertex -11.699999997019768 -0.5 -1.699999999999687
      vertex -12.399999999527932 -0.5 -1.5
    endloop
  endfacet
  facet normal 0 -1 0
    outer loop
      vertex -12.399999999527932 -0.5 -1.5
      vertex -11.699999997019768 -0.5 -1.699999999999687
      vertex -12.399999999527932 -0.5 -1.485000000708103
    endloop
  endfacet
  facet normal 0 -1 0
    outer loop
      vertex -12.399999999527932 -0.5 -1.485000000708103
      vertex -11.699999997019768 -0.5 -1.699999999999687
      vertex -12.790000000000001 -0.5 -0.8999999999999999
    endloop
  endfacet
  facet normal 0 -1 0
    outer loop
      vertex -12.790000000000001 -0.5 -0.30000000000000004
      vertex -12.790000000000001 -0.5 -0.8999999999999999
      vertex -11.699999997019768 -0.5 -1.699999999999687
    endloop
  endfacet
  facet normal 0 -1 0
    outer loop
      vertex -12.399999999527932 -0.5 0.28500000070810305
      vertex -12.790000000000001 -0.5 -0.30000000000000004
      vertex -11.699999997019768 -0.5 -1.699999999999687
    endloop
  endfacet
  facet normal 0 -1 0
    outer loop
      vertex -11.699999997019768 -0.5 -0.19999999999999996
      vertex -12.399999999527932 -0.5 0.28500000070810305
      vertex -11.699999997019768 -0.5 -1.699999999999687
    endloop
  endfacet
  facet normal 0 -1 0
    outer loop
      vertex -11.100000002980233 -0.5 -0.19999999999999996
      vertex -11.100000002980233 -0.5 -1.6999999999997608
      vertex 11.091516295879693 -0.5 1.7000000000000004
    endloop
  endfacet
  facet normal 0 -1 0
    outer loop
      vertex -11.100000002980233 -0.5 -0.19999999999999996
      vertex -11.700000000000001 -0.5 0.5000000000000002
      vertex -11.699999997019768 -0.5 -0.19999999999999996
    endloop
  endfacet
  facet normal 0 -1 0
    outer loop
      vertex -11.699999997019768 -0.5 -0.19999999999999996
      vertex -11.700000000000001 -0.5 0.5000000000000002
      vertex -12.399999999527932 -0.5 0.28500000070810305
    endloop
  endfacet
  facet normal 0 -1 0
    outer loop
      vertex -12.399999999527932 -0.5 0.28500000070810305
      vertex -11.700000000000001 -0.5 0.5000000000000002
      vertex -12.399999999527932 -0.5 0.5000000000000002
    endloop
  endfacet
  facet normal 0 -1 0
    outer loop
      vertex -12.399999999527932 -0.5 1.2900000000000003
      vertex -12.4 -0.5 1.7000000000000004
      vertex -12.4 -0.5 1.2900000000000003
    endloop
  endfacet
  facet normal 0 -1 0
    outer loop
      vertex -11.100000002980233 -0.5 -0.19999999999999996
      vertex 11.091516295879693 -0.5 1.7000000000000004
      vertex -11.700000000000001 -0.5 0.5000000000000002
    endloop
  endfacet
  facet normal 0 -1 0
    outer loop
      vertex -11.700000000000001 -0.5 0.9000000000000001
      vertex -11.700000000000001 -0.5 0.5000000000000002
      vertex 11.091516295879693 -0.5 1.7000000000000004
    endloop
  endfacet
  facet normal 0 -1 0
    outer loop
      vertex -12.399999999527932 -0.5 0.9000000000000001
      vertex -11.700000000000001 -0.5 0.9000000000000001
      vertex 11.091516295879693 -0.5 1.7000000000000004
    endloop
  endfacet
  facet normal 0 -1 0
    outer loop
      vertex -12.399999999527932 -0.5 0.9000000000000001
      vertex 11.091516295879693 -0.5 1.7000000000000004
      vertex -12.399999999527932 -0.5 1.2900000000000003
    endloop
  endfacet
  facet normal 0 -1 0
    outer loop
      vertex -12.399999999527932 -0.5 1.2900000000000003
      vertex 11.091516295879693 -0.5 1.7000000000000004
      vertex -12.4 -0.5 1.7000000000000004
    endloop
  endfacet
  facet normal 0 1 0
    outer loop
      vertex -12.790000000000001 0.5 -1.5
      vertex -12.399999999527932 0.5 -1.51
      vertex -12.790000000000001 0.5 -1.51
    endloop
  endfacet
  facet normal 0 1 0
    outer loop
      vertex -12.399999999527932 0.5 -1.51
      vertex -12.790000000000001 0.5 -1.5
      vertex -12.399999999527932 0.5 -1.5
    endloop
  endfacet
  facet normal 0 1 0
    outer loop
      vertex -12.399999999527932 0.5 -1.51
      vertex -11.699999997019768 0.5 -0.19999999999999996
      vertex -12.399999999527932 0.5 -1.699999999999478
    endloop
  endfacet
  facet normal 0 1 0
    outer loop
      vertex -12.399999999527932 0.5 -1.51
      vertex -12.399999999527932 0.5 -1.5
      vertex -11.699999997019768 0.5 -0.19999999999999996
    endloop
  endfacet
  facet normal 0 1 0
    outer loop
      vertex -12.399999999527932 0.5 -1.699999999999478
      vertex -11.699999997019768 0.5 -0.19999999999999996
      vertex -11.699999997019768 0.5 -1.6999999999996294
    endloop
  endfacet
  facet normal 0 1 0
    outer loop
      vertex -12.399999999527932 0.5 -1.5
      vertex -12.399999999527932 0.5 -1.485000000708103
      vertex -11.699999997019768 0.5 -0.19999999999999996
    endloop
  endfacet
  facet normal 0 1 0
    outer loop
      vertex -12.399999999527932 0.5 -1.485000000708103
      vertex -12.790000000000001 0.5 -0.8999999999999999
      vertex -11.699999997019768 0.5 -0.19999999999999996
    endloop
  endfacet
  facet normal 0 1 0
    outer loop
      vertex -12.790000000000001 0.5 -0.8999999999999999
      vertex -12.790000000000001 0.5 -0.30000000000000004
      vertex -11.699999997019768 0.5 -0.19999999999999996
    endloop
  endfacet
  facet normal 0 1 0
    outer loop
      vertex -11.699999997019768 0.5 -0.19999999999999996
      vertex -12.790000000000001 0.5 -0.30000000000000004
      vertex -12.399999999527932 0.5 0.28500000070810305
    endloop
  endfacet
  facet normal 0 1 0
    outer loop
      vertex -11.100000002980233 0.5 -0.19999999999999996
      vertex -3.400000000000001 0.5 1.7000000000000004
      vertex -11.100000002980233 0.5 -1.6999999999997164
    endloop
  endfacet
  facet normal 0 1 0
    outer loop
      vertex 11.100000002980233 0.5 -1.6999999999997608
      vertex -11.100000002980233 0.5 -1.6999999999997164
      vertex -3.400000000000001 0.5 1.7000000000000004
    endloop
  endfacet
  facet normal 0 1 0
    outer loop
      vertex -11.699999997019768 0.5 -0.19999999999999996
      vertex -12.399999999527932 0.5 0.28500000070810305
      vertex -12.399999999527932 0.5 0.5000000000000002
    endloop
  endfacet
  facet normal 0 1 0
    outer loop
      vertex -11.699999997019768 0.5 -0.19999999999999996
      vertex -11.700000000000001 0.5 0.5000000000000002
      vertex -11.100000002980233 0.5 -0.19999999999999996
    endloop
  endfacet
  facet normal 0 1 0
    outer loop
      vertex -11.699999997019768 0.5 -0.19999999999999996
      vertex -12.399999999527932 0.5 0.5000000000000002
      vertex -11.700000000000001 0.5 0.5000000000000002
    endloop
  endfacet
  facet normal 0 1 0
    outer loop
      vertex -11.100000002980233 0.5 -0.19999999999999996
      vertex -11.700000000000001 0.5 0.5000000000000002
      vertex -3.400000000000001 0.5 1.7000000000000004
    endloop
  endfacet
  facet normal 0 1 0
    outer loop
      vertex -11.700000000000001 0.5 0.5000000000000002
      vertex -11.700000000000001 0.5 0.9000000000000001
      vertex -3.400000000000001 0.5 1.7000000000000004
    endloop
  endfacet
  facet normal 0 1 0
    outer loop
      vertex -11.700000000000001 0.5 0.9000000000000001
      vertex -12.399999999527932 0.5 0.9000000000000001
      vertex -3.400000000000001 0.5 1.7000000000000004
    endloop
  endfacet
  facet normal 0 1 0
    outer loop
      vertex -12.399999999527932 0.5 1.2900000000000003
      vertex -3.400000000000001 0.5 1.7000000000000004
      vertex -12.399999999527932 0.5 0.9000000000000001
    endloop
  endfacet
  facet normal 0 1 0
    outer loop
      vertex -12.399999999527932 0.5 1.2900000000000003
      vertex -12.4 0.5 1.2900000000000003
      vertex -3.400000000000001 0.5 1.7000000000000004
    endloop
  endfacet
  facet normal 0 1 0
    outer loop
      vertex -12.4 0.5 1.2900000000000003
      vertex -12.4 0.5 1.7000000000000004
      vertex -3.400000000000001 0.5 1.7000000000000004
    endloop
  endfacet
  facet normal 0 -1 0
    outer loop
      vertex -11.100000002980233 -0.5 -1.6999999999997608
      vertex 11.100000002980233 -0.5 -1.6999999999997164
      vertex 11.100000002980233 -0.5 -0.19999999999999996
    endloop
  endfacet
  facet normal 0 -1 0
    outer loop
      vertex -11.100000002980233 -0.5 -1.6999999999997608
      vertex 11.100000002980233 -0.5 -0.19999999999999996
      vertex 11.091516295879693 -0.5 1.7000000000000004
    endloop
  endfacet
  facet normal 0 -1 0
    outer loop
      vertex 12.399999999527932 -0.5 -1.51
      vertex 12.790000000000001 -0.5 -1.5
      vertex 12.399999999527932 -0.5 -1.5
    endloop
  endfacet
  facet normal 0 -1 0
    outer loop
      vertex 12.399999999527932 -0.5 -1.51
      vertex 12.790000000000001 -0.5 -1.51
      vertex 12.790000000000001 -0.5 -1.5
    endloop
  endfacet
  facet normal 0 -1 0
    outer loop
      vertex 11.699999997019768 -0.5 -1.6999999999996294
      vertex 12.399999999527932 -0.5 -1.699999999999478
      vertex 11.699999997019768 -0.5 -0.19999999999999996
    endloop
  endfacet
  facet normal 0 -1 0
    outer loop
      vertex 12.399999999527932 -0.5 -1.51
      vertex 11.699999997019768 -0.5 -0.19999999999999996
      vertex 12.399999999527932 -0.5 -1.699999999999478
    endloop
  endfacet
  facet normal 0 -1 0
    outer loop
      vertex 12.399999999527932 -0.5 -1.51
      vertex 12.399999999527932 -0.5 -1.5
      vertex 11.699999997019768 -0.5 -0.19999999999999996
    endloop
  endfacet
  facet normal 0 -1 0
    outer loop
      vertex 12.399999999527932 -0.5 -1.5
      vertex 12.399999999527932 -0.5 -1.485000000708103
      vertex 11.699999997019768 -0.5 -0.19999999999999996
    endloop
  endfacet
  facet normal 0 -1 0
    outer loop
      vertex 12.399999999527932 -0.5 -1.485000000708103
      vertex 12.790000000000001 -0.5 -0.8999999999999999
      vertex 11.699999997019768 -0.5 -0.19999999999999996
    endloop
  endfacet
  facet normal 0 -1 0
    outer loop
      vertex 11.699999997019768 -0.5 -0.19999999999999996
      vertex 12.790000000000001 -0.5 -0.8999999999999999
      vertex 12.790000000000001 -0.5 -0.30000000000000004
    endloop
  endfacet
  facet normal 0 -1 0
    outer loop
      vertex 11.699999997019768 -0.5 -0.19999999999999996
      vertex 12.790000000000001 -0.5 -0.30000000000000004
      vertex 12.399999999527932 -0.5 0.28500000070810305
    endloop
  endfacet
  facet normal 0 -1 0
    outer loop
      vertex 11.699999997019768 -0.5 -0.19999999999999996
      vertex 11.700000000000001 -0.5 0.5000000000000002
      vertex 11.100000002980233 -0.5 -0.19999999999999996
    endloop
  endfacet
  facet normal 0 -1 0
    outer loop
      vertex 11.699999997019768 -0.5 -0.19999999999999996
      vertex 12.399999999527932 -0.5 0.28500000070810305
      vertex 12.399999999527932 -0.5 0.5000000000000002
    endloop
  endfacet
  facet normal 0 -1 0
    outer loop
      vertex 11.699999997019768 -0.5 -0.19999999999999996
      vertex 12.399999999527932 -0.5 0.5000000000000002
      vertex 11.700000000000001 -0.5 0.5000000000000002
    endloop
  endfacet
  facet normal 0 -1 0
    outer loop
      vertex 11.091516295879693 -0.5 1.7000000000000004
      vertex 11.100000002980233 -0.5 -0.19999999999999996
      vertex 11.700000000000001 -0.5 0.5000000000000002
    endloop
  endfacet
  facet normal 0 -1 0
    outer loop
      vertex 11.091516295879693 -0.5 1.7000000000000004
      vertex 11.700000000000001 -0.5 0.5000000000000002
      vertex 11.700000000000001 -0.5 0.9000000000000001
    endloop
  endfacet
  facet normal 0 -1 0
    outer loop
      vertex 11.700000000000001 -0.5 0.9000000000000001
      vertex 12.399999999527932 -0.5 0.9000000000000001
      vertex 12.399999999527932 -0.5 1.2900000000000003
    endloop
  endfacet
  facet normal 0 -1 0
    outer loop
      vertex 11.700000000000001 -0.5 0.9000000000000001
      vertex 12.399999999527932 -0.5 1.2900000000000003
      vertex 11.091516295879693 -0.5 1.7000000000000004
    endloop
  endfacet
  facet normal 0 -1 0
    outer loop
      vertex 11.091516295879693 -0.5 1.7000000000000004
      vertex 12.399999999527932 -0.5 1.2900000000000003
      vertex 12.4 -0.5 1.2900000000000003
    endloop
  endfacet
  facet normal 0 -1 0
    outer loop
      vertex 11.091516295879693 -0.5 1.7000000000000004
      vertex 12.4 -0.5 1.2900000000000003
      vertex 12.4 -0.5 1.7000000000000004
    endloop
  endfacet
  facet normal 0 1 0
    outer loop
      vertex -3.400000000000001 0.5 1.7000000000000004
      vertex 11.100000002980233 0.5 -0.19999999999999996
      vertex 11.100000002980233 0.5 -1.6999999999997608
    endloop
  endfacet
  facet normal 0 1 0
    outer loop
      vertex 12.399999999527932 0.5 -1.51
      vertex 12.399999999527932 0.5 -1.6999999999995423
      vertex 11.699999997019768 0.5 -1.699999999999687
    endloop
  endfacet
  facet normal 0 1 0
    outer loop
      vertex 12.399999999527932 0.5 -1.51
      vertex 12.399999999527932 0.5 -1.5
      vertex 12.790000000000001 0.5 -1.51
    endloop
  endfacet
  facet normal 0 1 0
    outer loop
      vertex 12.790000000000001 0.5 -1.51
      vertex 12.399999999527932 0.5 -1.5
      vertex 12.790000000000001 0.5 -1.5
    endloop
  endfacet
  facet normal 0 1 0
    outer loop
      vertex 12.399999999527932 0.5 -1.51
      vertex 11.699999997019768 0.5 -1.699999999999687
      vertex 11.699999997019768 0.5 -0.19999999999999996
    endloop
  endfacet
  facet normal 0 1 0
    outer loop
      vertex 12.399999999527932 0.5 -1.51
      vertex 11.699999997019768 0.5 -0.19999999999999996
      vertex 12.399999999527932 0.5 -1.5
    endloop
  endfacet
  facet normal 0 1 0
    outer loop
      vertex 12.399999999527932 0.5 -1.485000000708103
      vertex 12.399999999527932 0.5 -1.5
      vertex 11.699999997019768 0.5 -0.19999999999999996
    endloop
  endfacet
  facet normal 0 1 0
    outer loop
      vertex 12.399999999527932 0.5 -1.485000000708103
      vertex 11.699999997019768 0.5 -0.19999999999999996
      vertex 12.790000000000001 0.5 -0.8999999999999999
    endloop
  endfacet
  facet normal 0 1 0
    outer loop
      vertex 11.699999997019768 0.5 -0.19999999999999996
      vertex 12.790000000000001 0.5 -0.30000000000000004
      vertex 12.790000000000001 0.5 -0.8999999999999999
    endloop
  endfacet
  facet normal 0 1 0
    outer loop
      vertex 11.699999997019768 0.5 -0.19999999999999996
      vertex 12.399999999527932 0.5 0.28500000070810305
      vertex 12.790000000000001 0.5 -0.30000000000000004
    endloop
  endfacet
  facet normal 0 1 0
    outer loop
      vertex 11.699999997019768 0.5 -0.19999999999999996
      vertex 11.100000002980233 0.5 -0.19999999999999996
      vertex -3.400000000000001 0.5 1.7000000000000004
    endloop
  endfacet
  facet normal 0 1 0
    outer loop
      vertex 11.699999997019768 0.5 -0.19999999999999996
      vertex -3.400000000000001 0.5 1.7000000000000004
      vertex 11.700000000000001 0.5 0.9000000000000001
    endloop
  endfacet
  facet normal 0 1 0
    outer loop
      vertex 11.699999997019768 0.5 -0.19999999999999996
      vertex 11.700000000000001 0.5 0.5000000000000002
      vertex 12.399999999527932 0.5 0.28500000070810305
    endloop
  endfacet
  facet normal 0 1 0
    outer loop
      vertex 11.699999997019768 0.5 -0.19999999999999996
      vertex 11.700000000000001 0.5 0.9000000000000001
      vertex 11.700000000000001 0.5 0.5000000000000002
    endloop
  endfacet
  facet normal 0 1 0
    outer loop
      vertex 12.399999999527932 0.5 0.28500000070810305
      vertex 11.700000000000001 0.5 0.5000000000000002
      vertex 12.399999999527932 0.5 0.5000000000000002
    endloop
  endfacet
  facet normal 0 1 0
    outer loop
      vertex 12.399999999527932 0.5 0.9000000000000001
      vertex 11.700000000000001 0.5 0.9000000000000001
      vertex -3.400000000000001 0.5 1.7000000000000004
    endloop
  endfacet
  facet normal 0 1 0
    outer loop
      vertex 12.399999999527932 0.5 0.9000000000000001
      vertex -3.400000000000001 0.5 1.7000000000000004
      vertex 12.399999999527932 0.5 1.2900000000000003
    endloop
  endfacet
  facet normal 0 1 0
    outer loop
      vertex -3.400000000000001 0.5 1.7000000000000004
      vertex 12.4 0.5 1.7000000000000004
      vertex 12.399999999527932 0.5 1.2900000000000003
    endloop
  endfacet
  facet normal 0 1 0
    outer loop
      vertex 12.4 0.5 1.7000000000000004
      vertex 12.4 0.5 1.2900000000000003
      vertex 12.399999999527932 0.5 1.2900000000000003
    endloop
  endfacet
endsolid OpenSCAD_Model
