solid OpenSCAD_Model
  facet normal 0 0 -1
    outer loop
      vertex -13.829571137787326 -9.661810785917769 -3.4
      vertex -13.777087219648926 -8.325856507840998 -3.4
      vertex -12.919952994340365 -11.659822699092427 -3.4
    endloop
  endfacet
  facet normal 0 0 -1
    outer loop
      vertex -12.919952994340365 -11.659822699092427 -3.4
      vertex -13.777087219648926 -8.325856507840998 -3.4
      vertex -13.096162151133022 9.006781576356902 -3.4
    endloop
  endfacet
  facet normal 0 0 -1
    outer loop
      vertex -12.919952994340365 -11.659822699092427 -3.4
      vertex -13.096162151133022 9.006781576356902 -3.4
      vertex -12.899999998509884 -9.20294372898004 -3.4
    endloop
  endfacet
  facet normal 0 0 -1
    outer loop
      vertex -13.777087219648926 -8.325856507840998 -3.4
      vertex -14 -8.102943727489924 -3.4
      vertex -14 8.102943727489924 -3.4
    endloop
  endfacet
  facet normal 0.7071067811865475 0 -0.7071067811865475
    outer loop
      vertex -12.899999998509884 -9.20294372898004 -3.4
      vertex -12.5 9.037258304648027 -3.000000001490116
      vertex -12.5 -9.037258304648027 -3.000000001490116
    endloop
  endfacet
  facet normal -1 0 0
    outer loop
      vertex -14 -8.102943727489924 -3.4
      vertex -14 -6.123044742274933 -2.000000001490116
      vertex -14 6.123044742274933 -2.000000001490116
    endloop
  endfacet
  facet normal 1 0 0
    outer loop
      vertex -12.5 -9.037258304648027 -3.000000001490116
      vertex -12.5 7.623044742274933 -2.000000001490116
      vertex -12.5 -7.623044742274933 -2.000000001490116
    endloop
  endfacet
  facet normal 0.8192319193720263 0 0.5734623460019198
    outer loop
      vertex -12.5 -7.623044742274933 -2.000000001490116
      vertex -13.200000002980232 6.923044739294701 -1.000000001490116
      vertex -13.200000002980232 -6.923044739294701 -1.000000001490116
    endloop
  endfacet
  facet normal -1 0 0
    outer loop
      vertex -14 -6.123044742274933 -2.000000001490116
      vertex -14 -6.123044742274933 1.999999998509884
      vertex -14 6.123044742274933 -2.000000001490116
    endloop
  endfacet
  facet normal 0 0 1
    outer loop
      vertex -14 -11.854560081639454 3.399999997019768
      vertex -12.965787968567087 -12.325397128085172 3.399999997019768
      vertex -14 -8.102943727489924 3.399999997019768
    endloop
  endfacet
  facet normal 1 0 0
    outer loop
      vertex -13.200000002980232 -6.923044739294701 -1.000000001490116
      vertex -13.200000002980232 6.923044739294701 0.999999998509884
      vertex -13.200000002980232 -6.923044739294701 0.999999998509884
    endloop
  endfacet
  facet normal 0.8192319193720264 0 -0.5734623460019198
    outer loop
      vertex -13.200000002980232 -6.923044739294701 0.999999998509884
      vertex -12.5 7.623044742274933 1.999999998509884
      vertex -12.5 -7.623044742274933 1.999999998509884
    endloop
  endfacet
  facet normal 0 0 1
    outer loop
      vertex -12.965787968567087 -12.325397128085172 3.399999997019768
      vertex -13.035340831228476 -10.554960626375408 3.399999997019768
      vertex -14 8.102943727489924 3.399999997019768
    endloop
  endfacet
  facet normal 0 0 1
    outer loop
      vertex -12.965787968567087 -12.325397128085172 3.399999997019768
      vertex -14 8.102943727489924 3.399999997019768
      vertex -14 -8.102943727489924 3.399999997019768
    endloop
  endfacet
  facet normal 0 0 1
    outer loop
      vertex -13.035340831228476 -10.554960626375408 3.399999997019768
      vertex -12.899999998509884 -9.20294372898004 3.399999997019768
      vertex -13.777087219648928 8.325856507840996 3.399999997019768
    endloop
  endfacet
  facet normal -1 0 0
    outer loop
      vertex -14 -6.123044742274933 1.999999998509884
      vertex -14 -8.102943727489924 3.399999997019768
      vertex -14 6.123044742274933 1.999999998509884
    endloop
  endfacet
  facet normal 1 0 0
    outer loop
      vertex -12.5 -9.037258304648027 2.999999998509884
      vertex -12.5 -7.623044742274933 1.999999998509884
      vertex -12.5 9.037258304648027 2.999999998509884
    endloop
  endfacet
  facet normal 0.7071067811865475 0 0.7071067811865475
    outer loop
      vertex -12.5 -9.037258304648027 2.999999998509884
      vertex -12.899999998509884 9.20294372898004 3.399999997019768
      vertex -12.899999998509884 -9.20294372898004 3.399999997019768
    endloop
  endfacet
  facet normal 0 0 -1
    outer loop
      vertex -13.777087219648926 -8.325856507840998 -3.4
      vertex -14 8.102943727489924 -3.4
      vertex -13.096162151133022 9.006781576356902 -3.4
    endloop
  endfacet
  facet normal 0 0 -1
    outer loop
      vertex -12.899999998509884 -9.20294372898004 -3.4
      vertex -13.096162151133022 9.006781576356902 -3.4
      vertex -12.899999998509884 9.20294372898004 -3.4
    endloop
  endfacet
  facet normal 0.7071067811865475 0 -0.7071067811865475
    outer loop
      vertex -12.899999998509884 -9.20294372898004 -3.4
      vertex -12.899999998509884 9.20294372898004 -3.4
      vertex -12.5 9.037258304648027 -3.000000001490116
    endloop
  endfacet
  facet normal -1 0 0
    outer loop
      vertex -14 -8.102943727489924 -3.4
      vertex -14 6.123044742274933 -2.000000001490116
      vertex -14 8.102943727489924 -3.4
    endloop
  endfacet
  facet normal 1 0 0
    outer loop
      vertex -12.5 -9.037258304648027 -3.000000001490116
      vertex -12.5 9.037258304648027 -3.000000001490116
      vertex -12.5 7.623044742274933 -2.000000001490116
    endloop
  endfacet
  facet normal 0.8192319193720264 0 0.5734623460019198
    outer loop
      vertex -12.5 -7.623044742274933 -2.000000001490116
      vertex -12.5 7.623044742274933 -2.000000001490116
      vertex -13.200000002980232 6.923044739294701 -1.000000001490116
    endloop
  endfacet
  facet normal 1 0 0
    outer loop
      vertex -13.200000002980232 -6.923044739294701 -1.000000001490116
      vertex -13.200000002980232 6.923044739294701 -1.000000001490116
      vertex -13.200000002980232 6.923044739294701 0.999999998509884
    endloop
  endfacet
  facet normal 0 0 -1
    outer loop
      vertex -14 8.102943727489924 -3.4
      vertex -12.965787968567087 12.325397128085173 -3.4
      vertex -13.096162151133022 9.006781576356902 -3.4
    endloop
  endfacet
  facet normal -1 0 0
    outer loop
      vertex -14 -6.123044742274933 1.999999998509884
      vertex -14 6.123044742274933 1.999999998509884
      vertex -14 6.123044742274933 -2.000000001490116
    endloop
  endfacet
  facet normal 0.8192319193720263 0 -0.5734623460019198
    outer loop
      vertex -13.200000002980232 -6.923044739294701 0.999999998509884
      vertex -13.200000002980232 6.923044739294701 0.999999998509884
      vertex -12.5 7.623044742274933 1.999999998509884
    endloop
  endfacet
  facet normal 1 0 0
    outer loop
      vertex -12.5 -7.623044742274933 1.999999998509884
      vertex -12.5 7.623044742274933 1.999999998509884
      vertex -12.5 9.037258304648027 2.999999998509884
    endloop
  endfacet
  facet normal -1 0 0
    outer loop
      vertex -14 -8.102943727489924 3.399999997019768
      vertex -14 8.102943727489924 3.399999997019768
      vertex -14 6.123044742274933 1.999999998509884
    endloop
  endfacet
  facet normal 0 0 1
    outer loop
      vertex -13.035340831228476 -10.554960626375408 3.399999997019768
      vertex -13.777087219648928 8.325856507840996 3.399999997019768
      vertex -14 8.102943727489924 3.399999997019768
    endloop
  endfacet
  facet normal 0 0 1
    outer loop
      vertex -12.899999998509884 -9.20294372898004 3.399999997019768
      vertex -12.899999998509884 9.20294372898004 3.399999997019768
      vertex -13.777087219648928 8.325856507840996 3.399999997019768
    endloop
  endfacet
  facet normal 0.7071067811865476 0 0.7071067811865476
    outer loop
      vertex -12.5 -9.037258304648027 2.999999998509884
      vertex -12.5 9.037258304648027 2.999999998509884
      vertex -12.899999998509884 9.20294372898004 3.399999997019768
    endloop
  endfacet
  facet normal 0 0 1
    outer loop
      vertex -13.777087219648928 8.325856507840996 3.399999997019768
      vertex -12.899999998509884 9.20294372898004 3.399999997019768
      vertex -13.829571137787326 9.661810785917767 3.399999997019768
    endloop
  endfacet
  facet normal 0 0 1
    outer loop
      vertex -13.829571137787326 9.661810785917767 3.399999997019768
      vertex -12.899999998509884 9.20294372898004 3.399999997019768
      vertex -12.899999998509884 11.70365023668062 3.399999997019768
    endloop
  endfacet
  facet normal 0 0 -1
    outer loop
      vertex 12.965787968567087 -12.325397128085173 -3.4
      vertex 13.096162151133022 -9.006781576356902 -3.4
      vertex 14 -8.102943727489924 -3.4
    endloop
  endfacet
  facet normal 0 0 -1
    outer loop
      vertex 12.899999998509884 -9.20294372898004 -3.4
      vertex 12.899999998509884 9.20294372898004 -3.4
      vertex 13.096162151133022 -9.006781576356902 -3.4
    endloop
  endfacet
  facet normal -0.7071067811865475 0 -0.7071067811865475
    outer loop
      vertex 12.899999998509884 -9.20294372898004 -3.4
      vertex 12.5 -9.037258304648027 -3.000000001490116
      vertex 12.899999998509884 9.20294372898004 -3.4
    endloop
  endfacet
  facet normal 0 0 -1
    outer loop
      vertex 13.096162151133022 -9.006781576356902 -3.4
      vertex 13.777087219648926 8.325856507840998 -3.4
      vertex 14 -8.102943727489924 -3.4
    endloop
  endfacet
  facet normal -1 0 0
    outer loop
      vertex 12.5 -9.037258304648027 -3.000000001490116
      vertex 12.5 -7.623044742274933 -2.000000001490116
      vertex 12.5 9.037258304648027 -3.000000001490116
    endloop
  endfacet
  facet normal 1 0 0
    outer loop
      vertex 14 -8.102943727489924 -3.4
      vertex 14 8.102943727489924 -3.4
      vertex 14 -6.123044742274933 -2.000000001490116
    endloop
  endfacet
  facet normal -0.8192319193720264 0 0.5734623460019198
    outer loop
      vertex 12.5 -7.623044742274933 -2.000000001490116
      vertex 13.200000002980232 -6.923044739294701 -1.000000001490116
      vertex 12.5 7.623044742274933 -2.000000001490116
    endloop
  endfacet
  facet normal -1 0 0
    outer loop
      vertex 13.200000002980232 -6.923044739294701 -1.000000001490116
      vertex 13.200000002980232 -6.923044739294701 0.999999998509884
      vertex 13.200000002980232 6.923044739294701 -1.000000001490116
    endloop
  endfacet
  facet normal 0 0 1
    outer loop
      vertex 12.899999998509884 -11.70365023668062 3.399999997019768
      vertex 13.829571137787326 -9.661810785917767 3.399999997019768
      vertex 12.899999998509884 -9.20294372898004 3.399999997019768
    endloop
  endfacet
  facet normal 0 0 1
    outer loop
      vertex 12.899999998509884 -9.20294372898004 3.399999997019768
      vertex 13.829571137787326 -9.661810785917767 3.399999997019768
      vertex 13.777087219648928 -8.325856507840996 3.399999997019768
    endloop
  endfacet
  facet normal 1 0 0
    outer loop
      vertex 14 -6.123044742274933 -2.000000001490116
      vertex 14 6.123044742274933 1.999999998509884
      vertex 14 -6.123044742274933 1.999999998509884
    endloop
  endfacet
  facet normal -0.8192319193720263 0 -0.5734623460019198
    outer loop
      vertex 13.200000002980232 -6.923044739294701 0.999999998509884
      vertex 12.5 -7.623044742274933 1.999999998509884
      vertex 13.200000002980232 6.923044739294701 0.999999998509884
    endloop
  endfacet
  facet normal -1 0 0
    outer loop
      vertex 12.5 -9.037258304648027 2.999999998509884
      vertex 12.5 7.623044742274933 1.999999998509884
      vertex 12.5 -7.623044742274933 1.999999998509884
    endloop
  endfacet
  facet normal 1 0 0
    outer loop
      vertex 14 -6.123044742274933 1.999999998509884
      vertex 14 8.102943727489924 3.399999997019768
      vertex 14 -8.102943727489924 3.399999997019768
    endloop
  endfacet
  facet normal -0.7071067811865476 0 0.7071067811865476
    outer loop
      vertex 12.5 -9.037258304648027 2.999999998509884
      vertex 12.899999998509884 -9.20294372898004 3.399999997019768
      vertex 12.5 9.037258304648027 2.999999998509884
    endloop
  endfacet
  facet normal 0 0 1
    outer loop
      vertex 12.899999998509884 -9.20294372898004 3.399999997019768
      vertex 13.777087219648928 -8.325856507840996 3.399999997019768
      vertex 12.899999998509884 9.20294372898004 3.399999997019768
    endloop
  endfacet
  facet normal 0 0 1
    outer loop
      vertex 13.777087219648928 -8.325856507840996 3.399999997019768
      vertex 14 -8.102943727489924 3.399999997019768
      vertex 13.035340831228476 10.554960626375408 3.399999997019768
    endloop
  endfacet
  facet normal -0.7071067811865476 0 -0.7071067811865476
    outer loop
      vertex 12.5 -9.037258304648027 -3.000000001490116
      vertex 12.5 9.037258304648027 -3.000000001490116
      vertex 12.899999998509884 9.20294372898004 -3.4
    endloop
  endfacet
  facet normal 0 0 -1
    outer loop
      vertex 14 -8.102943727489924 -3.4
      vertex 13.777087219648926 8.325856507840998 -3.4
      vertex 14 8.102943727489924 -3.4
    endloop
  endfacet
  facet normal -1 0 0
    outer loop
      vertex 12.5 -7.623044742274933 -2.000000001490116
      vertex 12.5 7.623044742274933 -2.000000001490116
      vertex 12.5 9.037258304648027 -3.000000001490116
    endloop
  endfacet
  facet normal 1 0 0
    outer loop
      vertex 14 -6.123044742274933 -2.000000001490116
      vertex 14 8.102943727489924 -3.4
      vertex 14 6.123044742274933 -2.000000001490116
    endloop
  endfacet
  facet normal 0 0 -1
    outer loop
      vertex 13.096162151133022 -9.006781576356902 -3.4
      vertex 12.899999998509884 9.20294372898004 -3.4
      vertex 12.919952994340365 11.659822699092427 -3.4
    endloop
  endfacet
  facet normal 0 0 -1
    outer loop
      vertex 13.096162151133022 -9.006781576356902 -3.4
      vertex 12.919952994340365 11.659822699092427 -3.4
      vertex 13.777087219648926 8.325856507840998 -3.4
    endloop
  endfacet
  facet normal -0.8192319193720263 0 0.5734623460019198
    outer loop
      vertex 13.200000002980232 -6.923044739294701 -1.000000001490116
      vertex 13.200000002980232 6.923044739294701 -1.000000001490116
      vertex 12.5 7.623044742274933 -2.000000001490116
    endloop
  endfacet
  facet normal 1 0 0
    outer loop
      vertex 14 -6.123044742274933 -2.000000001490116
      vertex 14 6.123044742274933 -2.000000001490116
      vertex 14 6.123044742274933 1.999999998509884
    endloop
  endfacet
  facet normal 0 0 -1
    outer loop
      vertex 13.777087219648926 8.325856507840998 -3.4
      vertex 12.919952994340365 11.659822699092427 -3.4
      vertex 13.829571137787326 9.661810785917769 -3.4
    endloop
  endfacet
  facet normal -1 0 0
    outer loop
      vertex 13.200000002980232 -6.923044739294701 0.999999998509884
      vertex 13.200000002980232 6.923044739294701 0.999999998509884
      vertex 13.200000002980232 6.923044739294701 -1.000000001490116
    endloop
  endfacet
  facet normal -0.8192319193720264 0 -0.5734623460019198
    outer loop
      vertex 12.5 -7.623044742274933 1.999999998509884
      vertex 12.5 7.623044742274933 1.999999998509884
      vertex 13.200000002980232 6.923044739294701 0.999999998509884
    endloop
  endfacet
  facet normal 1 0 0
    outer loop
      vertex 14 -6.123044742274933 1.999999998509884
      vertex 14 6.123044742274933 1.999999998509884
      vertex 14 8.102943727489924 3.399999997019768
    endloop
  endfacet
  facet normal -1 0 0
    outer loop
      vertex 12.5 -9.037258304648027 2.999999998509884
      vertex 12.5 9.037258304648027 2.999999998509884
      vertex 12.5 7.623044742274933 1.999999998509884
    endloop
  endfacet
  facet normal -0.7071067811865475 0 0.7071067811865475
    outer loop
      vertex 12.899999998509884 -9.20294372898004 3.399999997019768
      vertex 12.899999998509884 9.20294372898004 3.399999997019768
      vertex 12.5 9.037258304648027 2.999999998509884
    endloop
  endfacet
  facet normal 0 0 1
    outer loop
      vertex 13.777087219648928 -8.325856507840996 3.399999997019768
      vertex 13.035340831228476 10.554960626375408 3.399999997019768
      vertex 12.899999998509884 9.20294372898004 3.399999997019768
    endloop
  endfacet
  facet normal 0 0 1
    outer loop
      vertex 14 -8.102943727489924 3.399999997019768
      vertex 14 8.102943727489924 3.399999997019768
      vertex 12.965787968567087 12.325397128085172 3.399999997019768
    endloop
  endfacet
  facet normal 0 0 1
    outer loop
      vertex 14 -8.102943727489924 3.399999997019768
      vertex 12.965787968567087 12.325397128085172 3.399999997019768
      vertex 13.035340831228476 10.554960626375408 3.399999997019768
    endloop
  endfacet
  facet normal 0 0 1
    outer loop
      vertex 14 8.102943727489924 3.399999997019768
      vertex 14 11.854560081639454 3.399999997019768
      vertex 12.965787968567087 12.325397128085172 3.399999997019768
    endloop
  endfacet
  facet normal 0 0 -1
    outer loop
      vertex -12.668482531892167 12.899999998509884 -3.4
      vertex -12.137196117323294 13.926818418795708 -3.4
      vertex -8.325856507840996 13.777087219648926 -3.4
    endloop
  endfacet
  facet normal 0 0 -1
    outer loop
      vertex -12.668482531892167 12.899999998509884 -3.4
      vertex 9.006781576356902 13.096162151133022 -3.4
      vertex -11.703650236680621 12.899999998509884 -3.4
    endloop
  endfacet
  facet normal 0 0 -1
    outer loop
      vertex -11.703650236680621 12.899999998509884 -3.4
      vertex 9.006781576356902 13.096162151133022 -3.4
      vertex -9.20294372898004 12.899999998509884 -3.4
    endloop
  endfacet
  facet normal 0 0 -1
    outer loop
      vertex -12.668482531892167 12.899999998509884 -3.4
      vertex -8.325856507840996 13.777087219648926 -3.4
      vertex 9.006781576356902 13.096162151133022 -3.4
    endloop
  endfacet
  facet normal 0 -0.7071067811865475 -0.7071067811865475
    outer loop
      vertex -9.20294372898004 12.899999998509884 -3.4
      vertex 9.037258304648027 12.5 -3.000000001490116
      vertex -9.037258304648027 12.5 -3.000000001490116
    endloop
  endfacet
  facet normal 0 0 -1
    outer loop
      vertex -8.325856507840996 13.777087219648926 -3.4
      vertex -8.102943727489924 14 -3.4
      vertex 8.102943727489924 14 -3.4
    endloop
  endfacet
  facet normal 0 -1 0
    outer loop
      vertex -9.037258304648027 12.5 -3.000000001490116
      vertex 7.623044742274933 12.5 -2.000000001490116
      vertex -7.623044742274933 12.5 -2.000000001490116
    endloop
  endfacet
  facet normal 0 1 0
    outer loop
      vertex -8.102943727489924 14 -3.4
      vertex -6.123044742274933 14 -2.000000001490116
      vertex 6.123044742274933 14 -2.000000001490116
    endloop
  endfacet
  facet normal 0 -0.8192319193720263 0.5734623460019198
    outer loop
      vertex -7.623044742274933 12.5 -2.000000001490116
      vertex 6.923044739294701 13.200000002980232 -1.000000001490116
      vertex -6.923044739294701 13.200000002980232 -1.000000001490116
    endloop
  endfacet
  facet normal 0 -1 0
    outer loop
      vertex -6.923044739294701 13.200000002980232 -1.000000001490116
      vertex 6.923044739294701 13.200000002980232 -1.000000001490116
      vertex -6.923044739294701 13.200000002980232 0.999999998509884
    endloop
  endfacet
  facet normal 0 1 0
    outer loop
      vertex -6.123044742274933 14 -2.000000001490116
      vertex -6.123044742274933 14 1.999999998509884
      vertex 6.123044742274933 14 1.999999998509884
    endloop
  endfacet
  facet normal 0 -0.8192319193720263 -0.5734623460019198
    outer loop
      vertex -6.923044739294701 13.200000002980232 0.999999998509884
      vertex 6.923044739294701 13.200000002980232 0.999999998509884
      vertex -7.623044742274933 12.5 1.999999998509884
    endloop
  endfacet
  facet normal 0 -1 0
    outer loop
      vertex -9.037258304648027 12.5 2.999999998509884
      vertex -7.623044742274933 12.5 1.999999998509884
      vertex 7.623044742274933 12.5 1.999999998509884
    endloop
  endfacet
  facet normal 0 1 0
    outer loop
      vertex -6.123044742274933 14 1.999999998509884
      vertex -8.102943727489924 14 3.399999997019768
      vertex 6.123044742274933 14 1.999999998509884
    endloop
  endfacet
  facet normal 0 -0.7071067811865476 0.7071067811865476
    outer loop
      vertex -9.037258304648027 12.5 2.999999998509884
      vertex 9.037258304648027 12.5 2.999999998509884
      vertex -9.20294372898004 12.899999998509884 3.399999997019768
    endloop
  endfacet
  facet normal 0 0 1
    outer loop
      vertex -9.20294372898004 12.899999998509884 3.399999997019768
      vertex 8.325856507840996 13.777087219648928 3.399999997019768
      vertex -9.006781576356902 13.096162151133022 3.399999997019768
    endloop
  endfacet
  facet normal 0 0 1
    outer loop
      vertex -9.006781576356902 13.096162151133022 3.399999997019768
      vertex 8.102943727489924 14 3.399999997019768
      vertex -8.102943727489924 14 3.399999997019768
    endloop
  endfacet
  facet normal 0 0 -1
    outer loop
      vertex -9.20294372898004 12.899999998509884 -3.4
      vertex 9.006781576356902 13.096162151133022 -3.4
      vertex 9.20294372898004 12.899999998509884 -3.4
    endloop
  endfacet
  facet normal 0 -0.7071067811865475 -0.7071067811865475
    outer loop
      vertex -9.20294372898004 12.899999998509884 -3.4
      vertex 9.20294372898004 12.899999998509884 -3.4
      vertex 9.037258304648027 12.5 -3.000000001490116
    endloop
  endfacet
  facet normal 0 0 -1
    outer loop
      vertex -8.325856507840996 13.777087219648926 -3.4
      vertex 8.102943727489924 14 -3.4
      vertex 9.006781576356902 13.096162151133022 -3.4
    endloop
  endfacet
  facet normal 0 -1 0
    outer loop
      vertex -9.037258304648027 12.5 -3.000000001490116
      vertex 9.037258304648027 12.5 -3.000000001490116
      vertex 7.623044742274933 12.5 -2.000000001490116
    endloop
  endfacet
  facet normal 0 1 0
    outer loop
      vertex -8.102943727489924 14 -3.4
      vertex 6.123044742274933 14 -2.000000001490116
      vertex 8.102943727489924 14 -3.4
    endloop
  endfacet
  facet normal 0 -0.8192319193720264 0.5734623460019198
    outer loop
      vertex -7.623044742274933 12.5 -2.000000001490116
      vertex 7.623044742274933 12.5 -2.000000001490116
      vertex 6.923044739294701 13.200000002980232 -1.000000001490116
    endloop
  endfacet
  facet normal 0 1 0
    outer loop
      vertex -6.123044742274933 14 -2.000000001490116
      vertex 6.123044742274933 14 1.999999998509884
      vertex 6.123044742274933 14 -2.000000001490116
    endloop
  endfacet
  facet normal 0 0 -1
    outer loop
      vertex 8.102943727489924 14 -3.4
      vertex 12.325397128085173 12.965787968567087 -3.4
      vertex 9.006781576356902 13.096162151133022 -3.4
    endloop
  endfacet
  facet normal 0 -1 0
    outer loop
      vertex -6.923044739294701 13.200000002980232 0.999999998509884
      vertex 6.923044739294701 13.200000002980232 -1.000000001490116
      vertex 6.923044739294701 13.200000002980232 0.999999998509884
    endloop
  endfacet
  facet normal 0 -0.8192319193720264 -0.5734623460019198
    outer loop
      vertex -7.623044742274933 12.5 1.999999998509884
      vertex 6.923044739294701 13.200000002980232 0.999999998509884
      vertex 7.623044742274933 12.5 1.999999998509884
    endloop
  endfacet
  facet normal 0 -1 0
    outer loop
      vertex -9.037258304648027 12.5 2.999999998509884
      vertex 7.623044742274933 12.5 1.999999998509884
      vertex 9.037258304648027 12.5 2.999999998509884
    endloop
  endfacet
  facet normal 0 1 0
    outer loop
      vertex -8.102943727489924 14 3.399999997019768
      vertex 8.102943727489924 14 3.399999997019768
      vertex 6.123044742274933 14 1.999999998509884
    endloop
  endfacet
  facet normal 0 0 1
    outer loop
      vertex -9.006781576356902 13.096162151133022 3.399999997019768
      vertex 8.325856507840996 13.777087219648928 3.399999997019768
      vertex 8.102943727489924 14 3.399999997019768
    endloop
  endfacet
  facet normal 0 -0.7071067811865475 0.7071067811865475
    outer loop
      vertex -9.20294372898004 12.899999998509884 3.399999997019768
      vertex 9.037258304648027 12.5 2.999999998509884
      vertex 9.20294372898004 12.899999998509884 3.399999997019768
    endloop
  endfacet
  facet normal 0 0 1
    outer loop
      vertex -9.20294372898004 12.899999998509884 3.399999997019768
      vertex 9.20294372898004 12.899999998509884 3.399999997019768
      vertex 8.325856507840996 13.777087219648928 3.399999997019768
    endloop
  endfacet
  facet normal 0 0 1
    outer loop
      vertex 8.325856507840996 13.777087219648928 3.399999997019768
      vertex 9.20294372898004 12.899999998509884 3.399999997019768
      vertex 9.661810785917767 13.829571137787326 3.399999997019768
    endloop
  endfacet
  facet normal 0 0 1
    outer loop
      vertex 9.20294372898004 12.899999998509884 3.399999997019768
      vertex 11.70365023668062 12.899999998509884 3.399999997019768
      vertex 9.661810785917767 13.829571137787326 3.399999997019768
    endloop
  endfacet
  facet normal 0 0 -1
    outer loop
      vertex -12.325397128085173 -12.965787968567087 -3.4
      vertex -9.006781576356902 -13.096162151133022 -3.4
      vertex -8.102943727489924 -14 -3.4
    endloop
  endfacet
  facet normal 0 0 -1
    outer loop
      vertex -9.006781576356902 -13.096162151133022 -3.4
      vertex 8.325856507840996 -13.777087219648926 -3.4
      vertex -8.102943727489924 -14 -3.4
    endloop
  endfacet
  facet normal 0 0 -1
    outer loop
      vertex -9.20294372898004 -12.899999998509884 -3.4
      vertex 9.20294372898004 -12.899999998509884 -3.4
      vertex -9.006781576356902 -13.096162151133022 -3.4
    endloop
  endfacet
  facet normal 0 0.7071067811865475 -0.7071067811865475
    outer loop
      vertex -9.20294372898004 -12.899999998509884 -3.4
      vertex -9.037258304648027 -12.5 -3.000000001490116
      vertex 9.20294372898004 -12.899999998509884 -3.4
    endloop
  endfacet
  facet normal 0 -1 0
    outer loop
      vertex -8.102943727489924 -14 -3.4
      vertex 8.102943727489924 -14 -3.4
      vertex -6.123044742274933 -14 -2.000000001490116
    endloop
  endfacet
  facet normal 0 1 0
    outer loop
      vertex -9.037258304648027 -12.5 -3.000000001490116
      vertex -7.623044742274933 -12.5 -2.000000001490116
      vertex 9.037258304648027 -12.5 -3.000000001490116
    endloop
  endfacet
  facet normal 0 0.8192319193720264 0.5734623460019198
    outer loop
      vertex -7.623044742274933 -12.5 -2.000000001490116
      vertex -6.923044739294701 -13.200000002980232 -1.000000001490116
      vertex 7.623044742274933 -12.5 -2.000000001490116
    endloop
  endfacet
  facet normal 0 -1 0
    outer loop
      vertex -6.123044742274933 -14 -2.000000001490116
      vertex 6.123044742274933 -14 -2.000000001490116
      vertex -6.123044742274933 -14 1.999999998509884
    endloop
  endfacet
  facet normal 0 0 1
    outer loop
      vertex -9.661810785917767 -13.829571137787326 3.399999997019768
      vertex -9.20294372898004 -12.899999998509884 3.399999997019768
      vertex -11.70365023668062 -12.899999998509884 3.399999997019768
    endloop
  endfacet
  facet normal 0 0 1
    outer loop
      vertex -9.661810785917767 -13.829571137787326 3.399999997019768
      vertex -8.325856507840996 -13.777087219648928 3.399999997019768
      vertex -9.20294372898004 -12.899999998509884 3.399999997019768
    endloop
  endfacet
  facet normal 0 1 0
    outer loop
      vertex -6.923044739294701 -13.200000002980232 -1.000000001490116
      vertex -6.923044739294701 -13.200000002980232 0.999999998509884
      vertex 6.923044739294701 -13.200000002980232 0.999999998509884
    endloop
  endfacet
  facet normal 0 0.8192319193720264 -0.5734623460019198
    outer loop
      vertex -6.923044739294701 -13.200000002980232 0.999999998509884
      vertex -7.623044742274933 -12.5 1.999999998509884
      vertex 7.623044742274933 -12.5 1.999999998509884
    endloop
  endfacet
  facet normal 0 -1 0
    outer loop
      vertex -6.123044742274933 -14 1.999999998509884
      vertex 8.102943727489924 -14 3.399999997019768
      vertex -8.102943727489924 -14 3.399999997019768
    endloop
  endfacet
  facet normal 0 1 0
    outer loop
      vertex -9.037258304648027 -12.5 2.999999998509884
      vertex 9.037258304648027 -12.5 2.999999998509884
      vertex -7.623044742274933 -12.5 1.999999998509884
    endloop
  endfacet
  facet normal 0 0 1
    outer loop
      vertex -9.20294372898004 -12.899999998509884 3.399999997019768
      vertex -8.325856507840996 -13.777087219648928 3.399999997019768
      vertex 9.20294372898004 -12.899999998509884 3.399999997019768
    endloop
  endfacet
  facet normal 0 0.7071067811865475 0.7071067811865475
    outer loop
      vertex -9.037258304648027 -12.5 2.999999998509884
      vertex -9.20294372898004 -12.899999998509884 3.399999997019768
      vertex 9.20294372898004 -12.899999998509884 3.399999997019768
    endloop
  endfacet
  facet normal 0 0 1
    outer loop
      vertex -8.325856507840996 -13.777087219648928 3.399999997019768
      vertex -8.102943727489924 -14 3.399999997019768
      vertex 9.006781576356902 -13.096162151133022 3.399999997019768
    endloop
  endfacet
  facet normal 0 0 -1
    outer loop
      vertex -8.102943727489924 -14 -3.4
      vertex 8.325856507840996 -13.777087219648926 -3.4
      vertex 8.102943727489924 -14 -3.4
    endloop
  endfacet
  facet normal 0 0.7071067811865476 -0.7071067811865476
    outer loop
      vertex -9.037258304648027 -12.5 -3.000000001490116
      vertex 9.037258304648027 -12.5 -3.000000001490116
      vertex 9.20294372898004 -12.899999998509884 -3.4
    endloop
  endfacet
  facet normal 0 -1 0
    outer loop
      vertex -6.123044742274933 -14 -2.000000001490116
      vertex 8.102943727489924 -14 -3.4
      vertex 6.123044742274933 -14 -2.000000001490116
    endloop
  endfacet
  facet normal 0 1 0
    outer loop
      vertex -7.623044742274933 -12.5 -2.000000001490116
      vertex 7.623044742274933 -12.5 -2.000000001490116
      vertex 9.037258304648027 -12.5 -3.000000001490116
    endloop
  endfacet
  facet normal 0 0 -1
    outer loop
      vertex -9.006781576356902 -13.096162151133022 -3.4
      vertex 12.668482531892167 -12.899999998509884 -3.4
      vertex 8.325856507840996 -13.777087219648926 -3.4
    endloop
  endfacet
  facet normal 0 0 -1
    outer loop
      vertex -9.006781576356902 -13.096162151133022 -3.4
      vertex 9.20294372898004 -12.899999998509884 -3.4
      vertex 11.703650236680621 -12.899999998509884 -3.4
    endloop
  endfacet
  facet normal 0 0 -1
    outer loop
      vertex -9.006781576356902 -13.096162151133022 -3.4
      vertex 11.703650236680621 -12.899999998509884 -3.4
      vertex 12.668482531892167 -12.899999998509884 -3.4
    endloop
  endfacet
  facet normal 0 0.8192319193720263 0.5734623460019198
    outer loop
      vertex -6.923044739294701 -13.200000002980232 -1.000000001490116
      vertex 6.923044739294701 -13.200000002980232 -1.000000001490116
      vertex 7.623044742274933 -12.5 -2.000000001490116
    endloop
  endfacet
  facet normal 0 1 0
    outer loop
      vertex -6.923044739294701 -13.200000002980232 -1.000000001490116
      vertex 6.923044739294701 -13.200000002980232 0.999999998509884
      vertex 6.923044739294701 -13.200000002980232 -1.000000001490116
    endloop
  endfacet
  facet normal 0 0 -1
    outer loop
      vertex 8.325856507840996 -13.777087219648926 -3.4
      vertex 12.668482531892167 -12.899999998509884 -3.4
      vertex 12.137196117323294 -13.926818418795708 -3.4
    endloop
  endfacet
  facet normal 0 -1 0
    outer loop
      vertex -6.123044742274933 -14 1.999999998509884
      vertex 6.123044742274933 -14 -2.000000001490116
      vertex 6.123044742274933 -14 1.999999998509884
    endloop
  endfacet
  facet normal 0 0.8192319193720263 -0.5734623460019198
    outer loop
      vertex -6.923044739294701 -13.200000002980232 0.999999998509884
      vertex 7.623044742274933 -12.5 1.999999998509884
      vertex 6.923044739294701 -13.200000002980232 0.999999998509884
    endloop
  endfacet
  facet normal 0 -1 0
    outer loop
      vertex -6.123044742274933 -14 1.999999998509884
      vertex 6.123044742274933 -14 1.999999998509884
      vertex 8.102943727489924 -14 3.399999997019768
    endloop
  endfacet
  facet normal 0 1 0
    outer loop
      vertex -7.623044742274933 -12.5 1.999999998509884
      vertex 9.037258304648027 -12.5 2.999999998509884
      vertex 7.623044742274933 -12.5 1.999999998509884
    endloop
  endfacet
  facet normal 0 0 1
    outer loop
      vertex -8.102943727489924 -14 3.399999997019768
      vertex 8.102943727489924 -14 3.399999997019768
      vertex 9.006781576356902 -13.096162151133022 3.399999997019768
    endloop
  endfacet
  facet normal 0 0 1
    outer loop
      vertex -8.325856507840996 -13.777087219648928 3.399999997019768
      vertex 9.006781576356902 -13.096162151133022 3.399999997019768
      vertex 9.20294372898004 -12.899999998509884 3.399999997019768
    endloop
  endfacet
  facet normal 0 0.7071067811865476 0.7071067811865476
    outer loop
      vertex -9.037258304648027 -12.5 2.999999998509884
      vertex 9.20294372898004 -12.899999998509884 3.399999997019768
      vertex 9.037258304648027 -12.5 2.999999998509884
    endloop
  endfacet
  facet normal 0 0 -1
    outer loop
      vertex -13.096162151133022 9.006781576356902 -3.4
      vertex -12.965787968567087 12.325397128085173 -3.4
      vertex -12.899999998509884 9.20294372898004 -3.4
    endloop
  endfacet
  facet normal 0.4999999999999995 -0.4999999999999995 -0.7071067811865483
    outer loop
      vertex -12.899999998509884 9.20294372898004 -3.4
      vertex -9.20294372898004 12.899999998509884 -3.4
      vertex -12.5 9.037258304648027 -3.000000001490116
    endloop
  endfacet
  facet normal 0.5000000000000002 -0.5000000000000002 -0.7071067811865474
    outer loop
      vertex -12.5 7.623044742274933 -2.000000001490116
      vertex -12.5 9.037258304648027 -3.000000001490116
      vertex -7.623044742274933 12.5 -2.000000001490116
    endloop
  endfacet
  facet normal 0 0 -1
    outer loop
      vertex -14 8.102943727489924 -3.4
      vertex -14 14 -3.4
      vertex -12.965787968567087 12.325397128085173 -3.4
    endloop
  endfacet
  facet normal 0 0 -1
    outer loop
      vertex -12.899999998509884 9.20294372898004 -3.4
      vertex -12.965787968567087 12.325397128085173 -3.4
      vertex -11.703650236680621 12.899999998509884 -3.4
    endloop
  endfacet
  facet normal 0 0 -1
    outer loop
      vertex -12.965787968567087 12.325397128085173 -3.4
      vertex -14 14 -3.4
      vertex -12.668482531892167 12.899999998509884 -3.4
    endloop
  endfacet
  facet normal 0 0 -1
    outer loop
      vertex -12.965787968567087 12.325397128085173 -3.4
      vertex -12.668482531892167 12.899999998509884 -3.4
      vertex -11.703650236680621 12.899999998509884 -3.4
    endloop
  endfacet
  facet normal 0 0 -1
    outer loop
      vertex -12.668482531892167 12.899999998509884 -3.4
      vertex -14 14 -3.4
      vertex -12.137196117323294 13.926818418795708 -3.4
    endloop
  endfacet
  facet normal 0 0 -1
    outer loop
      vertex -12.899999998509884 9.20294372898004 -3.4
      vertex -11.703650236680621 12.899999998509884 -3.4
      vertex -9.20294372898004 12.899999998509884 -3.4
    endloop
  endfacet
  facet normal 0 0 -1
    outer loop
      vertex -12.137196117323294 13.926818418795708 -3.4
      vertex -14 14 -3.4
      vertex -8.102943727489924 14 -3.4
    endloop
  endfacet
  facet normal 0.4999999999999995 -0.4999999999999995 -0.7071067811865481
    outer loop
      vertex -12.5 9.037258304648027 -3.000000001490116
      vertex -9.20294372898004 12.899999998509884 -3.4
      vertex -9.037258304648027 12.5 -3.000000001490116
    endloop
  endfacet
  facet normal 0.5000000000000002 -0.5000000000000002 -0.7071067811865472
    outer loop
      vertex -12.5 9.037258304648027 -3.000000001490116
      vertex -9.037258304648027 12.5 -3.000000001490116
      vertex -7.623044742274933 12.5 -2.000000001490116
    endloop
  endfacet
  facet normal 0 0 -1
    outer loop
      vertex -12.137196117323294 13.926818418795708 -3.4
      vertex -8.102943727489924 14 -3.4
      vertex -8.325856507840996 13.777087219648926 -3.4
    endloop
  endfacet
  facet normal 0.7071067811865475 -0.7071067811865475 0
    outer loop
      vertex -12.5 7.623044742274933 -2.000000001490116
      vertex -7.623044742274933 12.5 1.999999998509884
      vertex -13.200000002980232 6.923044739294701 -1.000000001490116
    endloop
  endfacet
  facet normal 0.7071067811865476 -0.7071067811865476 0
    outer loop
      vertex -12.5 7.623044742274933 -2.000000001490116
      vertex -7.623044742274933 12.5 -2.000000001490116
      vertex -6.923044739294701 13.200000002980232 -1.000000001490116
    endloop
  endfacet
  facet normal 0.7071067811865476 -0.7071067811865476 0
    outer loop
      vertex -12.5 7.623044742274933 -2.000000001490116
      vertex -6.923044739294701 13.200000002980232 -1.000000001490116
      vertex -6.923044739294701 13.200000002980232 0.999999998509884
    endloop
  endfacet
  facet normal 0.7071067811865475 -0.7071067811865475 0
    outer loop
      vertex -13.200000002980232 6.923044739294701 -1.000000001490116
      vertex -7.623044742274933 12.5 1.999999998509884
      vertex -13.200000002980232 6.923044739294701 0.999999998509884
    endloop
  endfacet
  facet normal 0.7071067811865476 -0.7071067811865476 0
    outer loop
      vertex -13.200000002980232 6.923044739294701 0.999999998509884
      vertex -7.623044742274933 12.5 1.999999998509884
      vertex -12.5 7.623044742274933 1.999999998509884
    endloop
  endfacet
  facet normal 0.7071067811865475 -0.7071067811865475 0
    outer loop
      vertex -12.5 7.623044742274933 -2.000000001490116
      vertex -6.923044739294701 13.200000002980232 0.999999998509884
      vertex -7.623044742274933 12.5 1.999999998509884
    endloop
  endfacet
  facet normal 0.5000000000000002 -0.5000000000000002 0.7071067811865474
    outer loop
      vertex -12.5 7.623044742274933 1.999999998509884
      vertex -7.623044742274933 12.5 1.999999998509884
      vertex -12.5 9.037258304648027 2.999999998509884
    endloop
  endfacet
  facet normal 0 0 1
    outer loop
      vertex -14 8.102943727489924 3.399999997019768
      vertex -13.777087219648928 8.325856507840996 3.399999997019768
      vertex -13.829571137787326 9.661810785917767 3.399999997019768
    endloop
  endfacet
  facet normal 0.4999999999999995 -0.4999999999999994 0.7071067811865482
    outer loop
      vertex -12.5 9.037258304648027 2.999999998509884
      vertex -9.20294372898004 12.899999998509884 3.399999997019768
      vertex -12.899999998509884 9.20294372898004 3.399999997019768
    endloop
  endfacet
  facet normal 0 0 1
    outer loop
      vertex -13.829571137787326 9.661810785917767 3.399999997019768
      vertex -14 14 3.399999997019768
      vertex -14 8.102943727489924 3.399999997019768
    endloop
  endfacet
  facet normal 0 0 1
    outer loop
      vertex -13.829571137787326 9.661810785917767 3.399999997019768
      vertex -12.899999998509884 11.70365023668062 3.399999997019768
      vertex -14 14 3.399999997019768
    endloop
  endfacet
  facet normal 0 0 1
    outer loop
      vertex -12.899999998509884 9.20294372898004 3.399999997019768
      vertex -9.20294372898004 12.899999998509884 3.399999997019768
      vertex -12.899999998509884 11.70365023668062 3.399999997019768
    endloop
  endfacet
  facet normal 0 0 1
    outer loop
      vertex -12.899999998509884 11.70365023668062 3.399999997019768
      vertex -8.102943727489924 14 3.399999997019768
      vertex -14 14 3.399999997019768
    endloop
  endfacet
  facet normal 0.5000000000000002 -0.5000000000000002 0.7071067811865472
    outer loop
      vertex -12.5 9.037258304648027 2.999999998509884
      vertex -7.623044742274933 12.5 1.999999998509884
      vertex -9.037258304648027 12.5 2.999999998509884
    endloop
  endfacet
  facet normal 0.4999999999999995 -0.4999999999999995 0.7071067811865481
    outer loop
      vertex -12.5 9.037258304648027 2.999999998509884
      vertex -9.037258304648027 12.5 2.999999998509884
      vertex -9.20294372898004 12.899999998509884 3.399999997019768
    endloop
  endfacet
  facet normal 0 0 1
    outer loop
      vertex -12.899999998509884 11.70365023668062 3.399999997019768
      vertex -9.20294372898004 12.899999998509884 3.399999997019768
      vertex -9.006781576356902 13.096162151133022 3.399999997019768
    endloop
  endfacet
  facet normal 0 0 1
    outer loop
      vertex -12.899999998509884 11.70365023668062 3.399999997019768
      vertex -9.006781576356902 13.096162151133022 3.399999997019768
      vertex -8.102943727489924 14 3.399999997019768
    endloop
  endfacet
  facet normal 0 0 -1
    outer loop
      vertex 8.102943727489924 -14 -3.4
      vertex 8.325856507840996 -13.777087219648926 -3.4
      vertex 12.137196117323294 -13.926818418795708 -3.4
    endloop
  endfacet
  facet normal -0.4999999999999995 0.49999999999999944 -0.7071067811865482
    outer loop
      vertex 9.20294372898004 -12.899999998509884 -3.4
      vertex 9.037258304648027 -12.5 -3.000000001490116
      vertex 12.5 -9.037258304648027 -3.000000001490116
    endloop
  endfacet
  facet normal -0.5000000000000001 0.5000000000000001 -0.7071067811865472
    outer loop
      vertex 7.623044742274933 -12.5 -2.000000001490116
      vertex 12.5 -9.037258304648027 -3.000000001490116
      vertex 9.037258304648027 -12.5 -3.000000001490116
    endloop
  endfacet
  facet normal 0 0 -1
    outer loop
      vertex 12.137196117323294 -13.926818418795708 -3.4
      vertex 14 -14 -3.4
      vertex 8.102943727489924 -14 -3.4
    endloop
  endfacet
  facet normal 0 0 -1
    outer loop
      vertex 9.20294372898004 -12.899999998509884 -3.4
      vertex 12.899999998509884 -9.20294372898004 -3.4
      vertex 11.703650236680621 -12.899999998509884 -3.4
    endloop
  endfacet
  facet normal 0 0 -1
    outer loop
      vertex 12.137196117323294 -13.926818418795708 -3.4
      vertex 12.668482531892167 -12.899999998509884 -3.4
      vertex 14 -14 -3.4
    endloop
  endfacet
  facet normal 0 0 -1
    outer loop
      vertex 11.703650236680621 -12.899999998509884 -3.4
      vertex 12.965787968567087 -12.325397128085173 -3.4
      vertex 12.668482531892167 -12.899999998509884 -3.4
    endloop
  endfacet
  facet normal 0 0 -1
    outer loop
      vertex 12.668482531892167 -12.899999998509884 -3.4
      vertex 12.965787968567087 -12.325397128085173 -3.4
      vertex 14 -14 -3.4
    endloop
  endfacet
  facet normal 0 0 -1
    outer loop
      vertex 11.703650236680621 -12.899999998509884 -3.4
      vertex 12.899999998509884 -9.20294372898004 -3.4
      vertex 12.965787968567087 -12.325397128085173 -3.4
    endloop
  endfacet
  facet normal 0 0 -1
    outer loop
      vertex 12.965787968567087 -12.325397128085173 -3.4
      vertex 14 -8.102943727489924 -3.4
      vertex 14 -14 -3.4
    endloop
  endfacet
  facet normal -0.4999999999999995 0.4999999999999995 -0.7071067811865482
    outer loop
      vertex 9.20294372898004 -12.899999998509884 -3.4
      vertex 12.5 -9.037258304648027 -3.000000001490116
      vertex 12.899999998509884 -9.20294372898004 -3.4
    endloop
  endfacet
  facet normal 0 0 -1
    outer loop
      vertex 12.965787968567087 -12.325397128085173 -3.4
      vertex 12.899999998509884 -9.20294372898004 -3.4
      vertex 13.096162151133022 -9.006781576356902 -3.4
    endloop
  endfacet
  facet normal -0.5000000000000001 0.5000000000000001 -0.7071067811865474
    outer loop
      vertex 7.623044742274933 -12.5 -2.000000001490116
      vertex 12.5 -7.623044742274933 -2.000000001490116
      vertex 12.5 -9.037258304648027 -3.000000001490116
    endloop
  endfacet
  facet normal -0.7071067811865476 0.7071067811865476 0
    outer loop
      vertex 7.623044742274933 -12.5 -2.000000001490116
      vertex 6.923044739294701 -13.200000002980232 -1.000000001490116
      vertex 12.5 -7.623044742274933 -2.000000001490116
    endloop
  endfacet
  facet normal -0.7071067811865475 0.7071067811865475 0
    outer loop
      vertex 6.923044739294701 -13.200000002980232 -1.000000001490116
      vertex 6.923044739294701 -13.200000002980232 0.999999998509884
      vertex 12.5 -7.623044742274933 -2.000000001490116
    endloop
  endfacet
  facet normal -0.7071067811865475 0.7071067811865475 0
    outer loop
      vertex 12.5 -7.623044742274933 -2.000000001490116
      vertex 7.623044742274933 -12.5 1.999999998509884
      vertex 13.200000002980232 -6.923044739294701 -1.000000001490116
    endloop
  endfacet
  facet normal -0.7071067811865475 0.7071067811865475 0
    outer loop
      vertex 12.5 -7.623044742274933 -2.000000001490116
      vertex 6.923044739294701 -13.200000002980232 0.999999998509884
      vertex 7.623044742274933 -12.5 1.999999998509884
    endloop
  endfacet
  facet normal -0.7071067811865475 0.7071067811865475 0
    outer loop
      vertex 13.200000002980232 -6.923044739294701 -1.000000001490116
      vertex 7.623044742274933 -12.5 1.999999998509884
      vertex 13.200000002980232 -6.923044739294701 0.999999998509884
    endloop
  endfacet
  facet normal -0.7071067811865476 0.7071067811865476 0
    outer loop
      vertex 7.623044742274933 -12.5 1.999999998509884
      vertex 12.5 -7.623044742274933 1.999999998509884
      vertex 13.200000002980232 -6.923044739294701 0.999999998509884
    endloop
  endfacet
  facet normal 0 0 1
    outer loop
      vertex 8.102943727489924 -14 3.399999997019768
      vertex 12.899999998509884 -11.70365023668062 3.399999997019768
      vertex 9.006781576356902 -13.096162151133022 3.399999997019768
    endloop
  endfacet
  facet normal 0 0 1
    outer loop
      vertex 9.006781576356902 -13.096162151133022 3.399999997019768
      vertex 12.899999998509884 -11.70365023668062 3.399999997019768
      vertex 9.20294372898004 -12.899999998509884 3.399999997019768
    endloop
  endfacet
  facet normal -0.5000000000000001 0.5000000000000001 0.7071067811865472
    outer loop
      vertex 7.623044742274933 -12.5 1.999999998509884
      vertex 9.037258304648027 -12.5 2.999999998509884
      vertex 12.5 -9.037258304648027 2.999999998509884
    endloop
  endfacet
  facet normal -0.49999999999999944 0.49999999999999944 0.7071067811865482
    outer loop
      vertex 9.037258304648027 -12.5 2.999999998509884
      vertex 9.20294372898004 -12.899999998509884 3.399999997019768
      vertex 12.5 -9.037258304648027 2.999999998509884
    endloop
  endfacet
  facet normal 0 0 1
    outer loop
      vertex 8.102943727489924 -14 3.399999997019768
      vertex 14 -14 3.399999997019768
      vertex 12.899999998509884 -11.70365023668062 3.399999997019768
    endloop
  endfacet
  facet normal 0 0 1
    outer loop
      vertex 9.20294372898004 -12.899999998509884 3.399999997019768
      vertex 12.899999998509884 -11.70365023668062 3.399999997019768
      vertex 12.899999998509884 -9.20294372898004 3.399999997019768
    endloop
  endfacet
  facet normal 0 0 1
    outer loop
      vertex 12.899999998509884 -11.70365023668062 3.399999997019768
      vertex 14 -14 3.399999997019768
      vertex 13.829571137787326 -9.661810785917767 3.399999997019768
    endloop
  endfacet
  facet normal 0 0 1
    outer loop
      vertex 13.829571137787326 -9.661810785917767 3.399999997019768
      vertex 14 -14 3.399999997019768
      vertex 14 -8.102943727489924 3.399999997019768
    endloop
  endfacet
  facet normal -0.5000000000000001 0.5000000000000001 0.7071067811865474
    outer loop
      vertex 7.623044742274933 -12.5 1.999999998509884
      vertex 12.5 -9.037258304648027 2.999999998509884
      vertex 12.5 -7.623044742274933 1.999999998509884
    endloop
  endfacet
  facet normal -0.4999999999999995 0.4999999999999995 0.7071067811865482
    outer loop
      vertex 9.20294372898004 -12.899999998509884 3.399999997019768
      vertex 12.899999998509884 -9.20294372898004 3.399999997019768
      vertex 12.5 -9.037258304648027 2.999999998509884
    endloop
  endfacet
  facet normal 0 0 1
    outer loop
      vertex 13.829571137787326 -9.661810785917767 3.399999997019768
      vertex 14 -8.102943727489924 3.399999997019768
      vertex 13.777087219648928 -8.325856507840996 3.399999997019768
    endloop
  endfacet
  facet normal -0.4999999999999995 -0.4999999999999995 -0.7071067811865483
    outer loop
      vertex 9.20294372898004 12.899999998509884 -3.4
      vertex 12.899999998509884 9.20294372898004 -3.4
      vertex 9.037258304648027 12.5 -3.000000001490116
    endloop
  endfacet
  facet normal 0 0 -1
    outer loop
      vertex 9.006781576356902 13.096162151133022 -3.4
      vertex 12.325397128085173 12.965787968567087 -3.4
      vertex 9.20294372898004 12.899999998509884 -3.4
    endloop
  endfacet
  facet normal -0.5000000000000002 -0.5000000000000002 -0.7071067811865474
    outer loop
      vertex 7.623044742274933 12.5 -2.000000001490116
      vertex 9.037258304648027 12.5 -3.000000001490116
      vertex 12.5 7.623044742274933 -2.000000001490116
    endloop
  endfacet
  facet normal -0.4999999999999995 -0.4999999999999995 -0.7071067811865481
    outer loop
      vertex 9.037258304648027 12.5 -3.000000001490116
      vertex 12.899999998509884 9.20294372898004 -3.4
      vertex 12.5 9.037258304648027 -3.000000001490116
    endloop
  endfacet
  facet normal -0.5000000000000001 -0.5000000000000001 -0.7071067811865472
    outer loop
      vertex 12.5 7.623044742274933 -2.000000001490116
      vertex 9.037258304648027 12.5 -3.000000001490116
      vertex 12.5 9.037258304648027 -3.000000001490116
    endloop
  endfacet
  facet normal 0 0 -1
    outer loop
      vertex 14 8.102943727489924 -3.4
      vertex 13.777087219648926 8.325856507840998 -3.4
      vertex 13.829571137787326 9.661810785917769 -3.4
    endloop
  endfacet
  facet normal 0 0 -1
    outer loop
      vertex 9.20294372898004 12.899999998509884 -3.4
      vertex 12.919952994340365 11.659822699092427 -3.4
      vertex 12.899999998509884 9.20294372898004 -3.4
    endloop
  endfacet
  facet normal 0 0 -1
    outer loop
      vertex 9.20294372898004 12.899999998509884 -3.4
      vertex 12.325397128085173 12.965787968567087 -3.4
      vertex 12.919952994340365 11.659822699092427 -3.4
    endloop
  endfacet
  facet normal 0 0 -1
    outer loop
      vertex 8.102943727489924 14 -3.4
      vertex 14 14 -3.4
      vertex 12.325397128085173 12.965787968567087 -3.4
    endloop
  endfacet
  facet normal 0 0 -1
    outer loop
      vertex 13.829571137787326 9.661810785917769 -3.4
      vertex 14 14 -3.4
      vertex 14 8.102943727489924 -3.4
    endloop
  endfacet
  facet normal 0 0 -1
    outer loop
      vertex 12.919952994340365 11.659822699092427 -3.4
      vertex 14 14 -3.4
      vertex 13.829571137787326 9.661810785917769 -3.4
    endloop
  endfacet
  facet normal 0 0 -1
    outer loop
      vertex 12.325397128085173 12.965787968567087 -3.4
      vertex 14 14 -3.4
      vertex 12.919952994340365 11.659822699092427 -3.4
    endloop
  endfacet
  facet normal -0.7071067811865475 -0.7071067811865475 0
    outer loop
      vertex 7.623044742274933 12.5 -2.000000001490116
      vertex 13.200000002980232 6.923044739294701 0.999999998509884
      vertex 6.923044739294701 13.200000002980232 -1.000000001490116
    endloop
  endfacet
  facet normal -0.7071067811865476 -0.7071067811865476 0
    outer loop
      vertex 7.623044742274933 12.5 -2.000000001490116
      vertex 12.5 7.623044742274933 -2.000000001490116
      vertex 13.200000002980232 6.923044739294701 -1.000000001490116
    endloop
  endfacet
  facet normal -0.7071067811865476 -0.7071067811865476 0
    outer loop
      vertex 7.623044742274933 12.5 -2.000000001490116
      vertex 13.200000002980232 6.923044739294701 -1.000000001490116
      vertex 13.200000002980232 6.923044739294701 0.999999998509884
    endloop
  endfacet
  facet normal -0.7071067811865476 -0.7071067811865476 0
    outer loop
      vertex 6.923044739294701 13.200000002980232 -1.000000001490116
      vertex 13.200000002980232 6.923044739294701 0.999999998509884
      vertex 6.923044739294701 13.200000002980232 0.999999998509884
    endloop
  endfacet
  facet normal -0.7071067811865476 -0.7071067811865476 0
    outer loop
      vertex 6.923044739294701 13.200000002980232 0.999999998509884
      vertex 13.200000002980232 6.923044739294701 0.999999998509884
      vertex 7.623044742274933 12.5 1.999999998509884
    endloop
  endfacet
  facet normal -0.7071067811865476 -0.7071067811865476 0
    outer loop
      vertex 7.623044742274933 12.5 1.999999998509884
      vertex 13.200000002980232 6.923044739294701 0.999999998509884
      vertex 12.5 7.623044742274933 1.999999998509884
    endloop
  endfacet
  facet normal -0.5000000000000002 -0.5000000000000002 0.7071067811865474
    outer loop
      vertex 7.623044742274933 12.5 1.999999998509884
      vertex 12.5 7.623044742274933 1.999999998509884
      vertex 9.037258304648027 12.5 2.999999998509884
    endloop
  endfacet
  facet normal 0 0 1
    outer loop
      vertex 8.102943727489924 14 3.399999997019768
      vertex 8.325856507840996 13.777087219648928 3.399999997019768
      vertex 9.661810785917767 13.829571137787326 3.399999997019768
    endloop
  endfacet
  facet normal -0.4999999999999994 -0.4999999999999995 0.7071067811865482
    outer loop
      vertex 9.037258304648027 12.5 2.999999998509884
      vertex 12.899999998509884 9.20294372898004 3.399999997019768
      vertex 9.20294372898004 12.899999998509884 3.399999997019768
    endloop
  endfacet
  facet normal -0.5000000000000001 -0.5000000000000001 0.7071067811865472
    outer loop
      vertex 12.5 7.623044742274933 1.999999998509884
      vertex 12.5 9.037258304648027 2.999999998509884
      vertex 9.037258304648027 12.5 2.999999998509884
    endloop
  endfacet
  facet normal -0.4999999999999995 -0.4999999999999995 0.7071067811865481
    outer loop
      vertex 9.037258304648027 12.5 2.999999998509884
      vertex 12.5 9.037258304648027 2.999999998509884
      vertex 12.899999998509884 9.20294372898004 3.399999997019768
    endloop
  endfacet
  facet normal 0 0 1
    outer loop
      vertex 9.20294372898004 12.899999998509884 3.399999997019768
      vertex 13.035340831228476 10.554960626375408 3.399999997019768
      vertex 11.70365023668062 12.899999998509884 3.399999997019768
    endloop
  endfacet
  facet normal 0 0 1
    outer loop
      vertex 9.20294372898004 12.899999998509884 3.399999997019768
      vertex 12.899999998509884 9.20294372898004 3.399999997019768
      vertex 13.035340831228476 10.554960626375408 3.399999997019768
    endloop
  endfacet
  facet normal 0 0 1
    outer loop
      vertex 9.661810785917767 13.829571137787326 3.399999997019768
      vertex 14 14 3.399999997019768
      vertex 8.102943727489924 14 3.399999997019768
    endloop
  endfacet
  facet normal 0 0 1
    outer loop
      vertex 11.70365023668062 12.899999998509884 3.399999997019768
      vertex 14 14 3.399999997019768
      vertex 9.661810785917767 13.829571137787326 3.399999997019768
    endloop
  endfacet
  facet normal 0 0 1
    outer loop
      vertex 13.035340831228476 10.554960626375408 3.399999997019768
      vertex 12.965787968567087 12.325397128085172 3.399999997019768
      vertex 11.70365023668062 12.899999998509884 3.399999997019768
    endloop
  endfacet
  facet normal 0 0 1
    outer loop
      vertex 11.70365023668062 12.899999998509884 3.399999997019768
      vertex 12.965787968567087 12.325397128085172 3.399999997019768
      vertex 14 14 3.399999997019768
    endloop
  endfacet
  facet normal 0 0 1
    outer loop
      vertex 12.965787968567087 12.325397128085172 3.399999997019768
      vertex 14 11.854560081639454 3.399999997019768
      vertex 14 14 3.399999997019768
    endloop
  endfacet
  facet normal 0 0 -1
    outer loop
      vertex -12.919952994340365 -11.659822699092427 -3.4
      vertex -12.325397128085173 -12.965787968567087 -3.4
      vertex -14 -14 -3.4
    endloop
  endfacet
  facet normal 0 0 -1
    outer loop
      vertex -13.829571137787326 -9.661810785917769 -3.4
      vertex -12.919952994340365 -11.659822699092427 -3.4
      vertex -14 -14 -3.4
    endloop
  endfacet
  facet normal 0 0 -1
    outer loop
      vertex -13.829571137787326 -9.661810785917769 -3.4
      vertex -14 -14 -3.4
      vertex -14 -8.102943727489924 -3.4
    endloop
  endfacet
  facet normal 0 0 -1
    outer loop
      vertex -12.325397128085173 -12.965787968567087 -3.4
      vertex -8.102943727489924 -14 -3.4
      vertex -14 -14 -3.4
    endloop
  endfacet
  facet normal 0 0 -1
    outer loop
      vertex -12.919952994340365 -11.659822699092427 -3.4
      vertex -9.20294372898004 -12.899999998509884 -3.4
      vertex -12.325397128085173 -12.965787968567087 -3.4
    endloop
  endfacet
  facet normal 0 0 -1
    outer loop
      vertex -12.919952994340365 -11.659822699092427 -3.4
      vertex -12.899999998509884 -9.20294372898004 -3.4
      vertex -9.20294372898004 -12.899999998509884 -3.4
    endloop
  endfacet
  facet normal 0 0 -1
    outer loop
      vertex -13.829571137787326 -9.661810785917769 -3.4
      vertex -14 -8.102943727489924 -3.4
      vertex -13.777087219648926 -8.325856507840998 -3.4
    endloop
  endfacet
  facet normal 0.49999999999999944 0.4999999999999995 -0.7071067811865482
    outer loop
      vertex -12.899999998509884 -9.20294372898004 -3.4
      vertex -12.5 -9.037258304648027 -3.000000001490116
      vertex -9.037258304648027 -12.5 -3.000000001490116
    endloop
  endfacet
  facet normal 0.5000000000000001 0.5000000000000001 -0.7071067811865472
    outer loop
      vertex -12.5 -9.037258304648027 -3.000000001490116
      vertex -12.5 -7.623044742274933 -2.000000001490116
      vertex -9.037258304648027 -12.5 -3.000000001490116
    endloop
  endfacet
  facet normal 0 0 -1
    outer loop
      vertex -12.325397128085173 -12.965787968567087 -3.4
      vertex -9.20294372898004 -12.899999998509884 -3.4
      vertex -9.006781576356902 -13.096162151133022 -3.4
    endloop
  endfacet
  facet normal 0.4999999999999995 0.4999999999999995 -0.7071067811865482
    outer loop
      vertex -12.899999998509884 -9.20294372898004 -3.4
      vertex -9.037258304648027 -12.5 -3.000000001490116
      vertex -9.20294372898004 -12.899999998509884 -3.4
    endloop
  endfacet
  facet normal 0.5000000000000002 0.5000000000000002 -0.7071067811865474
    outer loop
      vertex -9.037258304648027 -12.5 -3.000000001490116
      vertex -12.5 -7.623044742274933 -2.000000001490116
      vertex -7.623044742274933 -12.5 -2.000000001490116
    endloop
  endfacet
  facet normal 0.7071067811865476 0.7071067811865476 0
    outer loop
      vertex -12.5 -7.623044742274933 -2.000000001490116
      vertex -13.200000002980232 -6.923044739294701 -1.000000001490116
      vertex -7.623044742274933 -12.5 -2.000000001490116
    endloop
  endfacet
  facet normal 0.7071067811865475 0.7071067811865475 0
    outer loop
      vertex -13.200000002980232 -6.923044739294701 -1.000000001490116
      vertex -13.200000002980232 -6.923044739294701 0.999999998509884
      vertex -7.623044742274933 -12.5 -2.000000001490116
    endloop
  endfacet
  facet normal 0.7071067811865475 0.7071067811865475 0
    outer loop
      vertex -7.623044742274933 -12.5 -2.000000001490116
      vertex -13.200000002980232 -6.923044739294701 0.999999998509884
      vertex -6.923044739294701 -13.200000002980232 -1.000000001490116
    endloop
  endfacet
  facet normal 0.7071067811865476 0.7071067811865476 0
    outer loop
      vertex -13.200000002980232 -6.923044739294701 0.999999998509884
      vertex -12.5 -7.623044742274933 1.999999998509884
      vertex -7.623044742274933 -12.5 1.999999998509884
    endloop
  endfacet
  facet normal 0.7071067811865476 0.7071067811865476 0
    outer loop
      vertex -6.923044739294701 -13.200000002980232 -1.000000001490116
      vertex -13.200000002980232 -6.923044739294701 0.999999998509884
      vertex -6.923044739294701 -13.200000002980232 0.999999998509884
    endloop
  endfacet
  facet normal 0.7071067811865476 0.7071067811865476 0
    outer loop
      vertex -13.200000002980232 -6.923044739294701 0.999999998509884
      vertex -7.623044742274933 -12.5 1.999999998509884
      vertex -6.923044739294701 -13.200000002980232 0.999999998509884
    endloop
  endfacet
  facet normal 0 0 1
    outer loop
      vertex -14 -11.854560081639454 3.399999997019768
      vertex -14 -14 3.399999997019768
      vertex -12.965787968567087 -12.325397128085172 3.399999997019768
    endloop
  endfacet
  facet normal 0 0 1
    outer loop
      vertex -12.965787968567087 -12.325397128085172 3.399999997019768
      vertex -14 -14 3.399999997019768
      vertex -11.70365023668062 -12.899999998509884 3.399999997019768
    endloop
  endfacet
  facet normal 0 0 1
    outer loop
      vertex -12.965787968567087 -12.325397128085172 3.399999997019768
      vertex -11.70365023668062 -12.899999998509884 3.399999997019768
      vertex -13.035340831228476 -10.554960626375408 3.399999997019768
    endloop
  endfacet
  facet normal 0 0 1
    outer loop
      vertex -9.661810785917767 -13.829571137787326 3.399999997019768
      vertex -11.70365023668062 -12.899999998509884 3.399999997019768
      vertex -14 -14 3.399999997019768
    endloop
  endfacet
  facet normal 0 0 1
    outer loop
      vertex -9.661810785917767 -13.829571137787326 3.399999997019768
      vertex -14 -14 3.399999997019768
      vertex -8.102943727489924 -14 3.399999997019768
    endloop
  endfacet
  facet normal 0 0 1
    outer loop
      vertex -13.035340831228476 -10.554960626375408 3.399999997019768
      vertex -9.20294372898004 -12.899999998509884 3.399999997019768
      vertex -12.899999998509884 -9.20294372898004 3.399999997019768
    endloop
  endfacet
  facet normal 0 0 1
    outer loop
      vertex -11.70365023668062 -12.899999998509884 3.399999997019768
      vertex -9.20294372898004 -12.899999998509884 3.399999997019768
      vertex -13.035340831228476 -10.554960626375408 3.399999997019768
    endloop
  endfacet
  facet normal 0.5000000000000001 0.5000000000000001 0.7071067811865472
    outer loop
      vertex -12.5 -9.037258304648027 2.999999998509884
      vertex -9.037258304648027 -12.5 2.999999998509884
      vertex -12.5 -7.623044742274933 1.999999998509884
    endloop
  endfacet
  facet normal 0.49999999999999944 0.49999999999999944 0.7071067811865482
    outer loop
      vertex -12.5 -9.037258304648027 2.999999998509884
      vertex -12.899999998509884 -9.20294372898004 3.399999997019768
      vertex -9.037258304648027 -12.5 2.999999998509884
    endloop
  endfacet
  facet normal 0.5000000000000002 0.5000000000000002 0.7071067811865474
    outer loop
      vertex -9.037258304648027 -12.5 2.999999998509884
      vertex -7.623044742274933 -12.5 1.999999998509884
      vertex -12.5 -7.623044742274933 1.999999998509884
    endloop
  endfacet
  facet normal 0.4999999999999995 0.4999999999999995 0.7071067811865482
    outer loop
      vertex -12.899999998509884 -9.20294372898004 3.399999997019768
      vertex -9.20294372898004 -12.899999998509884 3.399999997019768
      vertex -9.037258304648027 -12.5 2.999999998509884
    endloop
  endfacet
  facet normal 0 0 1
    outer loop
      vertex -9.661810785917767 -13.829571137787326 3.399999997019768
      vertex -8.102943727489924 -14 3.399999997019768
      vertex -8.325856507840996 -13.777087219648928 3.399999997019768
    endloop
  endfacet
  facet normal 0 -1 0
    outer loop
      vertex -14 -14 -3.4
      vertex -8.102943727489924 -14 -3.4
      vertex -6.123044742274933 -14 -2.000000001490116
    endloop
  endfacet
  facet normal 0 -1 0
    outer loop
      vertex -14 -14 3.399999997019768
      vertex -14 -14 -3.4
      vertex -6.123044742274933 -14 -2.000000001490116
    endloop
  endfacet
  facet normal -1 0 0
    outer loop
      vertex -14 -8.102943727489924 -3.4
      vertex -14 -14 -3.4
      vertex -14 -6.123044742274933 1.999999998509884
    endloop
  endfacet
  facet normal -1 0 0
    outer loop
      vertex -14 -8.102943727489924 -3.4
      vertex -14 -6.123044742274933 1.999999998509884
      vertex -14 -6.123044742274933 -2.000000001490116
    endloop
  endfacet
  facet normal -1 0 0
    outer loop
      vertex -14 -14 -3.4
      vertex -14 -14 3.399999997019768
      vertex -14 -6.123044742274933 1.999999998509884
    endloop
  endfacet
  facet normal 0 -1 0
    outer loop
      vertex -8.102943727489924 -14 3.399999997019768
      vertex -14 -14 3.399999997019768
      vertex -6.123044742274933 -14 -2.000000001490116
    endloop
  endfacet
  facet normal -1 0 0
    outer loop
      vertex -14 -14 3.399999997019768
      vertex -14 -11.854560081639454 3.399999997019768
      vertex -14 -6.123044742274933 1.999999998509884
    endloop
  endfacet
  facet normal -1 0 0
    outer loop
      vertex -14 -6.123044742274933 1.999999998509884
      vertex -14 -11.854560081639454 3.399999997019768
      vertex -14 -8.102943727489924 3.399999997019768
    endloop
  endfacet
  facet normal 0 -1 0
    outer loop
      vertex -6.123044742274933 -14 1.999999998509884
      vertex -8.102943727489924 -14 3.399999997019768
      vertex -6.123044742274933 -14 -2.000000001490116
    endloop
  endfacet
  facet normal -1 0 0
    outer loop
      vertex -14 8.102943727489924 -3.4
      vertex -14 6.123044742274933 -2.000000001490116
      vertex -14 14 -3.4
    endloop
  endfacet
  facet normal 0 1 0
    outer loop
      vertex -8.102943727489924 14 -3.4
      vertex -14 14 -3.4
      vertex -6.123044742274933 14 -2.000000001490116
    endloop
  endfacet
  facet normal -1 0 0
    outer loop
      vertex -14 14 -3.4
      vertex -14 6.123044742274933 -2.000000001490116
      vertex -14 14 3.399999997019768
    endloop
  endfacet
  facet normal 0 1 0
    outer loop
      vertex -6.123044742274933 14 -2.000000001490116
      vertex -14 14 -3.4
      vertex -6.123044742274933 14 1.999999998509884
    endloop
  endfacet
  facet normal -1 0 0
    outer loop
      vertex -14 6.123044742274933 1.999999998509884
      vertex -14 8.102943727489924 3.399999997019768
      vertex -14 6.123044742274933 -2.000000001490116
    endloop
  endfacet
  facet normal -1 0 0
    outer loop
      vertex -14 8.102943727489924 3.399999997019768
      vertex -14 14 3.399999997019768
      vertex -14 6.123044742274933 -2.000000001490116
    endloop
  endfacet
  facet normal 0 1 0
    outer loop
      vertex -14 14 -3.4
      vertex -14 14 3.399999997019768
      vertex -6.123044742274933 14 1.999999998509884
    endloop
  endfacet
  facet normal 0 1 0
    outer loop
      vertex -8.102943727489924 14 3.399999997019768
      vertex -6.123044742274933 14 1.999999998509884
      vertex -14 14 3.399999997019768
    endloop
  endfacet
  facet normal 0 -1 0
    outer loop
      vertex 6.123044742274933 -14 -2.000000001490116
      vertex 8.102943727489924 -14 -3.4
      vertex 14 -14 3.399999997019768
    endloop
  endfacet
  facet normal 0 -1 0
    outer loop
      vertex 8.102943727489924 -14 -3.4
      vertex 14 -14 -3.4
      vertex 14 -14 3.399999997019768
    endloop
  endfacet
  facet normal 1 0 0
    outer loop
      vertex 14 -14 -3.4
      vertex 14 -8.102943727489924 -3.4
      vertex 14 -14 3.399999997019768
    endloop
  endfacet
  facet normal 1 0 0
    outer loop
      vertex 14 -8.102943727489924 -3.4
      vertex 14 -6.123044742274933 -2.000000001490116
      vertex 14 -14 3.399999997019768
    endloop
  endfacet
  facet normal 0 -1 0
    outer loop
      vertex 6.123044742274933 -14 -2.000000001490116
      vertex 14 -14 3.399999997019768
      vertex 6.123044742274933 -14 1.999999998509884
    endloop
  endfacet
  facet normal 1 0 0
    outer loop
      vertex 14 -8.102943727489924 3.399999997019768
      vertex 14 -14 3.399999997019768
      vertex 14 -6.123044742274933 -2.000000001490116
    endloop
  endfacet
  facet normal 0 -1 0
    outer loop
      vertex 8.102943727489924 -14 3.399999997019768
      vertex 6.123044742274933 -14 1.999999998509884
      vertex 14 -14 3.399999997019768
    endloop
  endfacet
  facet normal 1 0 0
    outer loop
      vertex 14 -6.123044742274933 1.999999998509884
      vertex 14 -8.102943727489924 3.399999997019768
      vertex 14 -6.123044742274933 -2.000000001490116
    endloop
  endfacet
  facet normal 1 0 0
    outer loop
      vertex 14 6.123044742274933 -2.000000001490116
      vertex 14 8.102943727489924 -3.4
      vertex 14 6.123044742274933 1.999999998509884
    endloop
  endfacet
  facet normal 0 1 0
    outer loop
      vertex 8.102943727489924 14 -3.4
      vertex 6.123044742274933 14 -2.000000001490116
      vertex 14 14 -3.4
    endloop
  endfacet
  facet normal 1 0 0
    outer loop
      vertex 14 8.102943727489924 -3.4
      vertex 14 14 -3.4
      vertex 14 6.123044742274933 1.999999998509884
    endloop
  endfacet
  facet normal 0 1 0
    outer loop
      vertex 14 14 -3.4
      vertex 6.123044742274933 14 -2.000000001490116
      vertex 14 14 3.399999997019768
    endloop
  endfacet
  facet normal 0 1 0
    outer loop
      vertex 6.123044742274933 14 1.999999998509884
      vertex 8.102943727489924 14 3.399999997019768
      vertex 6.123044742274933 14 -2.000000001490116
    endloop
  endfacet
  facet normal 0 1 0
    outer loop
      vertex 8.102943727489924 14 3.399999997019768
      vertex 14 14 3.399999997019768
      vertex 6.123044742274933 14 -2.000000001490116
    endloop
  endfacet
  facet normal 1 0 0
    outer loop
      vertex 14 6.123044742274933 1.999999998509884
      vertex 14 14 -3.4
      vertex 14 8.102943727489924 3.399999997019768
    endloop
  endfacet
  facet normal 1 0 0
    outer loop
      vertex 14 8.102943727489924 3.399999997019768
      vertex 14 14 -3.4
      vertex 14 11.854560081639454 3.399999997019768
    endloop
  endfacet
  facet normal 1 0 0
    outer loop
      vertex 14 14 -3.4
      vertex 14 14 3.399999997019768
      vertex 14 11.854560081639454 3.399999997019768
    endloop
  endfacet
endsolid OpenSCAD_Model
