solid OpenSCAD_Model
  facet normal 0 0 -1
    outer loop
      vertex -14 -0.5 -3.4
      vertex -12.899999998509884 0.5 -3.4
      vertex -12.899999998509884 -0.5 -3.4
    endloop
  endfacet
  facet normal 0.7071067811865475 0 -0.7071067811865475
    outer loop
      vertex -12.899999998509884 -0.5 -3.4
      vertex -12.5 0.5 -3.000000001490116
      vertex -12.5 -0.5 -3.000000001490116
    endloop
  endfacet
  facet normal 1 0 0
    outer loop
      vertex -12.5 -0.5 -3.000000001490116
      vertex -12.5 0.5 -2.000000001490116
      vertex -12.5 -0.5 -2.000000001490116
    endloop
  endfacet
  facet normal 0.8192319193720264 0 0.5734623460019199
    outer loop
      vertex -12.5 -0.5 -2.000000001490116
      vertex -13.200000002980232 0.5 -1.000000001490116
      vertex -13.200000002980232 -0.5 -1.000000001490116
    endloop
  endfacet
  facet normal -1 0 0
    outer loop
      vertex -14 -0.5 -3.4
      vertex -14 -0.5 3.399999997019768
      vertex -14 0.5 -3.4
    endloop
  endfacet
  facet normal 1 0 0
    outer loop
      vertex -13.200000002980232 -0.5 -1.000000001490116
      vertex -13.200000002980232 0.5 0.999999998509884
      vertex -13.200000002980232 -0.5 0.999999998509884
    endloop
  endfacet
  facet normal 0.8192319193720264 0 -0.5734623460019199
    outer loop
      vertex -13.200000002980232 -0.5 0.999999998509884
      vertex -12.5 0.5 1.999999998509884
      vertex -12.5 -0.5 1.999999998509884
    endloop
  endfacet
  facet normal 1 0 0
    outer loop
      vertex -12.5 -0.5 1.999999998509884
      vertex -12.5 0.5 2.999999998509884
      vertex -12.5 -0.5 2.999999998509884
    endloop
  endfacet
  facet normal 0 0 1
    outer loop
      vertex -12.899999998509884 -0.5 3.399999997019768
      vertex -14 0.5 3.399999997019768
      vertex -14 -0.5 3.399999997019768
    endloop
  endfacet
  facet normal 0.7071067811865475 0 0.7071067811865475
    outer loop
      vertex -12.5 -0.5 2.999999998509884
      vertex -12.899999998509884 0.5 3.399999997019768
      vertex -12.899999998509884 -0.5 3.399999997019768
    endloop
  endfacet
  facet normal 0 0 -1
    outer loop
      vertex -14 -0.5 -3.4
      vertex -14 0.5 -3.4
      vertex -12.899999998509884 0.5 -3.4
    endloop
  endfacet
  facet normal 0.7071067811865475 0 -0.7071067811865475
    outer loop
      vertex -12.899999998509884 -0.5 -3.4
      vertex -12.899999998509884 0.5 -3.4
      vertex -12.5 0.5 -3.000000001490116
    endloop
  endfacet
  facet normal 1 0 0
    outer loop
      vertex -12.5 -0.5 -3.000000001490116
      vertex -12.5 0.5 -3.000000001490116
      vertex -12.5 0.5 -2.000000001490116
    endloop
  endfacet
  facet normal 0.8192319193720264 0 0.5734623460019199
    outer loop
      vertex -12.5 -0.5 -2.000000001490116
      vertex -12.5 0.5 -2.000000001490116
      vertex -13.200000002980232 0.5 -1.000000001490116
    endloop
  endfacet
  facet normal 1 0 0
    outer loop
      vertex -13.200000002980232 -0.5 -1.000000001490116
      vertex -13.200000002980232 0.5 -1.000000001490116
      vertex -13.200000002980232 0.5 0.999999998509884
    endloop
  endfacet
  facet normal -1 0 0
    outer loop
      vertex -14 -0.5 3.399999997019768
      vertex -14 0.5 3.399999997019768
      vertex -14 0.5 -3.4
    endloop
  endfacet
  facet normal 0.8192319193720264 0 -0.5734623460019199
    outer loop
      vertex -13.200000002980232 -0.5 0.999999998509884
      vertex -13.200000002980232 0.5 0.999999998509884
      vertex -12.5 0.5 1.999999998509884
    endloop
  endfacet
  facet normal 1 0 0
    outer loop
      vertex -12.5 -0.5 1.999999998509884
      vertex -12.5 0.5 1.999999998509884
      vertex -12.5 0.5 2.999999998509884
    endloop
  endfacet
  facet normal 0 0 1
    outer loop
      vertex -12.899999998509884 -0.5 3.399999997019768
      vertex -12.899999998509884 0.5 3.399999997019768
      vertex -14 0.5 3.399999997019768
    endloop
  endfacet
  facet normal 0.7071067811865475 0 0.7071067811865475
    outer loop
      vertex -12.5 -0.5 2.999999998509884
      vertex -12.5 0.5 2.999999998509884
      vertex -12.899999998509884 0.5 3.399999997019768
    endloop
  endfacet
  facet normal -0.7071067811865475 0 -0.7071067811865475
    outer loop
      vertex 12.899999998509884 -0.5 -3.4
      vertex 12.5 -0.5 -3.000000001490116
      vertex 12.899999998509884 0.5 -3.4
    endloop
  endfacet
  facet normal 0 0 -1
    outer loop
      vertex 14 -0.5 -3.4
      vertex 12.899999998509884 -0.5 -3.4
      vertex 14 0.5 -3.4
    endloop
  endfacet
  facet normal -1 0 0
    outer loop
      vertex 12.5 -0.5 -2.000000001490116
      vertex 12.5 0.5 -3.000000001490116
      vertex 12.5 -0.5 -3.000000001490116
    endloop
  endfacet
  facet normal -0.8192319193720264 0 0.5734623460019199
    outer loop
      vertex 13.200000002980232 -0.5 -1.000000001490116
      vertex 12.5 0.5 -2.000000001490116
      vertex 12.5 -0.5 -2.000000001490116
    endloop
  endfacet
  facet normal -1 0 0
    outer loop
      vertex 13.200000002980232 -0.5 0.999999998509884
      vertex 13.200000002980232 0.5 -1.000000001490116
      vertex 13.200000002980232 -0.5 -1.000000001490116
    endloop
  endfacet
  facet normal 1 0 0
    outer loop
      vertex 14 -0.5 -3.4
      vertex 14 0.5 3.399999997019768
      vertex 14 -0.5 3.399999997019768
    endloop
  endfacet
  facet normal -0.8192319193720264 0 -0.5734623460019199
    outer loop
      vertex 12.5 -0.5 1.999999998509884
      vertex 13.200000002980232 0.5 0.999999998509884
      vertex 13.200000002980232 -0.5 0.999999998509884
    endloop
  endfacet
  facet normal -1 0 0
    outer loop
      vertex 12.5 -0.5 2.999999998509884
      vertex 12.5 0.5 1.999999998509884
      vertex 12.5 -0.5 1.999999998509884
    endloop
  endfacet
  facet normal -0.7071067811865475 0 0.7071067811865475
    outer loop
      vertex 12.899999998509884 -0.5 3.399999997019768
      vertex 12.5 0.5 2.999999998509884
      vertex 12.5 -0.5 2.999999998509884
    endloop
  endfacet
  facet normal 0 0 1
    outer loop
      vertex 14 -0.5 3.399999997019768
      vertex 12.899999998509884 0.5 3.399999997019768
      vertex 12.899999998509884 -0.5 3.399999997019768
    endloop
  endfacet
  facet normal -0.7071067811865475 0 -0.7071067811865475
    outer loop
      vertex 12.5 -0.5 -3.000000001490116
      vertex 12.5 0.5 -3.000000001490116
      vertex 12.899999998509884 0.5 -3.4
    endloop
  endfacet
  facet normal 0 0 -1
    outer loop
      vertex 12.899999998509884 -0.5 -3.4
      vertex 12.899999998509884 0.5 -3.4
      vertex 14 0.5 -3.4
    endloop
  endfacet
  facet normal -1 0 0
    outer loop
      vertex 12.5 -0.5 -2.000000001490116
      vertex 12.5 0.5 -2.000000001490116
      vertex 12.5 0.5 -3.000000001490116
    endloop
  endfacet
  facet normal -0.8192319193720264 0 0.5734623460019199
    outer loop
      vertex 13.200000002980232 -0.5 -1.000000001490116
      vertex 13.200000002980232 0.5 -1.000000001490116
      vertex 12.5 0.5 -2.000000001490116
    endloop
  endfacet
  facet normal 1 0 0
    outer loop
      vertex 14 -0.5 -3.4
      vertex 14 0.5 -3.4
      vertex 14 0.5 3.399999997019768
    endloop
  endfacet
  facet normal -1 0 0
    outer loop
      vertex 13.200000002980232 -0.5 0.999999998509884
      vertex 13.200000002980232 0.5 0.999999998509884
      vertex 13.200000002980232 0.5 -1.000000001490116
    endloop
  endfacet
  facet normal -0.8192319193720264 0 -0.5734623460019199
    outer loop
      vertex 12.5 -0.5 1.999999998509884
      vertex 12.5 0.5 1.999999998509884
      vertex 13.200000002980232 0.5 0.999999998509884
    endloop
  endfacet
  facet normal -1 0 0
    outer loop
      vertex 12.5 -0.5 2.999999998509884
      vertex 12.5 0.5 2.999999998509884
      vertex 12.5 0.5 1.999999998509884
    endloop
  endfacet
  facet normal -0.7071067811865475 0 0.7071067811865475
    outer loop
      vertex 12.899999998509884 -0.5 3.399999997019768
      vertex 12.899999998509884 0.5 3.399999997019768
      vertex 12.5 0.5 2.999999998509884
    endloop
  endfacet
  facet normal 0 0 1
    outer loop
      vertex 14 0.5 3.399999997019768
      vertex 12.899999998509884 0.5 3.399999997019768
      vertex 14 -0.5 3.399999997019768
    endloop
  endfacet
  facet normal 0 -1 0
    outer loop
      vertex -12.899999998509884 -0.5 -3.4
      vertex -12.5 -0.5 -3.000000001490116
      vertex -14 -0.5 -3.4
    endloop
  endfacet
  facet normal 0 -1 0
    outer loop
      vertex -14 -0.5 -3.4
      vertex -12.5 -0.5 -3.000000001490116
      vertex -12.5 -0.5 -2.000000001490116
    endloop
  endfacet
  facet normal 0 -1 0
    outer loop
      vertex -14 -0.5 -3.4
      vertex -12.5 -0.5 -2.000000001490116
      vertex -13.200000002980232 -0.5 -1.000000001490116
    endloop
  endfacet
  facet normal 0 -1 0
    outer loop
      vertex -14 -0.5 -3.4
      vertex -13.200000002980232 -0.5 -1.000000001490116
      vertex -14 -0.5 3.399999997019768
    endloop
  endfacet
  facet normal 0 -1 0
    outer loop
      vertex -14 -0.5 3.399999997019768
      vertex -13.200000002980232 -0.5 -1.000000001490116
      vertex -13.200000002980232 -0.5 0.999999998509884
    endloop
  endfacet
  facet normal 0 -1 0
    outer loop
      vertex -13.200000002980232 -0.5 0.999999998509884
      vertex -12.5 -0.5 1.999999998509884
      vertex -14 -0.5 3.399999997019768
    endloop
  endfacet
  facet normal 0 -1 0
    outer loop
      vertex -14 -0.5 3.399999997019768
      vertex -12.5 -0.5 1.999999998509884
      vertex -12.5 -0.5 2.999999998509884
    endloop
  endfacet
  facet normal 0 -1 0
    outer loop
      vertex -14 -0.5 3.399999997019768
      vertex -12.5 -0.5 2.999999998509884
      vertex -12.899999998509884 -0.5 3.399999997019768
    endloop
  endfacet
  facet normal 0 1 0
    outer loop
      vertex -12.5 0.5 -3.000000001490116
      vertex -12.899999998509884 0.5 -3.4
      vertex -14 0.5 -3.4
    endloop
  endfacet
  facet normal 0 1 0
    outer loop
      vertex -12.5 0.5 -2.000000001490116
      vertex -12.5 0.5 -3.000000001490116
      vertex -14 0.5 -3.4
    endloop
  endfacet
  facet normal 0 1 0
    outer loop
      vertex -14 0.5 -3.4
      vertex -13.200000002980232 0.5 -1.000000001490116
      vertex -12.5 0.5 -2.000000001490116
    endloop
  endfacet
  facet normal 0 1 0
    outer loop
      vertex -14 0.5 -3.4
      vertex -13.200000002980232 0.5 0.999999998509884
      vertex -13.200000002980232 0.5 -1.000000001490116
    endloop
  endfacet
  facet normal 0 1 0
    outer loop
      vertex -14 0.5 -3.4
      vertex -14 0.5 3.399999997019768
      vertex -13.200000002980232 0.5 0.999999998509884
    endloop
  endfacet
  facet normal 0 1 0
    outer loop
      vertex -12.5 0.5 1.999999998509884
      vertex -13.200000002980232 0.5 0.999999998509884
      vertex -14 0.5 3.399999997019768
    endloop
  endfacet
  facet normal 0 1 0
    outer loop
      vertex -12.5 0.5 2.999999998509884
      vertex -12.5 0.5 1.999999998509884
      vertex -14 0.5 3.399999997019768
    endloop
  endfacet
  facet normal 0 1 0
    outer loop
      vertex -14 0.5 3.399999997019768
      vertex -12.899999998509884 0.5 3.399999997019768
      vertex -12.5 0.5 2.999999998509884
    endloop
  endfacet
  facet normal 0 -1 0
    outer loop
      vertex 12.899999998509884 -0.5 -3.4
      vertex 14 -0.5 -3.4
      vertex 12.5 -0.5 -3.000000001490116
    endloop
  endfacet
  facet normal 0 -1 0
    outer loop
      vertex 12.5 -0.5 -2.000000001490116
      vertex 12.5 -0.5 -3.000000001490116
      vertex 14 -0.5 -3.4
    endloop
  endfacet
  facet normal 0 -1 0
    outer loop
      vertex 13.200000002980232 -0.5 -1.000000001490116
      vertex 12.5 -0.5 -2.000000001490116
      vertex 14 -0.5 -3.4
    endloop
  endfacet
  facet normal 0 -1 0
    outer loop
      vertex 13.200000002980232 -0.5 0.999999998509884
      vertex 13.200000002980232 -0.5 -1.000000001490116
      vertex 14 -0.5 -3.4
    endloop
  endfacet
  facet normal 0 -1 0
    outer loop
      vertex 14 -0.5 -3.4
      vertex 14 -0.5 3.399999997019768
      vertex 13.200000002980232 -0.5 0.999999998509884
    endloop
  endfacet
  facet normal 0 -1 0
    outer loop
      vertex 12.5 -0.5 1.999999998509884
      vertex 13.200000002980232 -0.5 0.999999998509884
      vertex 14 -0.5 3.399999997019768
    endloop
  endfacet
  facet normal 0 -1 0
    outer loop
      vertex 12.5 -0.5 2.999999998509884
      vertex 12.5 -0.5 1.999999998509884
      vertex 14 -0.5 3.399999997019768
    endloop
  endfacet
  facet normal 0 -1 0
    outer loop
      vertex 14 -0.5 3.399999997019768
      vertex 12.899999998509884 -0.5 3.399999997019768
      vertex 12.5 -0.5 2.999999998509884
    endloop
  endfacet
  facet normal 0 1 0
    outer loop
      vertex 12.899999998509884 0.5 -3.4
      vertex 12.5 0.5 -3.000000001490116
      vertex 14 0.5 -3.4
    endloop
  endfacet
  facet normal 0 1 0
    outer loop
      vertex 12.5 0.5 -3.000000001490116
      vertex 12.5 0.5 -2.000000001490116
      vertex 14 0.5 -3.4
    endloop
  endfacet
  facet normal 0 1 0
    outer loop
      vertex 12.5 0.5 -2.000000001490116
      vertex 13.200000002980232 0.5 -1.000000001490116
      vertex 14 0.5 -3.4
    endloop
  endfacet
  facet normal 0 1 0
    outer loop
      vertex 14 0.5 3.399999997019768
      vertex 14 0.5 -3.4
      vertex 13.200000002980232 0.5 -1.000000001490116
    endloop
  endfacet
  facet normal 0 1 0
    outer loop
      vertex 13.200000002980232 0.5 -1.000000001490116
      vertex 13.200000002980232 0.5 0.999999998509884
      vertex 14 0.5 3.399999997019768
    endloop
  endfacet
  facet normal 0 1 0
    outer loop
      vertex 13.200000002980232 0.5 0.999999998509884
      vertex 12.5 0.5 1.999999998509884
      vertex 14 0.5 3.399999997019768
    endloop
  endfacet
  facet normal 0 1 0
    outer loop
      vertex 12.5 0.5 1.999999998509884
      vertex 12.5 0.5 2.999999998509884
      vertex 14 0.5 3.399999997019768
    endloop
  endfacet
  facet normal 0 1 0
    outer loop
      vertex 14 0.5 3.399999997019768
      vertex 12.5 0.5 2.999999998509884
      vertex 12.899999998509884 0.5 3.399999997019768
    endloop
  endfacet
endsolid OpenSCAD_Model
