solid OpenSCAD_Model
  facet normal 0 0 -1
    outer loop
      vertex -12.399999999527932 6.5 2.9899999999999998
      vertex -12.4 6.5 2.9899999999999998
      vertex -12.399999999997442 7.5 2.9899999999999998
    endloop
  endfacet
  facet normal -1 2.5579538487363607e-12 0
    outer loop
      vertex -12.4 6.5 2.9899999999999998
      vertex -12.4 6.5 3.4
      vertex -12.399999999997442 7.5 2.9899999999999998
    endloop
  endfacet
  facet normal 0 0 -1
    outer loop
      vertex -12.399999999527932 6.5 2.9899999999999998
      vertex -12.399999999997442 7.5 2.9899999999999998
      vertex -12.399999999527932 7.5 2.9899999999999998
    endloop
  endfacet
  facet normal -1 0 -6.238911826186244e-12
    outer loop
      vertex -12.399999999997442 7.5 2.9899999999999998
      vertex -12.4 6.5 3.4
      vertex -12.4 7.5 3.4
    endloop
  endfacet
  facet normal 0 0 1
    outer loop
      vertex -12.4 6.5 3.4
      vertex 12.4 7.5 3.4
      vertex -12.4 7.5 3.4
    endloop
  endfacet
  facet normal 0 0 1
    outer loop
      vertex -12.4 6.5 3.4
      vertex 10.031065515169782 6.5 3.4
      vertex 12.4 7.5 3.4
    endloop
  endfacet
  facet normal 0 0 1
    outer loop
      vertex 10.031065515169782 6.5 3.4
      vertex 12.4 6.5 3.4
      vertex 12.4 7.5 3.4
    endloop
  endfacet
  facet normal 0 0 -1
    outer loop
      vertex 12.399999999527932 6.5 2.9899999999999998
      vertex 12.4 7.5 2.9899999999999998
      vertex 12.4 6.5 2.9899999999999998
    endloop
  endfacet
  facet normal 1 0 0
    outer loop
      vertex 12.4 6.5 2.9899999999999998
      vertex 12.4 7.5 3.4
      vertex 12.4 6.5 3.4
    endloop
  endfacet
  facet normal 0 0 -1
    outer loop
      vertex 12.399999999527932 6.5 2.9899999999999998
      vertex 12.399999999530474 7.5 2.9899999999999998
      vertex 12.4 7.5 2.9899999999999998
    endloop
  endfacet
  facet normal 1 0 0
    outer loop
      vertex 12.4 6.5 2.9899999999999998
      vertex 12.4 7.5 2.9899999999999998
      vertex 12.4 7.5 3.4
    endloop
  endfacet
  facet normal -1 0 0
    outer loop
      vertex -12.399999999527932 6.5 -3.39999999999909
      vertex -12.399999999527932 6.5 2.9899999999999998
      vertex -12.399999999527932 7.5 -3.3999999999990256
    endloop
  endfacet
  facet normal -3.9072687739101875e-14 6.439293542825908e-14 -1
    outer loop
      vertex -12.399999999527932 6.5 -3.39999999999909
      vertex -12.399999999527932 7.5 -3.3999999999990256
      vertex 12.399999999527932 7.5 -3.3999999999999946
    endloop
  endfacet
  facet normal -1 0 0
    outer loop
      vertex -12.399999999527932 6.5 2.9899999999999998
      vertex -12.399999999527932 7.5 2.9899999999999998
      vertex -12.399999999527932 7.5 -3.3999999999990256
    endloop
  endfacet
  facet normal -3.38797090753349e-14 -6.439293542825913e-14 -1
    outer loop
      vertex -12.399999999527932 6.5 -3.39999999999909
      vertex 12.399999999527932 7.5 -3.3999999999999946
      vertex 12.399999999527932 6.5 -3.39999999999993
    endloop
  endfacet
  facet normal 1 -2.541966637181758e-12 0
    outer loop
      vertex 12.399999999527932 6.5 2.9899999999999998
      vertex 12.399999999527932 6.5 -3.39999999999993
      vertex 12.399999999530474 7.5 2.9899999999999998
    endloop
  endfacet
  facet normal 1 -2.5615757985733023e-26 -3.9780385558400014e-13
    outer loop
      vertex 12.399999999527932 6.5 -3.39999999999993
      vertex 12.399999999527932 7.5 -3.3999999999999946
      vertex 12.399999999530474 7.5 2.9899999999999998
    endloop
  endfacet
  facet normal 0 -1 0
    outer loop
      vertex -12.399999999527932 6.5 2.9899999999999998
      vertex -12.4 6.5 3.4
      vertex -12.4 6.5 2.9899999999999998
    endloop
  endfacet
  facet normal 0 -1 0
    outer loop
      vertex -12.399999999527932 6.5 2.9899999999999998
      vertex -12.399999999527932 6.5 -3.39999999999909
      vertex 10.031065515169782 6.5 3.4
    endloop
  endfacet
  facet normal 0 -1 0
    outer loop
      vertex -12.399999999527932 6.5 2.9899999999999998
      vertex 10.031065515169782 6.5 3.4
      vertex -12.4 6.5 3.4
    endloop
  endfacet
  facet normal 0 1 0
    outer loop
      vertex -12.399999999997442 7.5 2.9899999999999998
      vertex -12.4 7.5 3.4
      vertex -12.399999999527932 7.5 2.9899999999999998
    endloop
  endfacet
  facet normal 0 1 0
    outer loop
      vertex -12.399999999527932 7.5 2.9899999999999998
      vertex 12.4 7.5 3.4
      vertex -12.399999999527932 7.5 -3.3999999999990256
    endloop
  endfacet
  facet normal 0 1 0
    outer loop
      vertex -12.399999999527932 7.5 2.9899999999999998
      vertex -12.4 7.5 3.4
      vertex 12.4 7.5 3.4
    endloop
  endfacet
  facet normal 0 -1 0
    outer loop
      vertex 10.031065515169782 6.5 3.4
      vertex -12.399999999527932 6.5 -3.39999999999909
      vertex 12.399999999527932 6.5 -3.39999999999993
    endloop
  endfacet
  facet normal 0 -1 0
    outer loop
      vertex 10.031065515169782 6.5 3.4
      vertex 12.399999999527932 6.5 -3.39999999999993
      vertex 12.399999999527932 6.5 2.9899999999999998
    endloop
  endfacet
  facet normal 0 -1 0
    outer loop
      vertex 10.031065515169782 6.5 3.4
      vertex 12.399999999527932 6.5 2.9899999999999998
      vertex 12.4 6.5 2.9899999999999998
    endloop
  endfacet
  facet normal 0 -1 0
    outer loop
      vertex 10.031065515169782 6.5 3.4
      vertex 12.4 6.5 2.9899999999999998
      vertex 12.4 6.5 3.4
    endloop
  endfacet
  facet normal 0 1 0
    outer loop
      vertex 12.399999999530474 7.5 2.9899999999999998
      vertex 12.399999999527932 7.5 -3.3999999999999946
      vertex -12.399999999527932 7.5 -3.3999999999990256
    endloop
  endfacet
  facet normal 0 1 0
    outer loop
      vertex -12.399999999527932 7.5 -3.3999999999990256
      vertex 12.4 7.5 3.4
      vertex 12.399999999530474 7.5 2.9899999999999998
    endloop
  endfacet
  facet normal 0 1 0
    outer loop
      vertex 12.4 7.5 3.4
      vertex 12.4 7.5 2.9899999999999998
      vertex 12.399999999530474 7.5 2.9899999999999998
    endloop
  endfacet
endsolid OpenSCAD_Model
